<svg width="309" height="295" viewBox="0 0 309 295" fill="none" xmlns="http://www.w3.org/2000/svg">
<g filter="url(#filter0_d)">
<ellipse cx="154.5" cy="208.5" rx="124.5" ry="16.5" fill="white"/>
</g>
<path d="M155.779 177.437C155.779 186.007 170.968 192.954 189.706 192.954C208.443 192.954 223.633 186.007 223.633 177.437C223.633 168.868 208.443 161.921 189.706 161.921C170.968 161.921 155.779 168.868 155.779 177.437Z" stroke="white" stroke-width="2" stroke-linecap="round" stroke-linejoin="round"/>
<path d="M156.256 177.435C156.256 185.846 171.232 192.664 189.706 192.664C208.179 192.664 223.155 185.846 223.155 177.435C223.155 169.024 208.179 162.206 189.706 162.206C171.232 162.206 156.256 169.024 156.256 177.435Z" fill="#FECB4F"/>
<path d="M155.299 172.267C155.299 163.539 170.702 156.463 189.704 156.463C208.706 156.463 224.108 163.539 224.108 172.267L224.108 177.439L223.153 177.439L223.153 175.982C219.514 182.918 205.919 188.07 189.704 188.07C173.488 188.07 159.892 182.916 156.254 175.981L156.254 177.439L155.299 177.439L155.299 172.267Z" fill="white"/>
<path d="M160.558 171.835C160.558 179.215 173.608 185.197 189.707 185.197C205.805 185.197 218.855 179.215 218.855 171.835C218.855 164.456 205.805 158.474 189.707 158.474C173.608 158.474 160.558 164.456 160.558 171.835Z" fill="#FECB4F"/>
<path d="M176.341 175.927C176.343 176.002 176.483 176.076 176.656 176.089L200.288 178.306C200.461 178.32 200.598 178.275 200.596 178.198L200.542 176.295C200.54 176.22 200.4 176.147 200.227 176.133L181.559 174.691L200.133 172.837C200.306 172.82 200.442 172.744 200.44 172.669L200.372 170.286C200.37 170.211 200.23 170.138 200.057 170.124L181.667 168.739L199.966 166.903C200.138 166.886 200.274 166.81 200.272 166.735L200.214 164.682C200.212 164.622 200.072 164.563 199.9 164.58L176.405 167.219C176.233 167.235 176.097 167.312 176.099 167.387L176.171 169.949C176.173 170.024 176.313 170.097 176.487 170.111L193.217 171.439L176.577 173.271C176.404 173.288 176.268 173.365 176.27 173.44L176.341 175.927Z" fill="white"/>
<path d="M155.779 168.242C155.779 176.811 170.968 183.758 189.706 183.758C208.443 183.758 223.633 176.811 223.633 168.242C223.633 159.673 208.443 152.726 189.706 152.726C170.968 152.726 155.779 159.673 155.779 168.242Z" stroke="white" stroke-width="2" stroke-linecap="round" stroke-linejoin="round"/>
<path d="M156.256 168.241C156.256 176.652 171.232 183.47 189.706 183.47C208.179 183.47 223.155 176.652 223.155 168.241C223.155 159.83 208.179 153.012 189.706 153.012C171.232 153.012 156.256 159.83 156.256 168.241Z" fill="#FECB4F"/>
<path d="M155.299 163.072C155.299 154.344 170.702 147.268 189.704 147.268C208.706 147.268 224.108 154.344 224.108 163.072L224.108 168.244L223.153 168.244L223.153 166.787C219.514 173.723 205.919 178.875 189.704 178.875C173.488 178.875 159.892 173.721 156.254 166.786L156.254 168.244L155.299 168.244L155.299 163.072Z" fill="white"/>
<path d="M160.558 162.641C160.558 170.02 173.608 176.002 189.707 176.002C205.805 176.002 218.855 170.02 218.855 162.641C218.855 155.262 205.805 149.28 189.707 149.28C173.608 149.28 160.558 155.262 160.558 162.641Z" fill="#FECB4F"/>
<path d="M176.341 166.732C176.343 166.807 176.483 166.88 176.656 166.893L200.288 169.111C200.461 169.124 200.598 169.079 200.596 169.003L200.542 167.1C200.54 167.025 200.4 166.951 200.227 166.938L181.559 165.495L200.133 163.642C200.306 163.625 200.442 163.548 200.44 163.474L200.372 161.091C200.37 161.016 200.23 160.943 200.057 160.929L181.667 159.544L199.966 157.708C200.138 157.691 200.274 157.615 200.272 157.54L200.214 155.487C200.212 155.427 200.072 155.369 199.9 155.385L176.405 158.024C176.233 158.04 176.097 158.117 176.099 158.192L176.171 160.754C176.173 160.829 176.313 160.902 176.487 160.916L193.217 162.244L176.577 164.076C176.404 164.093 176.268 164.169 176.27 164.244L176.341 166.732Z" fill="white"/>
<path d="M155.779 159.047C155.779 167.616 170.968 174.563 189.706 174.563C208.443 174.563 223.633 167.616 223.633 159.047C223.633 150.477 208.443 143.53 189.706 143.53C170.968 143.53 155.779 150.477 155.779 159.047Z" stroke="white" stroke-width="2" stroke-linecap="round" stroke-linejoin="round"/>
<path d="M156.256 159.049C156.256 167.46 171.232 174.278 189.706 174.278C208.179 174.278 223.155 167.46 223.155 159.049C223.155 150.639 208.179 143.821 189.706 143.821C171.232 143.821 156.256 150.639 156.256 159.049Z" fill="#FECB4F"/>
<path d="M155.299 153.876C155.299 145.149 170.702 138.073 189.704 138.073C208.706 138.073 224.108 145.149 224.108 153.876L224.108 159.048L223.153 159.048L223.153 157.592C219.514 164.527 205.919 169.68 189.704 169.68C173.488 169.68 159.892 164.526 156.254 157.591L156.254 159.048L155.299 159.048L155.299 153.876Z" fill="white"/>
<path d="M160.558 153.446C160.558 160.825 173.608 166.808 189.707 166.808C205.805 166.808 218.855 160.825 218.855 153.446C218.855 146.067 205.805 140.085 189.707 140.085C173.608 140.085 160.558 146.067 160.558 153.446Z" fill="#FECB4F"/>
<path d="M176.341 157.537C176.343 157.612 176.483 157.685 176.656 157.699L200.288 159.916C200.461 159.929 200.598 159.884 200.596 159.808L200.542 157.905C200.54 157.83 200.4 157.757 200.227 157.743L181.559 156.3L200.133 154.447C200.306 154.43 200.442 154.354 200.44 154.279L200.372 151.896C200.37 151.821 200.23 151.748 200.057 151.734L181.667 150.349L199.966 148.513C200.138 148.496 200.274 148.42 200.272 148.345L200.214 146.292C200.212 146.232 200.072 146.174 199.9 146.191L176.405 148.829C176.233 148.846 176.097 148.922 176.099 148.997L176.171 151.559C176.173 151.634 176.313 151.707 176.487 151.721L193.217 153.049L176.577 154.881C176.404 154.898 176.268 154.974 176.27 155.049L176.341 157.537Z" fill="white"/>
<path d="M155.779 149.852C155.779 158.421 170.968 165.368 189.706 165.368C208.443 165.368 223.633 158.421 223.633 149.852C223.633 141.283 208.443 134.336 189.706 134.336C170.968 134.336 155.779 141.283 155.779 149.852Z" stroke="white" stroke-width="2" stroke-linecap="round" stroke-linejoin="round"/>
<path d="M156.256 149.852C156.256 158.263 171.232 165.081 189.706 165.081C208.179 165.081 223.155 158.263 223.155 149.852C223.155 141.441 208.179 134.623 189.706 134.623C171.232 134.623 156.256 141.441 156.256 149.852Z" fill="#FECB4F"/>
<path d="M155.299 144.682C155.299 135.955 170.702 128.879 189.704 128.879C208.706 128.879 224.108 135.955 224.108 144.682L224.108 149.854L223.153 149.854L223.153 148.398C219.514 155.333 205.919 160.485 189.704 160.485C173.488 160.485 159.892 155.332 156.254 148.397L156.254 149.854L155.299 149.854L155.299 144.682Z" fill="white"/>
<path d="M160.558 144.251C160.558 151.63 173.608 157.612 189.707 157.612C205.805 157.612 218.855 151.63 218.855 144.251C218.855 136.872 205.805 130.89 189.707 130.89C173.608 130.89 160.558 136.872 160.558 144.251Z" fill="#FECB4F"/>
<path d="M176.341 148.342C176.343 148.417 176.483 148.491 176.656 148.504L200.288 150.721C200.461 150.734 200.598 150.689 200.596 150.613L200.542 148.71C200.54 148.635 200.4 148.562 200.227 148.548L181.559 147.106L200.133 145.252C200.306 145.236 200.442 145.159 200.44 145.084L200.372 142.702C200.37 142.627 200.23 142.553 200.057 142.54L181.667 141.154L199.966 139.318C200.138 139.302 200.274 139.225 200.272 139.15L200.214 137.098C200.212 137.038 200.072 136.979 199.9 136.996L176.405 139.634C176.233 139.651 176.097 139.727 176.099 139.802L176.171 142.365C176.173 142.44 176.313 142.513 176.487 142.526L193.217 143.854L176.577 145.687C176.404 145.703 176.268 145.78 176.27 145.855L176.341 148.342Z" fill="white"/>
<path d="M155.779 140.659C155.779 149.228 170.968 156.175 189.706 156.175C208.443 156.175 223.633 149.228 223.633 140.659C223.633 132.09 208.443 125.143 189.706 125.143C170.968 125.143 155.779 132.09 155.779 140.659Z" stroke="white" stroke-width="2" stroke-linecap="round" stroke-linejoin="round"/>
<path d="M156.256 140.656C156.256 149.067 171.232 155.885 189.706 155.885C208.179 155.885 223.155 149.067 223.155 140.656C223.155 132.246 208.179 125.427 189.706 125.427C171.232 125.427 156.256 132.245 156.256 140.656Z" fill="#FECB4F"/>
<path d="M155.299 135.487C155.299 126.759 170.702 119.684 189.704 119.684C208.706 119.684 224.108 126.759 224.108 135.487L224.108 140.659L223.153 140.659L223.153 139.202C219.514 146.138 205.919 151.29 189.704 151.29C173.488 151.29 159.892 146.136 156.254 139.201L156.254 140.659L155.299 140.659L155.299 135.487Z" fill="white"/>
<path d="M160.558 135.057C160.558 142.436 173.608 148.417 189.707 148.417C205.805 148.417 218.855 142.436 218.855 135.057C218.855 127.677 205.805 121.696 189.707 121.696C173.608 121.696 160.558 127.677 160.558 135.057Z" fill="#FECB4F"/>
<path d="M176.341 139.148C176.343 139.223 176.483 139.296 176.656 139.309L200.288 141.527C200.461 141.54 200.598 141.495 200.596 141.419L200.542 139.516C200.54 139.441 200.4 139.367 200.227 139.354L181.559 137.911L200.133 136.057C200.306 136.041 200.442 135.964 200.44 135.889L200.372 133.507C200.37 133.432 200.23 133.358 200.057 133.345L181.667 131.959L199.966 130.124C200.138 130.107 200.274 130.03 200.272 129.955L200.214 127.903C200.212 127.843 200.072 127.784 199.9 127.801L176.405 130.439C176.233 130.456 176.097 130.532 176.099 130.607L176.171 133.17C176.173 133.245 176.313 133.318 176.487 133.331L193.217 134.659L176.577 136.492C176.404 136.509 176.268 136.585 176.27 136.66L176.341 139.148Z" fill="white"/>
<path d="M155.779 131.463C155.779 140.032 170.968 146.979 189.706 146.979C208.443 146.979 223.633 140.032 223.633 131.463C223.633 122.894 208.443 115.947 189.706 115.947C170.968 115.947 155.779 122.894 155.779 131.463Z" stroke="white" stroke-width="2" stroke-linecap="round" stroke-linejoin="round"/>
<path d="M156.256 131.464C156.256 139.874 171.232 146.693 189.706 146.693C208.179 146.693 223.155 139.874 223.155 131.464C223.155 123.053 208.179 116.235 189.706 116.235C171.232 116.235 156.256 123.053 156.256 131.464Z" fill="#FECB4F"/>
<path d="M155.299 126.292C155.299 117.565 170.702 110.489 189.704 110.489C208.706 110.489 224.108 117.565 224.108 126.292L224.108 131.464L223.153 131.464L223.153 130.008C219.514 136.943 205.919 142.095 189.704 142.095C173.488 142.095 159.892 136.942 156.254 130.006L156.254 131.464L155.299 131.464L155.299 126.292Z" fill="white"/>
<path d="M160.558 125.862C160.558 133.241 173.608 139.223 189.707 139.223C205.805 139.223 218.855 133.241 218.855 125.862C218.855 118.483 205.805 112.501 189.707 112.501C173.608 112.501 160.558 118.483 160.558 125.862Z" fill="#FECB4F"/>
<path d="M176.341 129.953C176.343 130.028 176.483 130.102 176.656 130.115L200.288 132.332C200.461 132.346 200.598 132.3 200.596 132.224L200.542 130.321C200.54 130.246 200.4 130.173 200.227 130.16L181.559 128.717L200.133 126.863C200.306 126.846 200.442 126.77 200.44 126.695L200.372 124.312C200.37 124.237 200.23 124.164 200.057 124.151L181.667 122.765L199.966 120.929C200.138 120.913 200.274 120.836 200.272 120.761L200.214 118.709C200.212 118.648 200.072 118.59 199.9 118.607L176.405 121.245C176.233 121.262 176.097 121.338 176.099 121.413L176.171 123.976C176.173 124.051 176.313 124.124 176.487 124.137L193.217 125.465L176.577 127.298C176.404 127.314 176.268 127.391 176.27 127.466L176.341 129.953Z" fill="white"/>
<path d="M155.779 122.268C155.779 130.838 170.968 137.785 189.706 137.785C208.443 137.785 223.633 130.838 223.633 122.268C223.633 113.698 208.443 106.751 189.706 106.751C170.968 106.751 155.779 113.698 155.779 122.268Z" stroke="white" stroke-width="2" stroke-linecap="round" stroke-linejoin="round"/>
<path d="M156.256 122.27C156.256 130.681 171.232 137.499 189.706 137.499C208.179 137.499 223.155 130.681 223.155 122.27C223.155 113.86 208.179 107.042 189.706 107.042C171.232 107.041 156.256 113.86 156.256 122.27Z" fill="#FECB4F"/>
<path d="M155.299 117.098C155.299 108.37 170.702 101.294 189.704 101.294C208.706 101.294 224.108 108.37 224.108 117.098L224.108 122.27L223.153 122.27L223.153 120.813C219.514 127.749 205.919 132.901 189.704 132.901C173.488 132.901 159.892 127.748 156.254 120.812L156.254 122.27L155.299 122.27L155.299 117.098Z" fill="white"/>
<path d="M160.558 116.667C160.558 124.046 173.608 130.028 189.707 130.028C205.805 130.028 218.855 124.046 218.855 116.667C218.855 109.288 205.805 103.306 189.707 103.306C173.608 103.306 160.558 109.288 160.558 116.667Z" fill="#FECB4F"/>
<path d="M176.341 120.758C176.343 120.833 176.483 120.906 176.656 120.92L200.288 123.137C200.461 123.15 200.598 123.105 200.596 123.029L200.542 121.126C200.54 121.051 200.4 120.978 200.227 120.964L181.559 119.521L200.133 117.668C200.306 117.651 200.442 117.575 200.44 117.5L200.372 115.117C200.37 115.042 200.23 114.969 200.057 114.956L181.667 113.57L199.966 111.734C200.138 111.718 200.274 111.641 200.272 111.566L200.214 109.514C200.212 109.454 200.072 109.395 199.9 109.412L176.405 112.05C176.233 112.067 176.097 112.143 176.099 112.218L176.171 114.78C176.173 114.855 176.313 114.929 176.487 114.942L193.217 116.27L176.577 118.102C176.404 118.119 176.268 118.196 176.27 118.271L176.341 120.758Z" fill="white"/>
<path d="M155.779 113.073C155.779 121.642 170.968 128.589 189.706 128.589C208.443 128.589 223.633 121.642 223.633 113.073C223.633 104.503 208.443 97.5566 189.706 97.5566C170.968 97.5566 155.779 104.503 155.779 113.073Z" stroke="white" stroke-width="2" stroke-linecap="round" stroke-linejoin="round"/>
<path d="M156.256 113.073C156.256 121.484 171.232 128.302 189.706 128.302C208.179 128.302 223.155 121.484 223.155 113.073C223.155 104.662 208.179 97.8442 189.706 97.8442C171.232 97.8442 156.256 104.662 156.256 113.073Z" fill="#FECB4F"/>
<path d="M155.299 107.903C155.299 99.1753 170.702 92.0996 189.704 92.0996C208.706 92.0996 224.108 99.1753 224.108 107.903L224.108 113.075L223.153 113.075L223.153 111.619C219.514 118.554 205.919 123.707 189.704 123.707C173.488 123.707 159.892 118.553 156.254 111.618L156.254 113.075L155.299 113.075L155.299 107.903Z" fill="white"/>
<path d="M160.558 107.472C160.558 114.851 173.608 120.833 189.707 120.833C205.805 120.833 218.855 114.851 218.855 107.472C218.855 100.093 205.805 94.1106 189.707 94.1106C173.608 94.1106 160.558 100.093 160.558 107.472Z" fill="#FECB4F"/>
<path d="M176.341 111.563C176.343 111.638 176.483 111.712 176.656 111.725L200.288 113.942C200.461 113.955 200.598 113.91 200.596 113.834L200.542 111.931C200.54 111.856 200.4 111.783 200.227 111.77L181.559 110.327L200.133 108.473C200.306 108.457 200.442 108.38 200.44 108.305L200.372 105.923C200.37 105.848 200.23 105.774 200.057 105.761L181.667 104.375L199.966 102.54C200.138 102.523 200.274 102.447 200.272 102.372L200.214 100.319C200.212 100.259 200.072 100.201 199.9 100.217L176.405 102.856C176.233 102.872 176.097 102.949 176.099 103.024L176.171 105.586C176.173 105.661 176.313 105.734 176.487 105.748L193.217 107.075L176.577 108.908C176.404 108.925 176.268 109.001 176.27 109.076L176.341 111.563Z" fill="white"/>
<path d="M155.779 103.88C155.779 112.45 170.968 119.396 189.706 119.396C208.443 119.396 223.633 112.45 223.633 103.88C223.633 95.3105 208.443 88.3635 189.706 88.3635C170.968 88.3635 155.779 95.3105 155.779 103.88Z" stroke="white" stroke-width="2" stroke-linecap="round" stroke-linejoin="round"/>
<path d="M156.256 103.877C156.256 112.288 171.232 119.106 189.706 119.106C208.179 119.106 223.155 112.288 223.155 103.877C223.155 95.4663 208.179 88.6479 189.706 88.6479C171.232 88.6479 156.256 95.4663 156.256 103.877Z" fill="#FECB4F"/>
<path d="M155.299 98.7087C155.299 89.9809 170.702 82.9053 189.704 82.9053C208.706 82.9053 224.108 89.9809 224.108 98.7087L224.108 103.881L223.153 103.881L223.153 102.424C219.514 109.36 205.919 114.512 189.704 114.512C173.488 114.512 159.892 109.358 156.254 102.423L156.254 103.881L155.299 103.881L155.299 98.7087Z" fill="white"/>
<path d="M160.558 98.2776C160.558 105.656 173.608 111.638 189.707 111.638C205.805 111.638 218.855 105.656 218.855 98.2776C218.855 90.8987 205.805 84.917 189.707 84.917C173.608 84.917 160.558 90.8987 160.558 98.2776Z" fill="#FECB4F"/>
<path d="M176.341 102.368C176.343 102.443 176.483 102.516 176.656 102.53L200.288 104.747C200.461 104.76 200.598 104.715 200.596 104.639L200.542 102.736C200.54 102.661 200.4 102.588 200.227 102.574L181.559 101.132L200.133 99.2784C200.306 99.2617 200.442 99.1853 200.44 99.1104L200.372 96.728C200.37 96.653 200.23 96.5798 200.057 96.5663L181.667 95.1808L199.966 93.3453C200.138 93.3286 200.274 93.2522 200.272 93.1773L200.214 91.1248C200.212 91.0647 200.072 91.0064 199.9 91.0231L176.405 93.6612C176.233 93.6779 176.097 93.7543 176.099 93.8293L176.171 96.3911C176.173 96.4661 176.313 96.5394 176.487 96.5529L193.217 97.8806L176.577 99.7129C176.404 99.7296 176.268 99.806 176.27 99.881L176.341 102.368Z" fill="white"/>
<path d="M155.779 94.6846C155.779 103.254 170.968 110.201 189.706 110.201C208.443 110.201 223.633 103.254 223.633 94.6846C223.633 86.1151 208.443 79.1682 189.706 79.1682C170.968 79.1682 155.779 86.1151 155.779 94.6846Z" stroke="white" stroke-width="2" stroke-linecap="round" stroke-linejoin="round"/>
<path d="M156.256 94.682C156.256 103.093 171.232 109.911 189.706 109.911C208.179 109.911 223.155 103.093 223.155 94.682C223.155 86.2713 208.179 79.4531 189.706 79.4531C171.232 79.4531 156.256 86.2713 156.256 94.682Z" fill="#FECB4F"/>
<path d="M155.299 89.5135C155.299 80.7857 170.702 73.71 189.704 73.71C208.706 73.71 224.108 80.7857 224.108 89.5135L224.108 94.6856L223.153 94.6856L223.153 93.2292C219.514 100.165 205.919 105.317 189.704 105.317C173.488 105.317 159.892 100.163 156.254 93.2279L156.254 94.6856L155.299 94.6856L155.299 89.5135Z" fill="white"/>
<path d="M160.558 89.083C160.558 96.4623 173.608 102.444 189.707 102.444C205.805 102.444 218.855 96.4623 218.855 89.083C218.855 81.7037 205.805 75.7217 189.707 75.7217C173.608 75.7217 160.558 81.7037 160.558 89.083Z" fill="#FECB4F"/>
<path d="M176.341 93.1742C176.343 93.2492 176.483 93.3225 176.656 93.3359L200.288 95.5533C200.461 95.5665 200.598 95.5214 200.596 95.4453L200.542 93.5422C200.54 93.4672 200.4 93.3939 200.227 93.3804L181.559 91.9375L200.133 90.0839C200.306 90.0672 200.442 89.9908 200.44 89.9158L200.372 87.5331C200.37 87.4581 200.23 87.3848 200.057 87.3714L181.667 85.9857L199.966 84.1499C200.138 84.1332 200.274 84.0568 200.272 83.9818L200.214 81.929C200.212 81.8689 200.072 81.8106 199.9 81.8273L176.405 84.4658C176.233 84.4825 176.097 84.5589 176.099 84.6339L176.171 87.1962C176.173 87.2712 176.313 87.3445 176.487 87.3579L193.217 88.6859L176.577 90.5185C176.404 90.5352 176.268 90.6116 176.27 90.6866L176.341 93.1742Z" fill="white"/>
<path d="M155.779 85.4877C155.779 94.0569 170.968 101.004 189.706 101.004C208.443 101.004 223.633 94.0569 223.633 85.4877C223.633 76.9184 208.443 69.9717 189.706 69.9717C170.968 69.9717 155.779 76.9184 155.779 85.4877Z" stroke="white" stroke-width="2" stroke-linecap="round" stroke-linejoin="round"/>
<path d="M156.256 85.4895C156.256 93.9002 171.232 100.718 189.706 100.718C208.179 100.718 223.155 93.9002 223.155 85.4895C223.155 77.0788 208.179 70.2605 189.706 70.2605C171.232 70.2605 156.256 77.0787 156.256 85.4895Z" fill="#FECB4F"/>
<path d="M155.299 80.319C155.299 71.5912 170.702 64.5156 189.704 64.5156C208.706 64.5156 224.108 71.5912 224.108 80.319L224.108 85.491L223.153 85.491L223.153 84.0345C219.514 90.9699 205.919 96.1223 189.704 96.1223C173.488 96.1223 159.892 90.9686 156.254 84.0333L156.254 85.491L155.299 85.491L155.299 80.319Z" fill="white"/>
<path d="M160.558 79.8879C160.558 87.2672 173.608 93.2493 189.707 93.2493C205.805 93.2493 218.855 87.2672 218.855 79.8879C218.855 72.5087 205.805 66.5266 189.707 66.5266C173.608 66.5266 160.558 72.5087 160.558 79.8879Z" fill="#FECB4F"/>
<path d="M176.341 83.9792C176.343 84.0541 176.483 84.1274 176.656 84.1409L200.288 86.3583C200.461 86.3714 200.598 86.3263 200.596 86.2502L200.542 84.3471C200.54 84.2721 200.4 84.1988 200.227 84.1854L181.559 82.7425L200.133 80.889C200.306 80.8723 200.442 80.7959 200.44 80.7209L200.372 78.3382C200.37 78.2632 200.23 78.1899 200.057 78.1765L181.667 76.7908L199.966 74.955C200.138 74.9383 200.274 74.8619 200.272 74.7869L200.214 72.7342C200.212 72.6741 200.072 72.6157 199.9 72.6325L176.405 75.2709C176.233 75.2876 176.097 75.364 176.099 75.439L176.171 78.0013C176.173 78.0763 176.313 78.1496 176.487 78.163L193.217 79.4909L176.577 81.3235C176.404 81.3402 176.268 81.4166 176.27 81.4916L176.341 83.9792Z" fill="white"/>
<path d="M155.779 76.293C155.779 84.8623 170.968 91.8091 189.706 91.8091C208.443 91.8091 223.633 84.8623 223.633 76.293C223.633 67.7237 208.443 60.7769 189.706 60.7769C170.968 60.7769 155.779 67.7236 155.779 76.293Z" stroke="white" stroke-width="2" stroke-linecap="round" stroke-linejoin="round"/>
<path d="M156.256 76.2937C156.256 84.7043 171.232 91.5225 189.706 91.5225C208.179 91.5225 223.155 84.7043 223.155 76.2937C223.155 67.8831 208.179 61.0649 189.706 61.0649C171.232 61.0649 156.256 67.8831 156.256 76.2937Z" fill="#FECB4F"/>
<path d="M155.299 71.1244C155.299 62.3964 170.702 55.3206 189.704 55.3206C208.706 55.3206 224.108 62.3964 224.108 71.1244L224.108 76.2965L223.153 76.2965L223.153 74.8401C219.514 81.7756 205.919 86.9282 189.704 86.9282C173.488 86.9282 159.892 81.7744 156.254 74.8388L156.254 76.2965L155.299 76.2965L155.299 71.1244Z" fill="white"/>
<path d="M160.558 70.6931C160.558 78.0725 173.608 84.0547 189.707 84.0547C205.805 84.0547 218.855 78.0725 218.855 70.6931C218.855 63.3137 205.805 57.3315 189.707 57.3315C173.608 57.3315 160.558 63.3137 160.558 70.6931Z" fill="#FECB4F"/>
<path d="M176.341 74.784C176.343 74.859 176.483 74.9323 176.656 74.9458L200.288 77.163C200.461 77.1761 200.598 77.1311 200.596 77.0549L200.542 75.152C200.54 75.077 200.4 75.0037 200.227 74.9902L181.559 73.5474L200.133 71.6941C200.306 71.6774 200.442 71.6009 200.44 71.526L200.372 69.1435C200.37 69.0685 200.23 68.9952 200.057 68.9817L181.667 67.5962L199.966 65.7606C200.138 65.7438 200.274 65.6674 200.272 65.5924L200.214 63.5398C200.212 63.4798 200.072 63.4214 199.9 63.4381L176.405 66.0764C176.233 66.0931 176.097 66.1695 176.099 66.2445L176.171 68.8066C176.173 68.8815 176.313 68.9548 176.487 68.9683L193.217 70.2961L176.577 72.1286C176.404 72.1453 176.268 72.2217 176.27 72.2967L176.341 74.784Z" fill="white"/>
<path d="M155.779 67.1006C155.779 75.6699 170.968 82.6167 189.706 82.6167C208.443 82.6167 223.633 75.6699 223.633 67.1006C223.633 58.5313 208.443 51.5845 189.706 51.5845C170.968 51.5845 155.779 58.5313 155.779 67.1006Z" stroke="white" stroke-width="2" stroke-linecap="round" stroke-linejoin="round"/>
<path d="M156.256 67.1009C156.256 75.5116 171.232 82.3298 189.706 82.3298C208.179 82.3298 223.155 75.5116 223.155 67.1009C223.155 58.6903 208.179 51.8721 189.706 51.8721C171.232 51.8721 156.256 58.6903 156.256 67.1009Z" fill="#FECB4F"/>
<path d="M155.299 61.93C155.299 53.202 170.702 46.1262 189.704 46.1262C208.706 46.1262 224.108 53.202 224.108 61.9301L224.108 67.1022L223.153 67.1022L223.153 65.6457C219.514 72.5813 205.919 77.7339 189.704 77.7339C173.488 77.7339 159.892 72.58 156.254 65.6445L156.254 67.1022L155.299 67.1022L155.299 61.93Z" fill="white"/>
<path d="M160.558 61.4979C160.558 68.877 173.608 74.8589 189.707 74.8589C205.805 74.8589 218.855 68.877 218.855 61.4979C218.855 54.1189 205.805 48.137 189.707 48.137C173.608 48.137 160.558 54.1189 160.558 61.4979Z" fill="#FECB4F"/>
<path d="M176.341 65.5895C176.343 65.6645 176.483 65.7378 176.656 65.7513L200.288 67.9686C200.461 67.9818 200.598 67.9367 200.596 67.8606L200.542 65.9575C200.54 65.8825 200.4 65.8092 200.227 65.7957L181.559 64.3528L200.133 62.4993C200.306 62.4826 200.442 62.4062 200.44 62.3312L200.372 59.9486C200.37 59.8736 200.23 59.8003 200.057 59.7868L181.667 58.4011L199.966 56.5654C200.138 56.5487 200.274 56.4723 200.272 56.3973L200.214 54.3445C200.212 54.2845 200.072 54.2261 199.9 54.2428L176.405 56.8813C176.233 56.898 176.097 56.9744 176.099 57.0494L176.171 59.6116C176.173 59.6866 176.313 59.7599 176.487 59.7734L193.217 61.1013L176.577 62.9339C176.404 62.9506 176.268 63.027 176.27 63.102L176.341 65.5895Z" fill="white"/>
<path d="M155.779 57.9054C155.779 66.4747 170.968 73.4214 189.706 73.4214C208.443 73.4214 223.633 66.4747 223.633 57.9055C223.633 49.3362 208.443 42.3895 189.706 42.3895C170.968 42.3895 155.779 49.3362 155.779 57.9054Z" stroke="white" stroke-width="2" stroke-linecap="round" stroke-linejoin="round"/>
<path d="M156.256 57.9045C156.256 66.315 171.232 73.133 189.706 73.133C208.179 73.133 223.155 66.315 223.155 57.9045C223.155 49.494 208.179 42.6759 189.706 42.6759C171.232 42.6759 156.256 49.494 156.256 57.9045Z" fill="#FECB4F"/>
<path d="M155.299 52.7347C155.299 44.007 170.702 36.9314 189.704 36.9314C208.706 36.9314 224.108 44.007 224.108 52.7347L224.108 57.9067L223.153 57.9067L223.153 56.4503C219.514 63.3857 205.919 68.5381 189.704 68.5381C173.488 68.5381 159.892 63.3844 156.254 56.449L156.254 57.9067L155.299 57.9067L155.299 52.7347Z" fill="white"/>
<path d="M160.558 52.3035C160.558 59.6824 173.608 65.6643 189.707 65.6643C205.805 65.6643 218.855 59.6825 218.855 52.3035C218.855 44.9245 205.805 38.9426 189.707 38.9426C173.608 38.9426 160.558 44.9245 160.558 52.3035Z" fill="#FECB4F"/>
<path d="M176.341 56.395C176.343 56.47 176.483 56.5433 176.656 56.5568L200.288 58.774C200.461 58.7872 200.598 58.7421 200.596 58.666L200.542 56.763C200.54 56.688 200.4 56.6147 200.227 56.6012L181.559 55.1584L200.133 53.3049C200.306 53.2882 200.442 53.2118 200.44 53.1368L200.372 50.7543C200.37 50.6793 200.23 50.606 200.057 50.5925L181.667 49.2069L199.966 47.3712C200.138 47.3545 200.274 47.2781 200.272 47.2031L200.214 45.1504C200.212 45.0904 200.072 45.032 199.9 45.0487L176.405 47.6871C176.233 47.7038 176.097 47.7802 176.099 47.8552L176.171 50.4173C176.173 50.4923 176.313 50.5656 176.487 50.5791L193.217 51.907L176.577 53.7395C176.404 53.7562 176.268 53.8326 176.27 53.9076L176.341 56.395Z" fill="white"/>
<path d="M155.779 48.7115C155.779 57.2809 170.968 64.2278 189.706 64.2278C208.443 64.2278 223.633 57.2809 223.633 48.7115C223.633 40.1421 208.443 33.1952 189.706 33.1952C170.968 33.1952 155.779 40.1421 155.779 48.7115Z" stroke="white" stroke-width="2" stroke-linecap="round" stroke-linejoin="round"/>
<path d="M156.256 48.7084C156.256 57.1189 171.232 63.937 189.706 63.937C208.179 63.937 223.155 57.1189 223.155 48.7084C223.155 40.2979 208.179 33.4799 189.706 33.4799C171.232 33.4799 156.256 40.2979 156.256 48.7084Z" fill="#FECB4F"/>
<path d="M155.299 43.5397C155.299 34.8119 170.702 27.7363 189.704 27.7363C208.706 27.7363 224.108 34.8119 224.108 43.5397L224.108 48.7117L223.153 48.7117L223.153 47.2552C219.514 54.1906 205.919 59.343 189.704 59.343C173.488 59.343 159.892 54.1893 156.254 47.254L156.254 48.7117L155.299 48.7117L155.299 43.5397Z" fill="white"/>
<path d="M160.558 43.109C160.558 50.4882 173.608 56.4702 189.707 56.4702C205.805 56.4702 218.855 50.4882 218.855 43.109C218.855 35.7298 205.805 29.7478 189.707 29.7478C173.608 29.7478 160.558 35.7298 160.558 43.109Z" fill="#FECB4F"/>
<path d="M176.341 47.2001C176.343 47.2751 176.483 47.3484 176.656 47.3619L200.288 49.5792C200.461 49.5924 200.598 49.5473 200.596 49.4711L200.542 47.5681C200.54 47.4931 200.4 47.4198 200.227 47.4063L181.559 45.9634L200.133 44.1099C200.306 44.0932 200.442 44.0168 200.44 43.9418L200.372 41.5592C200.37 41.4842 200.23 41.4109 200.057 41.3974L181.667 40.0117L199.966 38.176C200.138 38.1593 200.274 38.0829 200.272 38.0079L200.214 35.9551C200.212 35.895 200.072 35.8367 199.9 35.8534L176.405 38.4919C176.233 38.5086 176.097 38.585 176.099 38.66L176.171 41.2222C176.173 41.2972 176.313 41.3705 176.487 41.384L193.217 42.7119L176.577 44.5445C176.404 44.5612 176.268 44.6376 176.27 44.7126L176.341 47.2001Z" fill="white"/>
<path d="M155.779 39.5156C155.779 48.0848 170.968 55.0316 189.706 55.0316C208.443 55.0316 223.633 48.0848 223.633 39.5156C223.633 30.9463 208.443 23.9995 189.706 23.9995C170.968 23.9995 155.779 30.9463 155.779 39.5156Z" stroke="white" stroke-width="2" stroke-linecap="round" stroke-linejoin="round"/>
<path d="M156.256 39.5153C156.256 47.9258 171.232 54.7439 189.706 54.7439C208.179 54.7439 223.155 47.9258 223.155 39.5153C223.155 31.1048 208.179 24.2867 189.706 24.2867C171.232 24.2867 156.256 31.1048 156.256 39.5153Z" fill="#FECB4F"/>
<path d="M155.299 34.345C155.299 25.6171 170.702 18.5415 189.704 18.5415C208.706 18.5415 224.108 25.6171 224.108 34.345L224.108 39.517L223.153 39.517L223.153 38.0606C219.514 44.996 205.919 50.1484 189.704 50.1484C173.488 50.1484 159.892 44.9947 156.254 38.0593L156.254 39.517L155.299 39.517L155.299 34.345Z" fill="white"/>
<path d="M160.558 33.9139C160.558 41.2932 173.608 47.2754 189.707 47.2754C205.805 47.2754 218.855 41.2932 218.855 33.9139C218.855 26.5345 205.805 20.5524 189.707 20.5524C173.608 20.5524 160.558 26.5345 160.558 33.9139Z" fill="#FECB4F"/>
<path d="M176.341 38.0054C176.343 38.0804 176.483 38.1537 176.656 38.1672L200.288 40.3845C200.461 40.3977 200.598 40.3526 200.596 40.2764L200.542 38.3734C200.54 38.2984 200.4 38.2251 200.227 38.2116L181.559 36.7687L200.133 34.9152C200.306 34.8985 200.442 34.8221 200.44 34.7471L200.372 32.3645C200.37 32.2895 200.23 32.2162 200.057 32.2027L181.667 30.817L199.966 28.9813C200.138 28.9646 200.274 28.8882 200.272 28.8132L200.214 26.7604C200.212 26.7003 200.072 26.642 199.9 26.6587L176.405 29.2972C176.233 29.3139 176.097 29.3903 176.099 29.4653L176.171 32.0275C176.173 32.1025 176.313 32.1758 176.487 32.1893L193.217 33.5172L176.577 35.3498C176.404 35.3665 176.268 35.4429 176.27 35.5179L176.341 38.0054Z" fill="white"/>
<path d="M155.779 30.3217C155.779 38.891 170.968 45.8378 189.706 45.8378C208.443 45.8378 223.633 38.891 223.633 30.3217C223.633 21.7524 208.443 14.8057 189.706 14.8057C170.968 14.8057 155.779 21.7524 155.779 30.3217Z" stroke="white" stroke-width="2" stroke-linecap="round" stroke-linejoin="round"/>
<path d="M156.256 30.3191C156.256 38.7298 171.232 45.5481 189.706 45.5481C208.179 45.5481 223.155 38.7298 223.155 30.3191C223.155 21.9083 208.179 15.0901 189.706 15.0901C171.232 15.0901 156.256 21.9083 156.256 30.3191Z" fill="#FECB4F"/>
<path d="M155.299 25.1508C155.299 16.423 170.702 9.34741 189.704 9.34741C208.706 9.34741 224.108 16.423 224.108 25.1508L224.108 30.3228L223.153 30.3228L223.153 28.8664C219.514 35.8018 205.919 40.9542 189.704 40.9542C173.488 40.9542 159.892 35.8005 156.254 28.8651L156.254 30.3228L155.299 30.3228L155.299 25.1508Z" fill="white"/>
<path d="M160.558 24.7194C160.558 32.0985 173.608 38.0804 189.707 38.0804C205.805 38.0804 218.855 32.0985 218.855 24.7194C218.855 17.3402 205.805 11.3583 189.707 11.3583C173.608 11.3583 160.558 17.3402 160.558 24.7194Z" fill="#FECB4F"/>
<path d="M176.341 28.8103C176.343 28.8853 176.483 28.9586 176.656 28.972L200.288 31.1892C200.461 31.2024 200.598 31.1573 200.596 31.0812L200.542 29.1782C200.54 29.1032 200.4 29.03 200.227 29.0165L181.559 27.5737L200.133 25.7204C200.306 25.7036 200.442 25.6272 200.44 25.5523L200.372 23.1698C200.37 23.0948 200.23 23.0215 200.057 23.008L181.667 21.6225L199.966 19.7869C200.138 19.7702 200.274 19.6938 200.272 19.6188L200.214 17.5662C200.212 17.5061 200.072 17.4478 199.9 17.4645L176.405 20.1027C176.233 20.1194 176.097 20.1959 176.099 20.2708L176.171 22.8329C176.173 22.9079 176.313 22.9812 176.487 22.9946L193.217 24.3224L176.577 26.1549C176.404 26.1716 176.268 26.248 176.27 26.323L176.341 28.8103Z" fill="white"/>
<path d="M155.779 21.1274C155.779 29.6967 170.968 36.6435 189.706 36.6435C208.443 36.6435 223.633 29.6967 223.633 21.1274C223.633 12.5581 208.443 5.61133 189.706 5.61133C170.968 5.61132 155.779 12.5581 155.779 21.1274Z" stroke="white" stroke-width="2" stroke-linecap="round" stroke-linejoin="round"/>
<path d="M156.256 21.1244C156.256 29.5351 171.232 36.3533 189.706 36.3533C208.179 36.3533 223.155 29.5351 223.155 21.1244C223.155 12.7138 208.179 5.89563 189.706 5.89563C171.232 5.89563 156.256 12.7138 156.256 21.1244Z" fill="#FECB4F"/>
<path d="M155.299 15.9556C155.299 7.22797 170.702 0.152463 189.704 0.152464C208.706 0.152465 224.108 7.22797 224.108 15.9556L224.108 21.1276L223.153 21.1276L223.153 19.6711C219.514 26.6064 205.919 31.7588 189.704 31.7588C173.488 31.7588 159.892 26.6052 156.254 19.6699L156.254 21.1276L155.299 21.1276L155.299 15.9556Z" fill="white"/>
<path d="M160.558 15.5246C160.558 22.9035 173.608 28.8854 189.707 28.8854C205.805 28.8854 218.855 22.9035 218.855 15.5246C218.855 8.14564 205.805 2.16382 189.707 2.16382C173.608 2.16382 160.558 8.14564 160.558 15.5246Z" fill="#FECB4F"/>
<path d="M176.341 19.6158C176.343 19.6908 176.483 19.7641 176.656 19.7776L200.288 21.9949C200.461 22.008 200.598 21.963 200.596 21.8868L200.542 19.9838C200.54 19.9088 200.4 19.8355 200.227 19.8221L181.559 18.3792L200.133 16.5258C200.306 16.5091 200.442 16.4327 200.44 16.3577L200.372 13.9751C200.37 13.9001 200.23 13.8268 200.057 13.8133L181.667 12.4277L199.966 10.5921C200.138 10.5753 200.274 10.4989 200.272 10.4239L200.214 8.37124C200.212 8.31118 200.072 8.25283 199.9 8.26954L176.405 10.9079C176.233 10.9246 176.097 11.001 176.099 11.076L176.171 13.6382C176.173 13.7132 176.313 13.7865 176.487 13.7999L193.217 15.1278L176.577 16.9603C176.404 16.977 176.268 17.0534 176.27 17.1284L176.341 19.6158Z" fill="white"/>
<path d="M210.827 173.173C210.827 181.742 226.016 188.689 244.754 188.689C263.491 188.689 278.681 181.742 278.681 173.173C278.681 164.603 263.491 157.656 244.754 157.656C226.016 157.656 210.827 164.603 210.827 173.173Z" stroke="white" stroke-width="2" stroke-linecap="round" stroke-linejoin="round"/>
<path d="M211.305 173.174C211.305 181.584 226.28 188.403 244.754 188.403C263.227 188.403 278.203 181.584 278.203 173.174C278.203 164.763 263.227 157.945 244.754 157.945C226.28 157.945 211.305 164.763 211.305 173.174Z" fill="#FECB4F"/>
<path d="M210.347 168.003C210.347 159.275 225.75 152.2 244.752 152.2C263.754 152.2 279.157 159.275 279.157 168.003L279.157 173.175L278.201 173.175L278.201 171.719C274.563 178.654 260.968 183.807 244.752 183.807C228.536 183.807 214.941 178.653 211.303 171.718L211.303 173.175L210.347 173.175L210.347 168.003Z" fill="white"/>
<path d="M215.606 167.573C215.606 174.952 228.657 180.934 244.755 180.934C260.853 180.934 273.904 174.952 273.904 167.573C273.904 160.193 260.853 154.211 244.755 154.211C228.657 154.211 215.606 160.193 215.606 167.573Z" fill="#FECB4F"/>
<path d="M231.389 171.663C231.391 171.738 231.531 171.812 231.705 171.825L255.336 174.042C255.51 174.055 255.647 174.01 255.644 173.934L255.591 172.031C255.588 171.956 255.448 171.883 255.275 171.869L236.607 170.427L255.182 168.573C255.354 168.557 255.49 168.48 255.488 168.405L255.421 166.023C255.419 165.948 255.278 165.875 255.105 165.861L236.715 164.476L255.014 162.64C255.186 162.623 255.322 162.547 255.32 162.472L255.262 160.419C255.261 160.359 255.121 160.301 254.948 160.318L231.453 162.956C231.281 162.973 231.145 163.049 231.147 163.124L231.219 165.686C231.222 165.761 231.362 165.834 231.535 165.848L248.265 167.176L231.625 169.008C231.452 169.025 231.316 169.101 231.319 169.176L231.389 171.663Z" fill="white"/>
<path d="M210.827 163.981C210.827 172.55 226.016 179.497 244.754 179.497C263.491 179.497 278.681 172.55 278.681 163.981C278.681 155.412 263.491 148.465 244.754 148.465C226.016 148.465 210.827 155.412 210.827 163.981Z" stroke="white" stroke-width="2" stroke-linecap="round" stroke-linejoin="round"/>
<path d="M211.305 163.977C211.305 172.388 226.28 179.206 244.754 179.206C263.227 179.206 278.203 172.388 278.203 163.977C278.203 155.567 263.227 148.748 244.754 148.748C226.28 148.748 211.305 155.567 211.305 163.977Z" fill="#FECB4F"/>
<path d="M210.347 158.809C210.347 150.081 225.75 143.005 244.752 143.005C263.754 143.005 279.157 150.081 279.157 158.809L279.157 163.981L278.201 163.981L278.201 162.524C274.563 169.46 260.968 174.612 244.752 174.612C228.536 174.612 214.941 169.458 211.303 162.523L211.303 163.981L210.347 163.981L210.347 158.809Z" fill="white"/>
<path d="M215.606 158.378C215.606 165.757 228.657 171.739 244.755 171.739C260.853 171.739 273.904 165.757 273.904 158.378C273.904 150.999 260.853 145.017 244.755 145.017C228.657 145.017 215.606 150.999 215.606 158.378Z" fill="#FECB4F"/>
<path d="M231.389 162.469C231.391 162.544 231.531 162.617 231.705 162.631L255.336 164.848C255.51 164.861 255.647 164.816 255.644 164.74L255.591 162.837C255.588 162.762 255.448 162.688 255.275 162.675L236.607 161.232L255.182 159.379C255.354 159.362 255.49 159.286 255.488 159.211L255.421 156.828C255.419 156.753 255.278 156.68 255.105 156.666L236.715 155.281L255.014 153.445C255.186 153.428 255.322 153.352 255.32 153.277L255.262 151.224C255.261 151.164 255.121 151.106 254.948 151.123L231.453 153.761C231.281 153.778 231.145 153.854 231.147 153.929L231.219 156.491C231.222 156.566 231.362 156.64 231.535 156.653L248.265 157.981L231.625 159.813C231.452 159.83 231.316 159.906 231.319 159.981L231.389 162.469Z" fill="white"/>
<path d="M210.827 154.785C210.827 163.354 226.016 170.301 244.754 170.301C263.491 170.301 278.681 163.354 278.681 154.785C278.681 146.215 263.491 139.268 244.754 139.268C226.016 139.268 210.827 146.215 210.827 154.785Z" stroke="white" stroke-width="2" stroke-linecap="round" stroke-linejoin="round"/>
<path d="M211.305 154.783C211.305 163.194 226.28 170.012 244.754 170.012C263.227 170.012 278.203 163.194 278.203 154.783C278.203 146.373 263.227 139.555 244.754 139.555C226.28 139.555 211.305 146.373 211.305 154.783Z" fill="#FECB4F"/>
<path d="M210.347 149.614C210.347 140.886 225.75 133.81 244.752 133.81C263.754 133.81 279.157 140.886 279.157 149.614L279.157 154.786L278.201 154.786L278.201 153.329C274.563 160.265 260.968 165.417 244.752 165.417C228.536 165.417 214.941 160.263 211.303 153.328L211.303 154.786L210.347 154.786L210.347 149.614Z" fill="white"/>
<path d="M215.606 149.182C215.606 156.562 228.657 162.544 244.755 162.544C260.853 162.544 273.904 156.562 273.904 149.182C273.904 141.803 260.853 135.821 244.755 135.821C228.657 135.821 215.606 141.803 215.606 149.182Z" fill="#FECB4F"/>
<path d="M231.389 153.274C231.391 153.349 231.531 153.422 231.705 153.435L255.336 155.653C255.51 155.666 255.647 155.621 255.644 155.545L255.591 153.642C255.588 153.567 255.448 153.493 255.275 153.48L236.607 152.037L255.182 150.184C255.354 150.167 255.49 150.09 255.488 150.015L255.421 147.633C255.419 147.558 255.278 147.484 255.105 147.471L236.715 146.085L255.014 144.25C255.186 144.233 255.322 144.157 255.32 144.082L255.262 142.029C255.261 141.969 255.121 141.91 254.948 141.927L231.453 144.566C231.281 144.582 231.145 144.659 231.147 144.734L231.219 147.296C231.222 147.371 231.362 147.444 231.535 147.458L248.265 148.785L231.625 150.618C231.452 150.635 231.316 150.711 231.319 150.786L231.389 153.274Z" fill="white"/>
<path d="M210.827 145.59C210.827 154.16 226.016 161.107 244.754 161.107C263.491 161.107 278.681 154.16 278.681 145.59C278.681 137.021 263.491 130.073 244.754 130.073C226.016 130.073 210.827 137.02 210.827 145.59Z" stroke="white" stroke-width="2" stroke-linecap="round" stroke-linejoin="round"/>
<path d="M211.305 145.588C211.305 153.998 226.28 160.816 244.754 160.816C263.227 160.816 278.203 153.998 278.203 145.588C278.203 137.177 263.227 130.359 244.754 130.359C226.28 130.359 211.305 137.177 211.305 145.588Z" fill="#FECB4F"/>
<path d="M210.347 140.419C210.347 131.691 225.75 124.615 244.752 124.615C263.754 124.615 279.157 131.691 279.157 140.419L279.157 145.591L278.201 145.591L278.201 144.135C274.563 151.07 260.968 156.223 244.752 156.223C228.536 156.223 214.941 151.069 211.303 144.133L211.303 145.591L210.347 145.591L210.347 140.419Z" fill="white"/>
<path d="M215.606 139.988C215.606 147.367 228.657 153.349 244.755 153.349C260.853 153.349 273.904 147.367 273.904 139.988C273.904 132.608 260.853 126.626 244.755 126.626C228.657 126.626 215.606 132.608 215.606 139.988Z" fill="#FECB4F"/>
<path d="M231.389 144.079C231.391 144.154 231.531 144.228 231.705 144.241L255.336 146.458C255.51 146.472 255.647 146.426 255.644 146.35L255.591 144.447C255.588 144.372 255.448 144.299 255.275 144.286L236.607 142.843L255.182 140.989C255.354 140.972 255.49 140.896 255.488 140.821L255.421 138.438C255.419 138.363 255.278 138.29 255.105 138.277L236.715 136.891L255.014 135.055C255.186 135.039 255.322 134.962 255.32 134.887L255.262 132.834C255.261 132.774 255.121 132.716 254.948 132.733L231.453 135.371C231.281 135.388 231.145 135.464 231.147 135.539L231.219 138.102C231.222 138.177 231.362 138.25 231.535 138.263L248.265 139.591L231.625 141.424C231.452 141.44 231.316 141.517 231.319 141.592L231.389 144.079Z" fill="white"/>
<path d="M210.827 136.394C210.827 144.963 226.016 151.91 244.754 151.91C263.491 151.91 278.681 144.963 278.681 136.394C278.681 127.825 263.491 120.878 244.754 120.878C226.016 120.878 210.827 127.825 210.827 136.394Z" stroke="white" stroke-width="2" stroke-linecap="round" stroke-linejoin="round"/>
<path d="M211.305 136.393C211.305 144.803 226.28 151.622 244.754 151.622C263.227 151.622 278.203 144.803 278.203 136.393C278.203 127.982 263.227 121.164 244.754 121.164C226.28 121.164 211.305 127.982 211.305 136.393Z" fill="#FECB4F"/>
<path d="M210.347 131.225C210.347 122.497 225.75 115.421 244.752 115.421C263.754 115.421 279.157 122.497 279.157 131.225L279.157 136.397L278.201 136.397L278.201 134.94C274.563 141.876 260.968 147.028 244.752 147.028C228.536 147.028 214.941 141.874 211.303 134.939L211.303 136.397L210.347 136.397L210.347 131.225Z" fill="white"/>
<path d="M215.606 130.793C215.606 138.172 228.657 144.154 244.755 144.154C260.853 144.154 273.904 138.172 273.904 130.793C273.904 123.414 260.853 117.432 244.755 117.432C228.657 117.432 215.606 123.414 215.606 130.793Z" fill="#FECB4F"/>
<path d="M231.389 134.885C231.391 134.96 231.531 135.033 231.705 135.047L255.336 137.264C255.51 137.277 255.647 137.232 255.644 137.156L255.591 135.253C255.588 135.178 255.448 135.105 255.275 135.091L236.607 133.648L255.182 131.795C255.354 131.778 255.49 131.702 255.488 131.627L255.421 129.244C255.419 129.169 255.278 129.096 255.105 129.082L236.715 127.696L255.014 125.861C255.186 125.844 255.322 125.767 255.32 125.692L255.262 123.64C255.261 123.58 255.121 123.521 254.948 123.538L231.453 126.176C231.281 126.193 231.145 126.27 231.147 126.345L231.219 128.907C231.222 128.982 231.362 129.055 231.535 129.069L248.265 130.397L231.625 132.229C231.452 132.246 231.316 132.322 231.319 132.397L231.389 134.885Z" fill="white"/>
<path d="M210.827 127.199C210.827 135.769 226.016 142.716 244.754 142.716C263.491 142.716 278.681 135.769 278.681 127.199C278.681 118.63 263.491 111.683 244.754 111.683C226.016 111.683 210.827 118.63 210.827 127.199Z" stroke="white" stroke-width="2" stroke-linecap="round" stroke-linejoin="round"/>
<path d="M211.305 127.197C211.305 135.608 226.28 142.426 244.754 142.426C263.227 142.426 278.203 135.608 278.203 127.197C278.203 118.786 263.227 111.968 244.754 111.968C226.28 111.968 211.305 118.786 211.305 127.197Z" fill="#FECB4F"/>
<path d="M210.347 122.03C210.347 113.302 225.75 106.226 244.752 106.226C263.754 106.226 279.157 113.302 279.157 122.03L279.157 127.202L278.201 127.202L278.201 125.745C274.563 132.68 260.968 137.833 244.752 137.833C228.536 137.833 214.941 132.679 211.303 125.744L211.303 127.201L210.347 127.201L210.347 122.03Z" fill="white"/>
<path d="M215.606 121.598C215.606 128.977 228.657 134.959 244.755 134.959C260.853 134.959 273.904 128.977 273.904 121.598C273.904 114.219 260.853 108.238 244.755 108.238C228.657 108.238 215.606 114.219 215.606 121.598Z" fill="#FECB4F"/>
<path d="M231.389 125.69C231.391 125.765 231.531 125.838 231.705 125.852L255.336 128.069C255.51 128.082 255.647 128.037 255.644 127.961L255.591 126.058C255.588 125.983 255.448 125.909 255.275 125.896L236.607 124.453L255.182 122.6C255.354 122.583 255.49 122.506 255.488 122.431L255.421 120.049C255.419 119.974 255.278 119.9 255.105 119.887L236.715 118.501L255.014 116.666C255.186 116.649 255.322 116.572 255.32 116.497L255.262 114.445C255.261 114.385 255.121 114.326 254.948 114.343L231.453 116.981C231.281 116.998 231.145 117.075 231.147 117.15L231.219 119.712C231.222 119.787 231.362 119.86 231.535 119.874L248.265 121.202L231.625 123.034C231.452 123.051 231.316 123.127 231.319 123.202L231.389 125.69Z" fill="white"/>
<path d="M210.827 118.004C210.827 126.573 226.016 133.52 244.754 133.52C263.491 133.52 278.681 126.573 278.681 118.004C278.681 109.434 263.491 102.488 244.754 102.488C226.016 102.488 210.827 109.434 210.827 118.004Z" stroke="white" stroke-width="2" stroke-linecap="round" stroke-linejoin="round"/>
<path d="M211.305 118.003C211.305 126.414 226.28 133.232 244.754 133.232C263.227 133.232 278.203 126.414 278.203 118.003C278.203 109.592 263.227 102.774 244.754 102.774C226.28 102.774 211.305 109.592 211.305 118.003Z" fill="#FECB4F"/>
<path d="M210.347 112.835C210.347 104.107 225.75 97.0315 244.752 97.0315C263.754 97.0315 279.157 104.107 279.157 112.835L279.157 118.007L278.201 118.007L278.201 116.55C274.563 123.486 260.968 128.638 244.752 128.638C228.536 128.638 214.941 123.484 211.303 116.549L211.303 118.007L210.347 118.007L210.347 112.835Z" fill="white"/>
<path d="M215.606 112.404C215.606 119.783 228.657 125.765 244.755 125.765C260.853 125.765 273.904 119.783 273.904 112.404C273.904 105.025 260.853 99.043 244.755 99.043C228.657 99.043 215.606 105.025 215.606 112.404Z" fill="#FECB4F"/>
<path d="M231.389 116.495C231.391 116.57 231.531 116.643 231.705 116.657L255.336 118.874C255.51 118.887 255.647 118.842 255.644 118.766L255.591 116.863C255.588 116.788 255.448 116.715 255.275 116.701L236.607 115.258L255.182 113.405C255.354 113.388 255.49 113.312 255.488 113.237L255.421 110.854C255.419 110.779 255.278 110.706 255.105 110.692L236.715 109.307L255.014 107.471C255.186 107.454 255.322 107.378 255.32 107.303L255.262 105.25C255.261 105.19 255.121 105.132 254.948 105.149L231.453 107.787C231.281 107.804 231.145 107.88 231.147 107.955L231.219 110.517C231.222 110.592 231.362 110.665 231.535 110.679L248.265 112.007L231.625 113.839C231.452 113.856 231.316 113.932 231.319 114.007L231.389 116.495Z" fill="white"/>
<path d="M210.827 108.81C210.827 117.38 226.016 124.327 244.754 124.327C263.491 124.327 278.681 117.38 278.681 108.81C278.681 100.241 263.491 93.2939 244.754 93.2939C226.016 93.2939 210.827 100.241 210.827 108.81Z" stroke="white" stroke-width="2" stroke-linecap="round" stroke-linejoin="round"/>
<path d="M211.305 108.808C211.305 117.218 226.28 124.036 244.754 124.036C263.227 124.036 278.203 117.218 278.203 108.808C278.203 100.397 263.227 93.5791 244.754 93.5791C226.28 93.5791 211.305 100.397 211.305 108.808Z" fill="#FECB4F"/>
<path d="M210.347 103.64C210.347 94.9121 225.75 87.8364 244.752 87.8364C263.754 87.8364 279.157 94.9121 279.157 103.64L279.157 108.812L278.201 108.812L278.201 107.355C274.563 114.291 260.968 119.443 244.752 119.443C228.536 119.443 214.941 114.29 211.303 107.354L211.303 108.812L210.347 108.812L210.347 103.64Z" fill="white"/>
<path d="M215.606 103.208C215.606 110.588 228.657 116.57 244.755 116.57C260.853 116.57 273.904 110.588 273.904 103.208C273.904 95.8292 260.853 89.8472 244.755 89.8472C228.657 89.8472 215.606 95.8292 215.606 103.208Z" fill="#FECB4F"/>
<path d="M231.389 107.3C231.391 107.375 231.531 107.448 231.705 107.462L255.336 109.679C255.51 109.692 255.647 109.647 255.644 109.571L255.591 107.668C255.588 107.593 255.448 107.519 255.275 107.506L236.607 106.063L255.182 104.21C255.354 104.193 255.49 104.117 255.488 104.042L255.421 101.659C255.419 101.584 255.278 101.511 255.105 101.497L236.715 100.112L255.014 98.276C255.186 98.2593 255.322 98.1829 255.32 98.1079L255.262 96.0552C255.261 95.9951 255.121 95.9368 254.948 95.9535L231.453 98.5919C231.281 98.6086 231.145 98.685 231.147 98.76L231.219 101.322C231.222 101.397 231.362 101.47 231.535 101.484L248.265 102.812L231.625 104.644C231.452 104.661 231.316 104.737 231.319 104.812L231.389 107.3Z" fill="white"/>
<path d="M210.827 99.6145C210.827 108.184 226.016 115.131 244.754 115.131C263.491 115.131 278.681 108.184 278.681 99.6145C278.681 91.0451 263.491 84.0981 244.754 84.0981C226.016 84.0981 210.827 91.045 210.827 99.6145Z" stroke="white" stroke-width="2" stroke-linecap="round" stroke-linejoin="round"/>
<path d="M211.305 99.6158C211.305 108.027 226.28 114.845 244.754 114.845C263.227 114.845 278.203 108.027 278.203 99.6158C278.203 91.2052 263.227 84.387 244.754 84.387C226.28 84.387 211.305 91.2052 211.305 99.6158Z" fill="#FECB4F"/>
<path d="M210.347 94.4451C210.347 85.7171 225.75 78.6414 244.752 78.6414C263.754 78.6414 279.157 85.7171 279.157 94.4451L279.157 99.6172L278.201 99.6172L278.201 98.1607C274.563 105.096 260.968 110.249 244.752 110.249C228.536 110.249 214.941 105.095 211.303 98.1594L211.303 99.6172L210.347 99.6172L210.347 94.4451Z" fill="white"/>
<path d="M215.606 94.0139C215.606 101.393 228.657 107.375 244.755 107.375C260.853 107.375 273.904 101.393 273.904 94.0139C273.904 86.6347 260.853 80.6526 244.755 80.6526C228.657 80.6526 215.606 86.6347 215.606 94.0139Z" fill="#FECB4F"/>
<path d="M231.389 98.1054C231.391 98.1803 231.531 98.2536 231.705 98.2671L255.336 100.484C255.51 100.497 255.647 100.452 255.644 100.376L255.591 98.4733C255.588 98.3983 255.448 98.325 255.275 98.3116L236.607 96.8688L255.182 95.0154C255.354 94.9987 255.49 94.9223 255.488 94.8473L255.421 92.4649C255.419 92.3899 255.278 92.3166 255.105 92.3032L236.715 90.9176L255.014 89.082C255.186 89.0653 255.322 88.9889 255.32 88.9139L255.262 86.8613C255.261 86.8013 255.121 86.7429 254.948 86.7597L231.453 89.3979C231.281 89.4146 231.145 89.491 231.147 89.566L231.219 92.128C231.222 92.203 231.362 92.2763 231.535 92.2897L248.265 93.6175L231.625 95.4499C231.452 95.4667 231.316 95.5431 231.319 95.618L231.389 98.1054Z" fill="white"/>
<path d="M210.827 90.4208C210.827 98.9903 226.016 105.937 244.754 105.937C263.491 105.937 278.681 98.9903 278.681 90.4208C278.681 81.8513 263.491 74.9043 244.754 74.9043C226.016 74.9043 210.827 81.8513 210.827 90.4208Z" stroke="white" stroke-width="2" stroke-linecap="round" stroke-linejoin="round"/>
<path d="M211.305 90.4194C211.305 98.8302 226.28 105.648 244.754 105.648C263.227 105.648 278.203 98.8302 278.203 90.4194C278.203 82.0087 263.227 75.1904 244.754 75.1904C226.28 75.1904 211.305 82.0087 211.305 90.4194Z" fill="#FECB4F"/>
<path d="M210.347 85.2507C210.347 76.5229 225.75 69.4473 244.752 69.4473C263.754 69.4473 279.157 76.5229 279.157 85.2507L279.157 90.4228L278.201 90.4228L278.201 88.9663C274.563 95.9017 260.968 101.054 244.752 101.054C228.536 101.054 214.941 95.9005 211.303 88.965L211.303 90.4228L210.347 90.4228L210.347 85.2507Z" fill="white"/>
<path d="M215.606 84.8191C215.606 92.1981 228.657 98.1799 244.755 98.1799C260.853 98.1799 273.904 92.1981 273.904 84.8191C273.904 77.4401 260.853 71.4583 244.755 71.4583C228.657 71.4582 215.606 77.4401 215.606 84.8191Z" fill="#FECB4F"/>
<path d="M231.389 88.9106C231.391 88.9856 231.531 89.0589 231.705 89.0724L255.336 91.2897C255.51 91.3028 255.647 91.2578 255.644 91.1816L255.591 89.2786C255.588 89.2036 255.448 89.1303 255.275 89.1169L236.607 87.674L255.182 85.8206C255.354 85.8039 255.49 85.7275 255.488 85.6525L255.421 83.2699C255.419 83.1949 255.278 83.1216 255.105 83.1081L236.715 81.7225L255.014 79.8869C255.186 79.8701 255.322 79.7937 255.32 79.7187L255.262 77.666C255.261 77.606 255.121 77.5476 254.948 77.5643L231.453 80.2027C231.281 80.2194 231.145 80.2958 231.147 80.3708L231.219 82.933C231.222 83.008 231.362 83.0813 231.535 83.0947L248.265 84.4226L231.625 86.2551C231.452 86.2718 231.316 86.3482 231.319 86.4232L231.389 88.9106Z" fill="white"/>
<path d="M210.827 81.2246C210.827 89.794 226.016 96.741 244.754 96.741C263.491 96.741 278.681 89.7941 278.681 81.2246C278.681 72.6552 263.491 65.7083 244.754 65.7082C226.016 65.7082 210.827 72.6552 210.827 81.2246Z" stroke="white" stroke-width="2" stroke-linecap="round" stroke-linejoin="round"/>
<path d="M211.305 81.2231C211.305 89.6339 226.28 96.4521 244.754 96.4521C263.227 96.4521 278.203 89.6339 278.203 81.2231C278.203 72.8124 263.227 65.9941 244.754 65.9941C226.28 65.9941 211.305 72.8124 211.305 81.2231Z" fill="#FECB4F"/>
<path d="M210.347 76.0552C210.347 67.3272 225.75 60.2515 244.752 60.2515C263.754 60.2515 279.157 67.3272 279.157 76.0552L279.157 81.2273L278.201 81.2273L278.201 79.7708C274.563 86.7063 260.968 91.8589 244.752 91.8589C228.536 91.8589 214.941 86.7051 211.303 79.7695L211.303 81.2273L210.347 81.2273L210.347 76.0552Z" fill="white"/>
<path d="M215.606 75.6248C215.606 83.0039 228.657 88.9858 244.755 88.9858C260.853 88.9858 273.904 83.0039 273.904 75.6248C273.904 68.2456 260.853 62.2637 244.755 62.2637C228.657 62.2637 215.606 68.2456 215.606 75.6248Z" fill="#FECB4F"/>
<path d="M231.389 79.7157C231.391 79.7907 231.531 79.864 231.705 79.8775L255.336 82.0948C255.51 82.108 255.647 82.0629 255.644 81.9868L255.591 80.0837C255.588 80.0087 255.448 79.9354 255.275 79.9219L236.607 78.479L255.182 76.6255C255.354 76.6088 255.49 76.5324 255.488 76.4574L255.421 74.0748C255.419 73.9998 255.278 73.9265 255.105 73.913L236.715 72.5274L255.014 70.6916C255.186 70.6749 255.322 70.5985 255.32 70.5235L255.262 68.4707C255.261 68.4107 255.121 68.3523 254.948 68.369L231.453 71.0075C231.281 71.0242 231.145 71.1006 231.147 71.1756L231.219 73.7378C231.222 73.8128 231.362 73.8861 231.535 73.8996L248.265 75.2275L231.625 77.0601C231.452 77.0768 231.316 77.1532 231.319 77.2282L231.389 79.7157Z" fill="white"/>
<path d="M210.827 72.0325C210.827 80.6019 226.016 87.5488 244.754 87.5488C263.491 87.5488 278.681 80.6019 278.681 72.0325C278.681 63.463 263.491 56.5161 244.754 56.5161C226.016 56.5161 210.827 63.463 210.827 72.0325Z" stroke="white" stroke-width="2" stroke-linecap="round" stroke-linejoin="round"/>
<path d="M211.305 72.0278C211.305 80.4383 226.28 87.2563 244.754 87.2563C263.227 87.2563 278.203 80.4383 278.203 72.0278C278.203 63.6174 263.227 56.7993 244.754 56.7993C226.28 56.7993 211.305 63.6173 211.305 72.0278Z" fill="#FECB4F"/>
<path d="M210.347 66.8606C210.347 58.1328 225.75 51.0571 244.752 51.0571C263.754 51.0571 279.157 58.1328 279.157 66.8606L279.157 72.0326L278.201 72.0326L278.201 70.5762C274.563 77.5116 260.968 82.6641 244.752 82.6641C228.536 82.6641 214.941 77.5103 211.303 70.5749L211.303 72.0326L210.347 72.0326L210.347 66.8606Z" fill="white"/>
<path d="M215.606 66.43C215.606 73.8092 228.657 79.7913 244.755 79.7913C260.853 79.7913 273.904 73.8092 273.904 66.4301C273.904 59.0509 260.853 53.0688 244.755 53.0688C228.657 53.0688 215.606 59.0509 215.606 66.43Z" fill="#FECB4F"/>
<path d="M231.389 70.5207C231.391 70.5957 231.531 70.669 231.705 70.6825L255.336 72.8998C255.51 72.9129 255.647 72.8679 255.644 72.7917L255.591 70.8887C255.588 70.8137 255.448 70.7404 255.275 70.727L236.607 69.2841L255.182 67.4307C255.354 67.414 255.49 67.3376 255.488 67.2626L255.421 64.88C255.419 64.805 255.278 64.7317 255.105 64.7183L236.715 63.3326L255.014 61.497C255.186 61.4803 255.322 61.4038 255.32 61.3289L255.262 59.2761C255.261 59.2161 255.121 59.1577 254.948 59.1744L231.453 61.8128C231.281 61.8295 231.145 61.9059 231.147 61.9809L231.219 64.5431C231.222 64.6181 231.362 64.6914 231.535 64.7048L248.265 66.0327L231.625 67.8652C231.452 67.8819 231.316 67.9583 231.319 68.0333L231.389 70.5207Z" fill="white"/>
<path d="M210.827 62.8358C210.827 71.4048 226.016 78.3514 244.754 78.3514C263.491 78.3514 278.681 71.4049 278.681 62.8358C278.681 54.2668 263.491 47.3202 244.754 47.3202C226.016 47.3202 210.827 54.2668 210.827 62.8358Z" stroke="white" stroke-width="2" stroke-linecap="round" stroke-linejoin="round"/>
<path d="M211.305 62.8343C211.305 71.2449 226.28 78.063 244.754 78.063C263.227 78.063 278.203 71.2449 278.203 62.8343C278.203 54.4238 263.227 47.6057 244.754 47.6057C226.28 47.6057 211.305 54.4238 211.305 62.8343Z" fill="#FECB4F"/>
<path d="M210.347 57.6664C210.347 48.9384 225.75 41.8625 244.752 41.8625C263.754 41.8625 279.157 48.9384 279.157 57.6664L279.157 62.8385L278.201 62.8385L278.201 61.382C274.563 68.3176 260.968 73.4702 244.752 73.4702C228.536 73.4702 214.941 68.3164 211.303 61.3808L211.303 62.8385L210.347 62.8385L210.347 57.6664Z" fill="white"/>
<path d="M215.606 57.2355C215.606 64.6147 228.657 70.5967 244.755 70.5967C260.853 70.5967 273.904 64.6147 273.904 57.2355C273.904 49.8563 260.853 43.8743 244.755 43.8743C228.657 43.8743 215.606 49.8563 215.606 57.2355Z" fill="#FECB4F"/>
<path d="M231.389 61.3264C231.391 61.4014 231.531 61.4747 231.705 61.4882L255.336 63.7054C255.51 63.7186 255.647 63.6735 255.644 63.5974L255.591 61.6944C255.588 61.6194 255.448 61.5461 255.275 61.5326L236.607 60.0898L255.182 58.2363C255.354 58.2196 255.49 58.1432 255.488 58.0682L255.421 55.6857C255.419 55.6107 255.278 55.5374 255.105 55.5239L236.715 54.1383L255.014 52.3026C255.186 52.2859 255.322 52.2095 255.32 52.1345L255.262 50.0818C255.261 50.0218 255.121 49.9634 254.948 49.9801L231.453 52.6185C231.281 52.6352 231.145 52.7116 231.147 52.7866L231.219 55.3487C231.222 55.4237 231.362 55.497 231.535 55.5105L248.265 56.8383L231.625 58.6709C231.452 58.6876 231.316 58.764 231.319 58.839L231.389 61.3264Z" fill="white"/>
<path d="M210.827 53.6407C210.827 62.2098 226.016 69.1564 244.754 69.1564C263.491 69.1564 278.681 62.2098 278.681 53.6407C278.681 45.0716 263.491 38.125 244.754 38.125C226.016 38.125 210.827 45.0716 210.827 53.6407Z" stroke="white" stroke-width="2" stroke-linecap="round" stroke-linejoin="round"/>
<path d="M211.305 53.6411C211.305 62.052 226.28 68.8704 244.754 68.8704C263.227 68.8704 278.203 62.052 278.203 53.6411C278.203 45.2302 263.227 38.4119 244.754 38.4119C226.28 38.4119 211.305 45.2302 211.305 53.6411Z" fill="#FECB4F"/>
<path d="M210.347 48.4714C210.347 39.7435 225.75 32.6677 244.752 32.6677C263.754 32.6677 279.157 39.7435 279.157 48.4714L279.157 53.6436L278.201 53.6436L278.201 52.1871C274.563 59.1226 260.968 64.2751 244.752 64.2751C228.536 64.2751 214.941 59.1213 211.303 52.1858L211.303 53.6436L210.347 53.6436L210.347 48.4714Z" fill="white"/>
<path d="M215.606 48.0405C215.606 55.4193 228.657 61.4011 244.755 61.4011C260.853 61.4011 273.904 55.4194 273.904 48.0405C273.904 40.6616 260.853 34.6798 244.755 34.6798C228.657 34.6798 215.606 40.6616 215.606 48.0405Z" fill="#FECB4F"/>
<path d="M231.389 52.1311C231.391 52.2061 231.531 52.2794 231.705 52.2929L255.336 54.5101C255.51 54.5233 255.647 54.4782 255.644 54.4021L255.591 52.4991C255.588 52.4241 255.448 52.3508 255.275 52.3374L236.607 50.8945L255.182 49.0411C255.354 49.0244 255.49 48.948 255.488 48.873L255.421 46.4905C255.419 46.4155 255.278 46.3422 255.105 46.3288L236.715 44.9432L255.014 43.1075C255.186 43.0908 255.322 43.0144 255.32 42.9394L255.262 40.8867C255.261 40.8267 255.121 40.7683 254.948 40.785L231.453 43.4234C231.281 43.4401 231.145 43.5165 231.147 43.5915L231.219 46.1536C231.222 46.2286 231.362 46.3019 231.535 46.3153L248.265 47.6432L231.625 49.4756C231.452 49.4923 231.316 49.5688 231.319 49.6437L231.389 52.1311Z" fill="white"/>
<path d="M210.827 44.4466C210.827 53.0159 226.016 59.9626 244.754 59.9626C263.491 59.9626 278.681 53.0159 278.681 44.4466C278.681 35.8773 263.491 28.9305 244.754 28.9305C226.016 28.9305 210.827 35.8773 210.827 44.4466Z" stroke="white" stroke-width="2" stroke-linecap="round" stroke-linejoin="round"/>
<path d="M211.305 44.4466C211.305 52.8574 226.28 59.6758 244.754 59.6758C263.227 59.6758 278.203 52.8574 278.203 44.4466C278.203 36.0357 263.227 29.2174 244.754 29.2174C226.28 29.2174 211.305 36.0357 211.305 44.4466Z" fill="#FECB4F"/>
<path d="M210.347 39.2767C210.347 30.5487 225.75 23.473 244.752 23.473C263.754 23.473 279.157 30.5487 279.157 39.2767L279.157 44.4488L278.201 44.4488L278.201 42.9923C274.563 49.9278 260.968 55.0803 244.752 55.0803C228.536 55.0803 214.941 49.9265 211.303 42.991L211.303 44.4488L210.347 44.4488L210.347 39.2767Z" fill="white"/>
<path d="M215.606 38.8459C215.606 46.2249 228.657 52.2068 244.755 52.2068C260.853 52.2068 273.904 46.2249 273.904 38.8459C273.904 31.4669 260.853 25.485 244.755 25.485C228.657 25.485 215.606 31.4669 215.606 38.8459Z" fill="#FECB4F"/>
<path d="M231.389 42.9366C231.391 43.0116 231.531 43.0849 231.705 43.0984L255.336 45.3157C255.51 45.3288 255.647 45.2838 255.644 45.2076L255.591 43.3046C255.588 43.2296 255.448 43.1563 255.275 43.1429L236.607 41.7L255.182 39.8466C255.354 39.8299 255.49 39.7535 255.488 39.6785L255.421 37.2959C255.419 37.2209 255.278 37.1476 255.105 37.1341L236.715 35.7485L255.014 33.9129C255.186 33.8961 255.322 33.8197 255.32 33.7447L255.262 31.692C255.261 31.632 255.121 31.5736 254.948 31.5903L231.453 34.2287C231.281 34.2454 231.145 34.3218 231.147 34.3968L231.219 36.959C231.222 37.034 231.362 37.1073 231.535 37.1207L248.265 38.4486L231.625 40.2811C231.452 40.2978 231.316 40.3742 231.319 40.4492L231.389 42.9366Z" fill="white"/>
<rect x="28" y="141.611" width="192.669" height="89.4533" fill="white"/>
<rect x="28.5" y="142.111" width="191.669" height="88.4533" stroke="black" stroke-opacity="0.2"/>
<rect x="34.8813" y="148.492" width="178.907" height="75.6913" fill="#F2D590"/>
<g clip-path="url(#clip0)">
<path d="M127.237 210.087C136.856 210.087 144.655 199.454 144.655 186.338C144.655 173.222 136.856 162.589 127.237 162.589C117.617 162.589 109.819 173.222 109.819 186.338C109.819 199.454 117.617 210.087 127.237 210.087Z" stroke="white" stroke-width="2" stroke-linecap="round" stroke-linejoin="round"/>
<path d="M127.237 209.753C136.678 209.753 144.332 199.27 144.332 186.338C144.332 173.407 136.678 162.924 127.237 162.924C117.796 162.924 110.142 173.407 110.142 186.338C110.142 199.27 117.796 209.753 127.237 209.753Z" fill="#FECB4F"/>
<path d="M121.431 210.423C111.634 210.423 103.691 199.641 103.691 186.34C103.691 173.038 111.634 162.256 121.431 162.256H127.237V162.925H125.602C133.388 165.472 139.171 174.989 139.171 186.34C139.171 197.691 133.386 207.208 125.601 209.754H127.237V210.423H121.431Z" fill="white"/>
<path d="M120.947 206.742C129.231 206.742 135.946 197.607 135.946 186.338C135.946 175.069 129.231 165.934 120.947 165.934C112.664 165.934 105.949 175.069 105.949 186.338C105.949 197.607 112.664 206.742 120.947 206.742Z" fill="#FECB4F"/>
<path d="M125.54 195.694C125.624 195.692 125.706 195.594 125.721 195.473L128.21 178.931C128.225 178.809 128.174 178.714 128.089 178.715L125.953 178.753C125.869 178.754 125.786 178.852 125.771 178.974L124.152 192.041L122.071 179.039C122.052 178.918 121.966 178.823 121.882 178.824L119.208 178.872C119.123 178.873 119.041 178.971 119.026 179.093L117.471 191.966L115.41 179.156C115.391 179.036 115.305 178.94 115.221 178.942L112.917 178.982C112.85 178.984 112.784 179.082 112.803 179.202L115.765 195.649C115.783 195.769 115.869 195.865 115.953 195.863L118.829 195.812C118.914 195.811 118.996 195.713 119.011 195.591L120.502 183.881L122.559 195.529C122.577 195.649 122.663 195.745 122.747 195.743L125.54 195.694Z" fill="white"/>
</g>
<circle cx="210.347" cy="220.743" r="6.88103" fill="white"/>
<circle cx="38.3215" cy="220.743" r="6.88103" fill="white"/>
<circle cx="210.347" cy="151.933" r="6.88103" fill="white"/>
<circle cx="38.3215" cy="151.933" r="6.88103" fill="white"/>
<rect x="48.6433" y="169.135" width="192.669" height="89.4533" fill="white"/>
<rect x="49.1433" y="169.635" width="191.669" height="88.4533" stroke="black" stroke-opacity="0.2"/>
<rect x="55.5239" y="176.016" width="178.907" height="75.6913" fill="#F2D590"/>
<g clip-path="url(#clip1)">
<path d="M147.88 237.611C157.5 237.611 165.298 226.978 165.298 213.862C165.298 200.746 157.5 190.113 147.88 190.113C138.261 190.113 130.463 200.746 130.463 213.862C130.463 226.978 138.261 237.611 147.88 237.611Z" stroke="white" stroke-width="2" stroke-linecap="round" stroke-linejoin="round"/>
<path d="M147.88 237.276C157.322 237.276 164.975 226.793 164.975 213.862C164.975 200.931 157.322 190.448 147.88 190.448C138.439 190.448 130.785 200.931 130.785 213.862C130.785 226.793 138.439 237.276 147.88 237.276Z" fill="#FECB4F"/>
<path d="M142.075 237.947C132.277 237.947 124.334 227.165 124.334 213.864C124.334 200.563 132.277 189.781 142.075 189.781H147.88V190.45H146.246C154.031 192.996 159.815 202.513 159.815 213.864C159.815 225.215 154.029 234.732 146.244 237.278H147.88V237.947H142.075Z" fill="white"/>
<path d="M141.591 234.266C149.874 234.266 156.589 225.131 156.589 213.862C156.589 202.593 149.874 193.458 141.591 193.458C133.307 193.458 126.592 202.593 126.592 213.862C126.592 225.131 133.307 234.266 141.591 234.266Z" fill="#FECB4F"/>
<path d="M146.183 223.218C146.267 223.216 146.349 223.118 146.365 222.997L148.854 206.455C148.868 206.333 148.818 206.237 148.732 206.239L146.596 206.277C146.512 206.278 146.43 206.376 146.414 206.498L144.795 219.565L142.714 206.563C142.695 206.442 142.61 206.347 142.526 206.348L139.851 206.396C139.767 206.397 139.684 206.495 139.669 206.617L138.114 219.489L136.053 206.68C136.035 206.56 135.949 206.464 135.865 206.466L133.56 206.506C133.493 206.508 133.427 206.605 133.446 206.726L136.408 223.173C136.427 223.293 136.512 223.389 136.597 223.387L139.473 223.336C139.557 223.335 139.639 223.237 139.654 223.115L141.145 211.405L143.202 223.052C143.221 223.173 143.307 223.268 143.391 223.267L146.183 223.218Z" fill="white"/>
</g>
<circle cx="230.991" cy="248.267" r="6.88103" fill="white"/>
<circle cx="58.9648" cy="248.267" r="6.88103" fill="white"/>
<circle cx="230.991" cy="179.457" r="6.88103" fill="white"/>
<circle cx="58.9648" cy="179.457" r="6.88103" fill="white"/>
<defs>
<filter id="filter0_d" x="0" y="192" width="309" height="103" filterUnits="userSpaceOnUse" color-interpolation-filters="sRGB">
<feFlood flood-opacity="0" result="BackgroundImageFix"/>
<feColorMatrix in="SourceAlpha" type="matrix" values="0 0 0 0 0 0 0 0 0 0 0 0 0 0 0 0 0 0 127 0"/>
<feOffset dy="40"/>
<feGaussianBlur stdDeviation="15"/>
<feColorMatrix type="matrix" values="0 0 0 0 0.262745 0 0 0 0 0.192157 0 0 0 0 0.0352941 0 0 0 0.25 0"/>
<feBlend mode="normal" in2="BackgroundImageFix" result="effect1_dropShadow"/>
<feBlend mode="normal" in="SourceGraphic" in2="effect1_dropShadow" result="shape"/>
</filter>
<clipPath id="clip0">
<rect x="103.691" y="162.254" width="41.2862" height="48.1672" fill="white"/>
</clipPath>
<clipPath id="clip1">
<rect x="124.334" y="189.778" width="41.2862" height="48.1672" fill="white"/>
</clipPath>
</defs>
</svg>
