<svg width="248" height="262" viewBox="0 0 248 262" fill="none" xmlns="http://www.w3.org/2000/svg">
<g clip-path="url(#clip0)">
<path d="M177.275 88.0362L177.838 83.635C177.88 83.302 178.152 82.976 178.668 82.6969L178.178 87.0154C177.617 87.3205 177.321 87.6744 177.275 88.0362Z" fill="#856A29"/>
<path d="M178.178 87.0177L178.668 82.6992C178.684 82.6902 178.702 82.6812 178.719 82.6722L178.234 86.9888C178.215 86.9977 178.196 87.0077 178.178 87.0177Z" fill="#8A6E2B"/>
<path d="M220.321 85.4595L220.232 81.1639C220.234 81.1649 220.237 81.1649 220.239 81.1659L220.327 85.4615C220.325 85.4605 220.323 85.4605 220.321 85.4595Z" fill="#FFCB4F"/>
<path d="M220.327 85.4618L220.239 81.1662C220.315 81.1901 220.389 81.215 220.461 81.24L220.569 85.5415C220.491 85.5146 220.411 85.4877 220.327 85.4618Z" fill="#FAC74D"/>
<path d="M220.568 85.5422L220.46 81.2406C220.531 81.2655 220.6 81.2914 220.667 81.3174L220.793 85.6259C220.72 85.597 220.645 85.5691 220.568 85.5422Z" fill="#F5C34C"/>
<path d="M220.793 85.625L220.667 81.3164C220.732 81.3423 220.795 81.3682 220.856 81.3942L220.999 85.7097C220.933 85.6818 220.864 85.6529 220.793 85.625Z" fill="#F0BF4A"/>
<path d="M220.999 85.7107L220.856 81.3952C220.913 81.4201 220.969 81.446 221.022 81.471L221.181 85.7935C221.121 85.7656 221.061 85.7377 220.999 85.7107Z" fill="#EBBB49"/>
<path d="M221.179 85.7934L221.021 81.4709C221.072 81.4948 221.12 81.5197 221.166 81.5447L221.337 85.8731C221.286 85.8462 221.234 85.8193 221.179 85.7934Z" fill="#E6B747"/>
<path d="M221.338 85.8732L221.167 81.5447C221.212 81.5686 221.257 81.5935 221.299 81.6175L221.481 85.9529C221.434 85.926 221.387 85.8991 221.338 85.8732Z" fill="#E0B346"/>
<path d="M221.481 85.9529L221.299 81.6174C221.339 81.6404 221.377 81.6643 221.414 81.6872L221.606 86.0287C221.566 86.0037 221.524 85.9778 221.481 85.9529Z" fill="#DBAF44"/>
<path d="M221.606 86.0288L221.414 81.6873C221.451 81.7102 221.486 81.7342 221.52 81.7581L221.721 86.1055C221.684 86.0806 221.646 86.0547 221.606 86.0288Z" fill="#D6AB42"/>
<path d="M221.721 86.1054L221.52 81.758C221.552 81.7809 221.584 81.8039 221.615 81.8278L221.825 86.1812C221.792 86.1563 221.757 86.1313 221.721 86.1054Z" fill="#D1A641"/>
<path d="M221.825 86.1823L221.615 81.8289C221.645 81.8518 221.675 81.8757 221.703 81.8986L221.92 86.258C221.89 86.2321 221.858 86.2072 221.825 86.1823Z" fill="#CCA23F"/>
<path d="M221.919 86.258L221.701 81.8986C221.729 81.9215 221.755 81.9455 221.781 81.9694L222.004 86.3358C221.978 86.3089 221.949 86.2839 221.919 86.258Z" fill="#C79E3E"/>
<path d="M222.004 86.3348L221.781 81.9684C221.805 81.9923 221.83 82.0162 221.852 82.0402L222.084 86.4125C222.058 86.3866 222.032 86.3607 222.004 86.3348Z" fill="#C29A3C"/>
<path d="M222.083 86.4125L221.852 82.0402C221.874 82.0641 221.896 82.088 221.916 82.1129L222.153 86.4913C222.131 86.4654 222.108 86.4384 222.083 86.4125Z" fill="#BD963A"/>
<path d="M222.154 86.4913L221.917 82.1129C221.938 82.1378 221.958 82.1628 221.976 82.1877L222.217 86.573C222.197 86.5451 222.176 86.5182 222.154 86.4913Z" fill="#B89239"/>
<path d="M222.216 86.572L221.975 82.1867C221.993 82.2116 222.01 82.2375 222.026 82.2625L222.272 86.6548C222.255 86.6269 222.237 86.5999 222.216 86.572Z" fill="#B38E37"/>
<path d="M222.272 86.6547L222.026 82.2624C222.043 82.2883 222.057 82.3152 222.07 82.3411L222.321 86.7414C222.306 86.7125 222.29 86.6836 222.272 86.6547Z" fill="#AD8A36"/>
<path d="M222.321 86.7414L222.071 82.3422C222.085 82.3691 222.097 82.396 222.108 82.4229L222.361 86.8292C222.349 86.7993 222.335 86.7703 222.321 86.7414Z" fill="#A88634"/>
<path d="M222.36 86.8292L222.107 82.423C222.119 82.4519 222.129 82.4808 222.137 82.5097L222.393 86.9229C222.384 86.892 222.372 86.8601 222.36 86.8292Z" fill="#A38233"/>
<path d="M222.392 86.9229L222.136 82.5097C222.144 82.5396 222.152 82.5705 222.156 82.6004L222.414 87.0216C222.408 86.9887 222.401 86.9558 222.392 86.9229Z" fill="#9E7E31"/>
<path d="M222.413 87.0217L222.156 82.6005C222.16 82.6244 222.162 82.6493 222.164 82.6732L222.422 87.1014C222.421 87.0745 222.418 87.0486 222.413 87.0217Z" fill="#997A2F"/>
<path d="M176.603 107.383L177.269 88.1091C177.282 87.7243 177.575 87.3444 178.166 87.0204L177.502 106.295C176.909 106.618 176.616 106.998 176.603 107.383Z" fill="#856A29"/>
<path d="M177.502 106.297L178.168 87.0236C178.189 87.0117 178.212 86.9997 178.234 86.9877L177.569 106.262C177.546 106.274 177.524 106.285 177.502 106.297Z" fill="#8A6E2B"/>
<path d="M176.862 111.885L176.605 107.457C176.581 107.048 176.87 106.642 177.495 106.299L177.681 110.821C177.105 111.136 176.84 111.509 176.862 111.885Z" fill="#856A29"/>
<path d="M177.68 110.822L177.494 106.3C177.519 106.288 177.544 106.274 177.568 106.261L177.748 110.786C177.726 110.798 177.703 110.81 177.68 110.822Z" fill="#8A6E2B"/>
<path d="M219.655 104.733L220.321 85.4595C220.378 85.4774 220.435 85.4964 220.49 85.5153L219.825 104.789C219.77 104.769 219.713 104.751 219.655 104.733Z" fill="#FFCB4F"/>
<path d="M219.825 104.788L220.49 85.5143C220.554 85.5362 220.616 85.5571 220.675 85.5801L220.01 104.854C219.95 104.832 219.888 104.81 219.825 104.788Z" fill="#FAC74D"/>
<path d="M220.01 104.854L220.676 85.5801C220.744 85.605 220.809 85.6309 220.872 85.6568L220.207 104.931C220.143 104.905 220.077 104.879 220.01 104.854Z" fill="#F5C34C"/>
<path d="M220.207 104.931L220.873 85.6569C220.935 85.6828 220.997 85.7087 221.055 85.7356L220.39 105.009C220.331 104.983 220.269 104.957 220.207 104.931Z" fill="#F0BF4A"/>
<path d="M220.39 105.009L221.055 85.7356C221.114 85.7625 221.171 85.7884 221.226 85.8163L220.56 105.09C220.506 105.062 220.448 105.035 220.39 105.009Z" fill="#EBBB49"/>
<path d="M220.56 105.089L221.226 85.8153C221.277 85.8402 221.326 85.8661 221.375 85.8921L220.709 105.166C220.662 105.141 220.611 105.115 220.56 105.089Z" fill="#E6B747"/>
<path d="M220.709 105.167L221.375 85.8931C221.422 85.919 221.467 85.945 221.512 85.9709L220.846 105.245C220.803 105.218 220.756 105.192 220.709 105.167Z" fill="#E0B346"/>
<path d="M220.846 105.245L221.511 85.9708C221.554 85.9957 221.595 86.0217 221.634 86.0466L220.968 105.32C220.929 105.295 220.888 105.27 220.846 105.245Z" fill="#DBAF44"/>
<path d="M220.968 105.32L221.634 86.0466C221.672 86.0716 221.709 86.0965 221.745 86.1224L221.079 105.396C221.044 105.37 221.006 105.345 220.968 105.32Z" fill="#D6AB42"/>
<path d="M221.079 105.396L221.745 86.1224C221.78 86.1474 221.814 86.1723 221.846 86.1982L221.18 105.472C221.148 105.446 221.114 105.421 221.079 105.396Z" fill="#D1A641"/>
<path d="M221.179 105.471L221.845 86.1971C221.877 86.2221 221.908 86.247 221.937 86.2729L221.271 105.547C221.242 105.522 221.211 105.496 221.179 105.471Z" fill="#CCA23F"/>
<path d="M221.271 105.547L221.937 86.2729C221.966 86.2978 221.993 86.3237 222.02 86.3487L221.355 105.623C221.329 105.598 221.301 105.572 221.271 105.547Z" fill="#C79E3E"/>
<path d="M221.355 105.623L222.021 86.3487C222.048 86.3746 222.074 86.3995 222.097 86.4255L221.431 105.699C221.407 105.674 221.381 105.648 221.355 105.623Z" fill="#C29A3C"/>
<path d="M221.43 105.7L222.096 86.4265C222.12 86.4524 222.143 86.4783 222.164 86.5042L221.499 105.778C221.477 105.752 221.455 105.726 221.43 105.7Z" fill="#BD963A"/>
<path d="M221.499 105.778L222.165 86.5042C222.186 86.5311 222.207 86.558 222.226 86.585L221.561 105.859C221.541 105.832 221.521 105.805 221.499 105.778Z" fill="#B89239"/>
<path d="M221.561 105.859L222.227 86.585C222.246 86.6119 222.264 86.6389 222.28 86.6668L221.614 105.941C221.598 105.913 221.58 105.886 221.561 105.859Z" fill="#B38E37"/>
<path d="M221.614 105.941L222.28 86.6667C222.297 86.6956 222.313 86.7235 222.327 86.7524L221.661 106.026C221.647 105.997 221.631 105.968 221.614 105.941Z" fill="#AD8A36"/>
<path d="M221.662 106.026L222.327 86.7524C222.342 86.7814 222.354 86.8103 222.365 86.8402L221.7 106.114C221.688 106.084 221.676 106.055 221.662 106.026Z" fill="#A88634"/>
<path d="M221.7 106.114L222.365 86.8401C222.378 86.8711 222.387 86.902 222.396 86.9339L221.731 106.208C221.721 106.176 221.711 106.145 221.7 106.114Z" fill="#A38233"/>
<path d="M221.729 106.207L222.395 86.9329C222.404 86.9658 222.411 86.9987 222.416 87.0316L221.75 106.305C221.745 106.273 221.739 106.24 221.729 106.207Z" fill="#9E7E31"/>
<path d="M221.75 106.305L222.416 87.0315C222.421 87.0664 222.424 87.1003 222.424 87.1352L221.758 106.409C221.758 106.374 221.755 106.34 221.75 106.305Z" fill="#997A2F"/>
<path d="M221.758 106.409L222.424 87.1353C222.424 87.1483 222.424 87.1622 222.424 87.1752L221.758 106.449C221.758 106.436 221.758 106.422 221.758 106.409Z" fill="#94762E"/>
<path d="M219.261 109.279L219.655 104.733C219.686 104.743 219.717 104.753 219.746 104.762L219.346 109.306C219.318 109.297 219.29 109.288 219.261 109.279Z" fill="#FFD164"/>
<path d="M219.345 109.306L219.746 104.762C219.796 104.778 219.846 104.795 219.893 104.812L219.48 109.352C219.437 109.336 219.392 109.321 219.345 109.306Z" fill="#FFCB4F"/>
<path d="M219.481 109.352L219.894 104.812C219.948 104.831 220 104.85 220.052 104.869L219.626 109.404C219.579 109.387 219.531 109.369 219.481 109.352Z" fill="#FAC74D"/>
<path d="M219.626 109.404L220.052 104.869C220.111 104.892 220.169 104.914 220.225 104.938L219.785 109.467C219.734 109.446 219.681 109.425 219.626 109.404Z" fill="#F5C34C"/>
<path d="M219.785 109.468L220.225 104.939C220.284 104.963 220.341 104.988 220.397 105.012L219.944 109.535C219.892 109.512 219.84 109.49 219.785 109.468Z" fill="#F0BF4A"/>
<path d="M219.943 109.535L220.396 105.012C220.452 105.038 220.508 105.064 220.56 105.09L220.094 109.607C220.045 109.582 219.995 109.558 219.943 109.535Z" fill="#EBBB49"/>
<path d="M220.094 109.607L220.561 105.09C220.612 105.115 220.662 105.141 220.709 105.167L220.23 109.678C220.187 109.654 220.142 109.63 220.094 109.607Z" fill="#E6B747"/>
<path d="M220.231 109.678L220.71 105.167C220.757 105.193 220.803 105.218 220.847 105.245L220.357 109.749C220.316 109.725 220.275 109.701 220.231 109.678Z" fill="#E0B346"/>
<path d="M220.357 109.749L220.847 105.245C220.889 105.27 220.93 105.296 220.969 105.32L220.47 109.818C220.433 109.794 220.395 109.772 220.357 109.749Z" fill="#DBAF44"/>
<path d="M220.469 109.819L220.968 105.321C221.006 105.345 221.044 105.37 221.079 105.396L220.571 109.888C220.538 109.864 220.504 109.841 220.469 109.819Z" fill="#D6AB42"/>
<path d="M220.57 109.888L221.079 105.396C221.114 105.421 221.148 105.446 221.18 105.472L220.663 109.958C220.634 109.934 220.603 109.911 220.57 109.888Z" fill="#D1A641"/>
<path d="M220.664 109.958L221.181 105.472C221.213 105.497 221.244 105.523 221.272 105.548L220.748 110.028C220.722 110.004 220.693 109.981 220.664 109.958Z" fill="#CCA23F"/>
<path d="M220.748 110.028L221.272 105.548C221.301 105.573 221.329 105.599 221.355 105.625L220.824 110.099C220.8 110.074 220.775 110.051 220.748 110.028Z" fill="#C79E3E"/>
<path d="M220.825 110.098L221.356 105.624C221.383 105.65 221.409 105.675 221.432 105.701L220.895 110.168C220.872 110.144 220.849 110.122 220.825 110.098Z" fill="#C29A3C"/>
<path d="M220.895 110.168L221.432 105.701C221.456 105.727 221.48 105.753 221.5 105.78L220.958 110.241C220.938 110.216 220.917 110.192 220.895 110.168Z" fill="#BD963A"/>
<path d="M220.958 110.241L221.5 105.78C221.522 105.807 221.542 105.834 221.562 105.861L221.014 110.316C220.997 110.29 220.977 110.265 220.958 110.241Z" fill="#B89239"/>
<path d="M221.014 110.315L221.562 105.86C221.581 105.887 221.598 105.915 221.615 105.942L221.063 110.39C221.048 110.365 221.031 110.34 221.014 110.315Z" fill="#B38E37"/>
<path d="M221.064 110.39L221.615 105.942C221.633 105.97 221.648 105.998 221.663 106.027L221.107 110.468C221.094 110.443 221.079 110.417 221.064 110.39Z" fill="#AD8A36"/>
<path d="M221.107 110.47L221.663 106.028C221.677 106.057 221.689 106.087 221.701 106.116L221.142 110.55C221.131 110.523 221.119 110.496 221.107 110.47Z" fill="#A88634"/>
<path d="M221.141 110.55L221.7 106.116C221.713 106.147 221.722 106.179 221.73 106.21L221.169 110.636C221.161 110.607 221.152 110.579 221.141 110.55Z" fill="#A38233"/>
<path d="M221.169 110.636L221.73 106.21C221.738 106.243 221.746 106.276 221.75 106.308L221.187 110.727C221.184 110.697 221.177 110.666 221.169 110.636Z" fill="#9E7E31"/>
<path d="M221.188 110.727L221.751 106.308C221.756 106.343 221.758 106.378 221.759 106.412L221.196 110.822C221.194 110.79 221.192 110.758 221.188 110.727Z" fill="#997A2F"/>
<path d="M221.195 110.822L221.758 106.412C221.758 106.449 221.756 106.486 221.752 106.523L221.189 110.924C221.193 110.89 221.195 110.856 221.195 110.822Z" fill="#94762E"/>
<path d="M178.234 86.9878L178.719 82.6712L193.411 75.037L192.926 79.3526L178.234 86.9878Z" fill="#91732D"/>
<path d="M200.024 79.0953L199.935 74.7997L220.232 81.1639L220.321 85.4595L200.024 79.0953Z" fill="#FECA4F"/>
<path d="M192.926 79.3525L193.411 75.036C193.475 75.0031 193.541 74.9702 193.61 74.9393L193.143 79.2468C193.068 79.2817 192.995 79.3166 192.926 79.3525Z" fill="#8A6E2B"/>
<path d="M193.143 79.2479L193.61 74.9404C193.678 74.9105 193.748 74.8816 193.82 74.8536L193.371 79.1532C193.293 79.1831 193.217 79.215 193.143 79.2479Z" fill="#8F722C"/>
<path d="M193.371 79.1531L193.82 74.8536C193.883 74.8296 193.947 74.8057 194.013 74.7828L193.581 79.0764C193.51 79.1013 193.439 79.1262 193.371 79.1531Z" fill="#94762E"/>
<path d="M193.581 79.0764L194.013 74.7828C194.074 74.7618 194.136 74.7419 194.199 74.723L193.783 79.0116C193.715 79.0325 193.647 79.0544 193.581 79.0764Z" fill="#997A2F"/>
<path d="M193.784 79.0117L194.2 74.7231C194.258 74.7061 194.315 74.6892 194.375 74.6732L193.974 78.9569C193.909 78.9738 193.846 78.9927 193.784 79.0117Z" fill="#9E7E31"/>
<path d="M193.973 78.9568L194.374 74.6732C194.431 74.6572 194.489 74.6423 194.547 74.6283L194.162 78.9079C194.098 78.9229 194.036 78.9398 193.973 78.9568Z" fill="#A38233"/>
<path d="M194.163 78.908L194.548 74.6283C194.605 74.6144 194.661 74.6014 194.72 74.5884L194.35 78.8651C194.286 78.8781 194.223 78.893 194.163 78.908Z" fill="#A88634"/>
<path d="M194.349 78.8641L194.719 74.5875C194.775 74.5755 194.832 74.5635 194.888 74.5516L194.533 78.8252C194.471 78.8382 194.409 78.8512 194.349 78.8641Z" fill="#AD8A36"/>
<path d="M194.534 78.8262L194.889 74.5525C194.946 74.5416 195.002 74.5306 195.06 74.5206L194.72 78.7913C194.657 78.8023 194.596 78.8142 194.534 78.8262Z" fill="#B38E37"/>
<path d="M194.72 78.7913L195.06 74.5206C195.116 74.5107 195.173 74.5017 195.23 74.4927L194.905 78.7604C194.843 78.7704 194.78 78.7804 194.72 78.7913Z" fill="#B89239"/>
<path d="M194.905 78.7604L195.231 74.4928C195.288 74.4838 195.345 74.4758 195.403 74.4678L195.093 78.7335C195.03 78.7415 194.968 78.7505 194.905 78.7604Z" fill="#BD963A"/>
<path d="M195.093 78.7335L195.403 74.4678C195.459 74.4598 195.517 74.4528 195.574 74.4459L195.28 78.7096C195.217 78.7165 195.154 78.7245 195.093 78.7335Z" fill="#C29A3C"/>
<path d="M195.28 78.7096L195.575 74.4459C195.632 74.4389 195.69 74.4329 195.748 74.4269L195.469 78.6896C195.405 78.6946 195.341 78.7016 195.28 78.7096Z" fill="#C79E3E"/>
<path d="M195.468 78.6887L195.747 74.426C195.803 74.42 195.859 74.415 195.916 74.41L195.651 78.6707C195.59 78.6767 195.528 78.6827 195.468 78.6887Z" fill="#CCA23F"/>
<path d="M195.652 78.6717L195.917 74.411C195.973 74.406 196.03 74.4021 196.086 74.3981L195.836 78.6568C195.774 78.6618 195.712 78.6658 195.652 78.6717Z" fill="#D1A641"/>
<path d="M195.835 78.6567L196.085 74.397C196.138 74.393 196.19 74.39 196.243 74.387L196.007 78.6457C195.951 78.6497 195.893 78.6527 195.835 78.6567Z" fill="#D6AB42"/>
<path d="M196.008 78.6468L196.244 74.388C196.297 74.3851 196.349 74.3831 196.402 74.3801L196.179 78.6388C196.121 78.6408 196.065 78.6428 196.008 78.6468Z" fill="#DBAF44"/>
<path d="M196.179 78.6378L196.402 74.3791C196.45 74.3771 196.498 74.3751 196.548 74.3741L196.338 78.6319C196.285 78.6339 196.231 78.6358 196.179 78.6378Z" fill="#E0B346"/>
<path d="M196.337 78.6328L196.546 74.3751C196.593 74.3741 196.639 74.3731 196.685 74.3721L196.488 78.6298C196.438 78.6298 196.387 78.6308 196.337 78.6328Z" fill="#E6B747"/>
<path d="M196.489 78.6288L196.686 74.3711C196.733 74.3701 196.779 74.3701 196.825 74.3701L196.64 78.6278C196.589 78.6278 196.538 78.6288 196.489 78.6288Z" fill="#EBBB49"/>
<path d="M196.639 78.6278L196.824 74.3701C196.865 74.3701 196.907 74.3701 196.949 74.3701L196.775 78.6278C196.73 78.6278 196.684 78.6278 196.639 78.6278Z" fill="#F0BF4A"/>
<path d="M196.774 78.6278L196.949 74.3701C196.991 74.3701 197.032 74.3711 197.074 74.3711L196.911 78.6288C196.865 78.6288 196.82 78.6278 196.774 78.6278Z" fill="#F5C34C"/>
<path d="M196.911 78.6288L197.074 74.3711C197.117 74.3721 197.158 74.3731 197.2 74.3741L197.048 78.6318C197.002 78.6308 196.956 78.6298 196.911 78.6288Z" fill="#FAC74D"/>
<path d="M197.047 78.6319L197.199 74.3741C197.24 74.3751 197.281 74.3761 197.323 74.3781L197.181 78.6368C197.136 78.6349 197.092 78.6339 197.047 78.6319Z" fill="#FFCB4F"/>
<path d="M197.181 78.6368L197.323 74.3791C197.364 74.3811 197.405 74.3821 197.447 74.3841L197.317 78.6428C197.271 78.6398 197.227 78.6378 197.181 78.6368Z" fill="#FFD164"/>
<path d="M197.316 78.6427L197.447 74.384C197.491 74.386 197.535 74.388 197.579 74.391L197.46 78.6507C197.413 78.6467 197.364 78.6447 197.316 78.6427Z" fill="#FFD46D"/>
<path d="M197.46 78.6497L197.579 74.39C197.629 74.393 197.679 74.396 197.729 74.4L197.623 78.6597C197.569 78.6567 197.514 78.6527 197.46 78.6497Z" fill="#FFD674"/>
<path d="M197.623 78.6608L197.729 74.4011C197.779 74.405 197.829 74.409 197.879 74.413L197.787 78.6737C197.732 78.6687 197.678 78.6648 197.623 78.6608Z" fill="#FFD779"/>
<path d="M197.787 78.6737L197.879 74.413C197.969 74.421 198.059 74.429 198.148 74.4389L198.079 78.7026C197.982 78.6917 197.884 78.6817 197.787 78.6737Z" fill="#FFD97E"/>
<path d="M198.079 78.7017L198.148 74.438C198.325 74.4569 198.502 74.4809 198.674 74.5088L198.652 78.7784C198.464 78.7485 198.272 78.7236 198.079 78.7017Z" fill="#FFDA83"/>
<path d="M198.652 78.7783L198.674 74.5087C198.768 74.5236 198.861 74.5396 198.954 74.5575L198.956 78.8312C198.856 78.8122 198.754 78.7953 198.652 78.7783Z" fill="#FFD97E"/>
<path d="M198.957 78.8312L198.955 74.5576C199.02 74.5695 199.085 74.5825 199.149 74.5964L199.168 78.8741C199.098 78.8591 199.028 78.8452 198.957 78.8312Z" fill="#FFD779"/>
<path d="M199.167 78.8731L199.149 74.5955C199.214 74.6094 199.277 74.6234 199.341 74.6383L199.377 78.919C199.307 78.904 199.238 78.8881 199.167 78.8731Z" fill="#FFD674"/>
<path d="M199.377 78.92L199.341 74.6393C199.405 74.6543 199.468 74.6692 199.531 74.6852L199.584 78.9698C199.515 78.9529 199.446 78.9359 199.377 78.92Z" fill="#FFD46D"/>
<path d="M199.583 78.9697L199.531 74.6851C199.599 74.7021 199.666 74.721 199.732 74.739L199.802 79.0286C199.729 79.0086 199.656 78.9887 199.583 78.9697Z" fill="#FFD164"/>
<path d="M199.802 79.0286L199.731 74.739C199.8 74.7589 199.868 74.7788 199.935 74.7998L200.023 79.0954C199.95 79.0724 199.877 79.0505 199.802 79.0286Z" fill="#FFCB4F"/>
<path d="M177.569 106.262L178.234 86.9878L192.926 79.3526L192.26 98.6265L177.569 106.262Z" fill="#92742D"/>
<path d="M199.358 98.3682L200.024 79.0953L220.321 85.4595L219.655 104.733L199.358 98.3682Z" fill="#FECA4F"/>
<path d="M177.748 110.787L177.569 106.262L192.26 98.6265L192.44 103.151L177.748 110.787Z" fill="#92742D"/>
<path d="M192.26 98.6265L192.926 79.3526C192.992 79.3187 193.059 79.2858 193.129 79.2539L192.463 98.5278C192.394 98.5597 192.326 98.5926 192.26 98.6265Z" fill="#8A6E2B"/>
<path d="M192.463 98.5277L193.129 79.2538C193.202 79.2209 193.278 79.189 193.355 79.1591L192.689 98.433C192.612 98.4629 192.536 98.4948 192.463 98.5277Z" fill="#8F722C"/>
<path d="M192.689 98.433L193.355 79.1592C193.423 79.1322 193.493 79.1073 193.565 79.0824L192.899 98.3563C192.827 98.3802 192.757 98.4061 192.689 98.433Z" fill="#94762E"/>
<path d="M192.899 98.3563L193.565 79.0825C193.63 79.0595 193.697 79.0376 193.766 79.0167L193.1 98.2905C193.031 98.3114 192.965 98.3334 192.899 98.3563Z" fill="#997A2F"/>
<path d="M193.1 98.2905L193.766 79.0166C193.828 78.9977 193.889 78.9797 193.953 78.9618L193.287 98.2357C193.224 98.2536 193.162 98.2715 193.1 98.2905Z" fill="#9E7E31"/>
<path d="M193.287 98.2356L193.953 78.9618C194.014 78.9448 194.077 78.9279 194.141 78.9129L193.475 98.1868C193.411 98.2027 193.349 98.2187 193.287 98.2356Z" fill="#A38233"/>
<path d="M193.475 98.1868L194.141 78.913C194.201 78.898 194.262 78.8841 194.325 78.8701L193.659 98.144C193.596 98.1569 193.535 98.1719 193.475 98.1868Z" fill="#A88634"/>
<path d="M193.658 98.1439L194.324 78.8701C194.385 78.8561 194.445 78.8441 194.507 78.8312L193.841 98.105C193.78 98.117 193.719 98.13 193.658 98.1439Z" fill="#AD8A36"/>
<path d="M193.842 98.1051L194.508 78.8312C194.569 78.8193 194.629 78.8073 194.691 78.7963L194.025 98.0702C193.964 98.0811 193.902 98.0931 193.842 98.1051Z" fill="#B38E37"/>
<path d="M194.025 98.0701L194.691 78.7963C194.752 78.7853 194.812 78.7753 194.874 78.7654L194.208 98.0392C194.146 98.0492 194.085 98.0592 194.025 98.0701Z" fill="#B89239"/>
<path d="M194.207 98.0393L194.873 78.7654C194.933 78.7554 194.995 78.7465 195.057 78.7375L194.391 98.0114C194.329 98.0203 194.269 98.0293 194.207 98.0393Z" fill="#BD963A"/>
<path d="M194.391 98.0113L195.056 78.7375C195.116 78.7295 195.177 78.7215 195.237 78.7136L194.571 97.9874C194.511 97.9954 194.45 98.0034 194.391 98.0113Z" fill="#C29A3C"/>
<path d="M194.572 97.9884L195.238 78.7145C195.297 78.7076 195.358 78.7006 195.418 78.6936L194.753 97.9675C194.692 97.9734 194.632 97.9804 194.572 97.9884Z" fill="#C79E3E"/>
<path d="M194.752 97.9675L195.418 78.6936C195.475 78.6877 195.532 78.6817 195.59 78.6767L194.924 97.9506C194.867 97.9555 194.81 97.9615 194.752 97.9675Z" fill="#CCA23F"/>
<path d="M194.925 97.9505L195.591 78.6767C195.646 78.6717 195.703 78.6667 195.758 78.6627L195.093 97.9366C195.036 97.9406 194.981 97.9455 194.925 97.9505Z" fill="#D1A641"/>
<path d="M195.092 97.9366L195.758 78.6627C195.81 78.6587 195.863 78.6547 195.916 78.6517L195.251 97.9256C195.198 97.9286 195.145 97.9326 195.092 97.9366Z" fill="#D6AB42"/>
<path d="M195.251 97.9256L195.916 78.6518C195.964 78.6488 196.012 78.6458 196.06 78.6438L195.395 97.9177C195.346 97.9197 195.298 97.9226 195.251 97.9256Z" fill="#DBAF44"/>
<path d="M195.394 97.9176L196.059 78.6438C196.108 78.6418 196.155 78.6388 196.203 78.6368L195.537 97.9106C195.49 97.9126 195.442 97.9146 195.394 97.9176Z" fill="#E0B346"/>
<path d="M195.538 97.9107L196.204 78.6369C196.245 78.6349 196.286 78.6339 196.326 78.6329L195.661 97.9067C195.619 97.9077 195.578 97.9097 195.538 97.9107Z" fill="#E6B747"/>
<path d="M195.661 97.9067L196.326 78.6329C196.365 78.6319 196.403 78.6309 196.442 78.6299L195.777 97.9037C195.738 97.9047 195.7 97.9057 195.661 97.9067Z" fill="#EBBB49"/>
<path d="M195.777 97.9037L196.443 78.6298C196.482 78.6288 196.52 78.6288 196.559 78.6278L195.893 97.9017C195.854 97.9027 195.816 97.9027 195.777 97.9037Z" fill="#F0BF4A"/>
<path d="M195.893 97.9017L196.558 78.6278C196.594 78.6278 196.63 78.6268 196.666 78.6268L196 97.9007C195.964 97.9017 195.929 97.9017 195.893 97.9017Z" fill="#F5C34C"/>
<path d="M196.002 97.9007L196.668 78.6268C196.7 78.6268 196.732 78.6268 196.764 78.6268L196.099 97.9007C196.067 97.9007 196.034 97.9007 196.002 97.9007Z" fill="#FAC74D"/>
<path d="M196.098 97.9017L196.764 78.6278C196.796 78.6278 196.829 78.6278 196.86 78.6288L196.195 97.9026C196.163 97.9017 196.13 97.9017 196.098 97.9017Z" fill="#FFCB4F"/>
<path d="M196.195 97.9017L196.861 78.6278C196.893 78.6278 196.925 78.6288 196.958 78.6298L196.292 97.9037C196.261 97.9027 196.228 97.9027 196.195 97.9017Z" fill="#FFD164"/>
<path d="M196.292 97.9037L196.958 78.6299C196.99 78.6309 197.022 78.6309 197.054 78.6319L196.388 97.9057C196.356 97.9047 196.324 97.9047 196.292 97.9037Z" fill="#FFD46D"/>
<path d="M196.388 97.9057L197.054 78.6318C197.085 78.6328 197.115 78.6338 197.146 78.6348L196.48 97.9087C196.449 97.9077 196.419 97.9067 196.388 97.9057Z" fill="#FFD674"/>
<path d="M196.479 97.9086L197.145 78.6348C197.176 78.6358 197.207 78.6368 197.238 78.6388L196.572 97.9126C196.541 97.9106 196.51 97.9096 196.479 97.9086Z" fill="#FFD779"/>
<path d="M196.572 97.9126L197.238 78.6388C197.269 78.6398 197.299 78.6418 197.33 78.6428L196.664 97.9166C196.634 97.9146 196.603 97.9136 196.572 97.9126Z" fill="#FFD97E"/>
<path d="M196.664 97.9167L197.33 78.6428C197.362 78.6448 197.394 78.6458 197.425 78.6478L196.759 97.9217C196.727 97.9197 196.695 97.9187 196.664 97.9167Z" fill="#FFDA83"/>
<path d="M196.759 97.9216L197.425 78.6478C197.462 78.6498 197.499 78.6518 197.536 78.6547L196.87 97.9286C196.833 97.9256 196.796 97.9236 196.759 97.9216Z" fill="#FFDC87"/>
<path d="M196.87 97.9286L197.535 78.6548C197.572 78.6568 197.609 78.6598 197.646 78.6628L196.981 97.9366C196.943 97.9336 196.906 97.9306 196.87 97.9286Z" fill="#FFDD8B"/>
<path d="M196.98 97.9356L197.645 78.6617C197.682 78.6647 197.719 78.6677 197.755 78.6707L197.09 97.9446C197.054 97.9416 197.017 97.9386 196.98 97.9356Z" fill="#FFDE8E"/>
<path d="M197.091 97.9446L197.757 78.6707C197.816 78.6757 197.876 78.6807 197.934 78.6867L197.269 97.9605C197.209 97.9545 197.149 97.9495 197.091 97.9446Z" fill="#FFDF92"/>
<path d="M197.269 97.9605L197.934 78.6866C198.008 78.6936 198.081 78.7016 198.154 78.7096L197.488 97.9834C197.415 97.9755 197.343 97.9675 197.269 97.9605Z" fill="#FFE095"/>
<path d="M197.489 97.9844L198.154 78.7106C198.202 78.7166 198.249 78.7215 198.296 78.7275L197.63 98.0014C197.584 97.9954 197.537 97.9894 197.489 97.9844Z" fill="#FFE198"/>
<path d="M197.631 98.0014L198.297 78.7275C198.422 78.7435 198.548 78.7614 198.672 78.7814L198.006 98.0552C197.882 98.0353 197.757 98.0173 197.631 98.0014Z" fill="#FFE095"/>
<path d="M198.005 98.0552L198.671 78.7813C198.724 78.7903 198.778 78.7993 198.831 78.8082L198.165 98.0821C198.112 98.0731 198.059 98.0641 198.005 98.0552Z" fill="#FFDF92"/>
<path d="M198.165 98.0821L198.831 78.8083C198.88 78.8173 198.93 78.8262 198.979 78.8352L198.313 98.1091C198.264 98.1001 198.215 98.0911 198.165 98.0821Z" fill="#FFDE8E"/>
<path d="M198.313 98.1091L198.979 78.8352C199.018 78.8432 199.057 78.8502 199.096 78.8581L198.43 98.132C198.391 98.125 198.352 98.117 198.313 98.1091Z" fill="#FFDD8B"/>
<path d="M198.43 98.132L199.096 78.8582C199.135 78.8661 199.174 78.8741 199.213 78.8821L198.547 98.1559C198.508 98.148 198.469 98.14 198.43 98.132Z" fill="#FFDC87"/>
<path d="M198.547 98.1568L199.213 78.883C199.252 78.891 199.291 78.8999 199.33 78.9089L198.664 98.1828C198.625 98.1738 198.586 98.1648 198.547 98.1568Z" fill="#FFDA83"/>
<path d="M198.664 98.1829L199.329 78.909C199.37 78.918 199.412 78.9279 199.453 78.9379L198.787 98.2118C198.747 98.2018 198.706 98.1918 198.664 98.1829Z" fill="#FFD97E"/>
<path d="M198.788 98.2117L199.454 78.9379C199.495 78.9478 199.536 78.9578 199.576 78.9678L198.91 98.2416C198.869 98.2317 198.829 98.2217 198.788 98.2117Z" fill="#FFD779"/>
<path d="M198.91 98.2416L199.576 78.9677C199.618 78.9787 199.661 78.9896 199.703 79.0016L199.037 98.2755C198.995 98.2635 198.952 98.2525 198.91 98.2416Z" fill="#FFD674"/>
<path d="M199.037 98.2754L199.703 79.0016C199.754 79.0155 199.806 79.0295 199.856 79.0445L199.19 98.3183C199.14 98.3034 199.089 98.2894 199.037 98.2754Z" fill="#FFD46D"/>
<path d="M199.191 98.3183L199.856 79.0445C199.907 79.0594 199.957 79.0744 200.007 79.0904L199.342 98.3642C199.292 98.3483 199.242 98.3333 199.191 98.3183Z" fill="#FFD164"/>
<path d="M199.342 98.3632L200.008 79.0894C200.013 79.0913 200.018 79.0923 200.024 79.0943L199.358 98.3682C199.353 98.3672 199.348 98.3652 199.342 98.3632Z" fill="#FFCB4F"/>
<path d="M198.965 102.914L199.358 98.3682L219.655 104.733L219.261 109.279L198.965 102.914Z" fill="#FCC84E"/>
<path d="M219.261 109.279C221.352 109.934 221.82 111.103 220.306 111.89L205.615 119.525C204.101 120.312 201.181 120.417 199.09 119.762L178.794 113.396C176.704 112.741 176.236 111.572 177.749 110.785L192.441 103.15C193.953 102.364 196.876 102.258 198.966 102.913L219.261 109.279Z" fill="#846929"/>
<path d="M192.44 103.151L192.26 98.6264C192.324 98.5935 192.389 98.5616 192.457 98.5307L192.622 103.064C192.559 103.091 192.498 103.121 192.44 103.151Z" fill="#8A6E2B"/>
<path d="M192.621 103.064L192.456 98.5308C192.529 98.4979 192.605 98.466 192.683 98.4351L192.829 102.976C192.758 103.004 192.688 103.033 192.621 103.064Z" fill="#8F722C"/>
<path d="M192.829 102.976L192.683 98.435C192.751 98.4081 192.821 98.3822 192.893 98.3572L193.021 102.904C192.956 102.927 192.892 102.951 192.829 102.976Z" fill="#94762E"/>
<path d="M193.022 102.904L192.894 98.3572C192.96 98.3343 193.026 98.3124 193.095 98.2914L193.208 102.843C193.144 102.863 193.083 102.883 193.022 102.904Z" fill="#997A2F"/>
<path d="M193.207 102.844L193.094 98.2924C193.156 98.2735 193.217 98.2556 193.281 98.2376L193.379 102.794C193.321 102.81 193.264 102.826 193.207 102.844Z" fill="#9E7E31"/>
<path d="M193.38 102.793L193.282 98.2367C193.344 98.2197 193.407 98.2028 193.47 98.1868L193.552 102.748C193.494 102.763 193.436 102.778 193.38 102.793Z" fill="#A38233"/>
<path d="M193.552 102.749L193.47 98.1878C193.531 98.1729 193.592 98.1579 193.654 98.144L193.722 102.708C193.664 102.722 193.608 102.735 193.552 102.749Z" fill="#A88634"/>
<path d="M193.722 102.709L193.654 98.145C193.715 98.131 193.775 98.118 193.838 98.1061L193.89 102.673C193.833 102.684 193.777 102.696 193.722 102.709Z" fill="#AD8A36"/>
<path d="M193.89 102.673L193.838 98.1061C193.899 98.0941 193.959 98.0821 194.021 98.0712L194.059 102.641C194.001 102.651 193.946 102.662 193.89 102.673Z" fill="#B38E37"/>
<path d="M194.058 102.641L194.02 98.0711C194.08 98.0602 194.141 98.0502 194.202 98.0402L194.224 102.613C194.169 102.621 194.114 102.631 194.058 102.641Z" fill="#B89239"/>
<path d="M194.225 102.612L194.203 98.0393C194.263 98.0293 194.324 98.0204 194.384 98.0124L194.393 102.587C194.336 102.595 194.281 102.604 194.225 102.612Z" fill="#BD963A"/>
<path d="M194.393 102.587L194.385 98.0124C194.443 98.0044 194.503 97.9964 194.561 97.9885L194.555 102.565C194.501 102.572 194.447 102.58 194.393 102.587Z" fill="#C29A3C"/>
<path d="M194.556 102.566L194.562 97.9894C194.621 97.9824 194.678 97.9755 194.738 97.9695L194.717 102.547C194.663 102.553 194.609 102.559 194.556 102.566Z" fill="#C79E3E"/>
<path d="M194.717 102.547L194.737 97.9695C194.792 97.9635 194.846 97.9585 194.9 97.9536L194.868 102.533C194.817 102.536 194.767 102.541 194.717 102.547Z" fill="#CCA23F"/>
<path d="M194.868 102.532L194.901 97.9525C194.952 97.9475 195.003 97.9435 195.055 97.9395L195.008 102.52C194.962 102.523 194.915 102.527 194.868 102.532Z" fill="#D1A641"/>
<path d="M195.009 102.519L195.056 97.9386C195.106 97.9346 195.156 97.9306 195.207 97.9276L195.149 102.509C195.102 102.512 195.056 102.516 195.009 102.519Z" fill="#D6AB42"/>
<path d="M195.149 102.509L195.206 97.9276C195.247 97.9246 195.287 97.9226 195.328 97.9196L195.261 102.501C195.224 102.505 195.186 102.507 195.149 102.509Z" fill="#DBAF44"/>
<path d="M195.261 102.502L195.329 97.9207C195.37 97.9187 195.411 97.9167 195.452 97.9147L195.374 102.497C195.337 102.498 195.299 102.5 195.261 102.502Z" fill="#E0B346"/>
<path d="M195.374 102.497L195.452 97.9147C195.493 97.9127 195.534 97.9107 195.575 97.9097L195.488 102.492C195.45 102.493 195.412 102.495 195.374 102.497Z" fill="#E6B747"/>
<path d="M195.488 102.492L195.575 97.9097C195.606 97.9087 195.637 97.9077 195.668 97.9067L195.572 102.489C195.545 102.49 195.516 102.491 195.488 102.492Z" fill="#EBBB49"/>
<path d="M195.572 102.489L195.668 97.9067C195.699 97.9057 195.729 97.9047 195.76 97.9047L195.658 102.488C195.629 102.488 195.601 102.488 195.572 102.489Z" fill="#F0BF4A"/>
<path d="M195.657 102.487L195.76 97.9037C195.791 97.9027 195.822 97.9027 195.853 97.9017L195.743 102.485C195.714 102.486 195.686 102.486 195.657 102.487Z" fill="#F5C34C"/>
<path d="M195.743 102.486L195.853 97.9027C195.883 97.9027 195.914 97.9017 195.946 97.9017L195.828 102.485C195.8 102.485 195.771 102.485 195.743 102.486Z" fill="#FAC74D"/>
<path d="M195.829 102.485L195.947 97.9017C195.973 97.9017 195.999 97.9017 196.024 97.9017L195.9 102.485C195.875 102.484 195.852 102.484 195.829 102.485Z" fill="#FFCB4F"/>
<path d="M195.899 102.484L196.023 97.9007C196.048 97.9007 196.073 97.9007 196.097 97.9007L195.968 102.484C195.945 102.484 195.922 102.484 195.899 102.484Z" fill="#FFD164"/>
<path d="M195.968 102.484L196.097 97.9007C196.122 97.9007 196.146 97.9007 196.171 97.9017L196.035 102.485C196.013 102.485 195.99 102.485 195.968 102.484Z" fill="#FFD46D"/>
<path d="M196.036 102.485L196.171 97.9017C196.196 97.9017 196.221 97.9027 196.245 97.9027L196.103 102.486C196.081 102.486 196.058 102.485 196.036 102.485Z" fill="#FFD674"/>
<path d="M196.103 102.486L196.245 97.9027C196.27 97.9027 196.294 97.9037 196.319 97.9037L196.171 102.487C196.15 102.487 196.127 102.486 196.103 102.486Z" fill="#FFD779"/>
<path d="M196.172 102.487L196.32 97.9037C196.344 97.9047 196.367 97.9047 196.391 97.9057L196.238 102.488C196.215 102.488 196.194 102.488 196.172 102.487Z" fill="#FFD97E"/>
<path d="M196.237 102.489L196.39 97.9067C196.413 97.9077 196.435 97.9077 196.458 97.9087L196.299 102.491C196.279 102.49 196.259 102.489 196.237 102.489Z" fill="#FFDA83"/>
<path d="M196.3 102.491L196.459 97.9087C196.481 97.9097 196.504 97.9107 196.527 97.9107L196.362 102.493C196.342 102.492 196.321 102.492 196.3 102.491Z" fill="#FFDC87"/>
<path d="M196.362 102.493L196.527 97.9106C196.549 97.9116 196.572 97.9126 196.594 97.9136L196.424 102.496C196.404 102.495 196.384 102.494 196.362 102.493Z" fill="#FFDD8B"/>
<path d="M196.426 102.496L196.596 97.9136C196.619 97.9146 196.642 97.9156 196.664 97.9166L196.488 102.499C196.467 102.498 196.446 102.497 196.426 102.496Z" fill="#FFDE8E"/>
<path d="M196.489 102.499L196.664 97.9166C196.687 97.9176 196.71 97.9186 196.732 97.9206L196.551 102.502C196.53 102.501 196.509 102.5 196.489 102.499Z" fill="#FFDF92"/>
<path d="M196.551 102.502L196.732 97.9206C196.759 97.9216 196.786 97.9236 196.812 97.9256L196.624 102.507C196.601 102.505 196.576 102.503 196.551 102.502Z" fill="#FFE095"/>
<path d="M196.625 102.506L196.813 97.9246C196.841 97.9266 196.868 97.9276 196.895 97.9296L196.701 102.511C196.676 102.509 196.65 102.508 196.625 102.506Z" fill="#FFE198"/>
<path d="M196.7 102.511L196.895 97.9296C196.922 97.9316 196.949 97.9336 196.977 97.9355L196.775 102.516C196.751 102.514 196.726 102.513 196.7 102.511Z" fill="#FFE19B"/>
<path d="M196.776 102.516L196.978 97.9355C197.005 97.9375 197.032 97.9395 197.06 97.9415L196.852 102.522C196.827 102.52 196.801 102.518 196.776 102.516Z" fill="#FFE29E"/>
<path d="M196.852 102.522L197.059 97.9416C197.089 97.9436 197.12 97.9466 197.15 97.9496L196.935 102.529C196.907 102.527 196.879 102.524 196.852 102.522Z" fill="#FFE3A1"/>
<path d="M196.935 102.529L197.149 97.9496C197.206 97.9546 197.262 97.9596 197.318 97.9655L197.09 102.544C197.038 102.539 196.987 102.534 196.935 102.529Z" fill="#FFE4A3"/>
<path d="M197.09 102.544L197.318 97.9655C197.374 97.9715 197.43 97.9775 197.486 97.9835L197.244 102.56C197.193 102.555 197.141 102.549 197.09 102.544Z" fill="#FFE5A6"/>
<path d="M197.245 102.561L197.487 97.9844C197.528 97.9894 197.57 97.9944 197.611 97.9994L197.359 102.575C197.32 102.57 197.282 102.565 197.245 102.561Z" fill="#FFE5A9"/>
<path d="M197.358 102.574L197.61 97.9984C197.72 98.0124 197.828 98.0273 197.937 98.0443L197.659 102.616C197.559 102.601 197.459 102.587 197.358 102.574Z" fill="#FFE5A6"/>
<path d="M197.659 102.617L197.937 98.0453C197.973 98.0513 198.008 98.0563 198.044 98.0622L197.757 102.633C197.724 102.627 197.692 102.622 197.659 102.617Z" fill="#FFE4A3"/>
<path d="M197.757 102.632L198.043 98.0612C198.078 98.0672 198.114 98.0732 198.149 98.0792L197.853 102.648C197.822 102.643 197.789 102.638 197.757 102.632Z" fill="#FFE3A1"/>
<path d="M197.854 102.649L198.15 98.0801C198.185 98.0861 198.22 98.0921 198.256 98.0991L197.952 102.667C197.919 102.66 197.887 102.654 197.854 102.649Z" fill="#FFE29E"/>
<path d="M197.951 102.666L198.255 98.098C198.284 98.103 198.313 98.109 198.341 98.114L198.03 102.681C198.004 102.676 197.978 102.671 197.951 102.666Z" fill="#FFE19B"/>
<path d="M198.03 102.681L198.341 98.1141C198.368 98.1191 198.395 98.124 198.42 98.13L198.103 102.695C198.079 102.691 198.054 102.686 198.03 102.681Z" fill="#FFE198"/>
<path d="M198.104 102.696L198.421 98.131C198.448 98.136 198.474 98.1419 198.5 98.1469L198.177 102.711C198.152 102.706 198.127 102.701 198.104 102.696Z" fill="#FFE095"/>
<path d="M198.176 102.711L198.499 98.1469C198.526 98.1529 198.552 98.1579 198.578 98.1639L198.247 102.727C198.224 102.721 198.2 102.716 198.176 102.711Z" fill="#FFDF92"/>
<path d="M198.249 102.726L198.58 98.1628C198.606 98.1688 198.632 98.1748 198.659 98.1808L198.322 102.742C198.297 102.737 198.272 102.731 198.249 102.726Z" fill="#FFDE8E"/>
<path d="M198.321 102.742L198.658 98.1808C198.686 98.1868 198.714 98.1938 198.743 98.2008L198.4 102.761C198.373 102.754 198.346 102.748 198.321 102.742Z" fill="#FFDD8B"/>
<path d="M198.398 102.76L198.742 98.1998C198.769 98.2067 198.798 98.2127 198.826 98.2197L198.475 102.777C198.45 102.772 198.424 102.766 198.398 102.76Z" fill="#FFDC87"/>
<path d="M198.476 102.778L198.826 98.2207C198.854 98.2277 198.881 98.2347 198.91 98.2416L198.553 102.797C198.527 102.791 198.501 102.784 198.476 102.778Z" fill="#FFDA83"/>
<path d="M198.552 102.797L198.91 98.2417C198.938 98.2487 198.965 98.2557 198.993 98.2636L198.63 102.817C198.604 102.811 198.578 102.804 198.552 102.797Z" fill="#FFD97E"/>
<path d="M198.63 102.817L198.993 98.2635C199.028 98.2725 199.063 98.2824 199.098 98.2924L198.726 102.844C198.693 102.835 198.661 102.826 198.63 102.817Z" fill="#FFD779"/>
<path d="M198.725 102.844L199.097 98.2924C199.134 98.3024 199.17 98.3134 199.206 98.3233L198.825 102.873C198.793 102.863 198.759 102.853 198.725 102.844Z" fill="#FFD674"/>
<path d="M198.826 102.872L199.207 98.3224C199.243 98.3334 199.279 98.3433 199.315 98.3553L198.925 102.902C198.893 102.892 198.86 102.882 198.826 102.872Z" fill="#FFD46D"/>
<path d="M198.926 102.902L199.316 98.3553C199.33 98.3593 199.345 98.3643 199.358 98.3682L198.965 102.914C198.951 102.91 198.939 102.906 198.926 102.902Z" fill="#FFD164"/>
<path d="M193.242 112.915C194.207 112.907 194.987 112.74 194.986 112.542C194.984 112.344 194.2 112.19 193.236 112.198C192.271 112.206 191.491 112.373 191.492 112.571C191.494 112.769 192.278 112.923 193.242 112.915Z" fill="#AAAAAA"/>
<path d="M203.636 111.869C204.601 111.861 205.382 111.693 205.38 111.495C205.378 111.297 204.595 111.143 203.63 111.151C202.665 111.159 201.885 111.326 201.887 111.524C201.888 111.722 202.672 111.877 203.636 111.869Z" fill="#AAAAAA"/>
<path d="M181.264 88.8589C181.303 88.834 181.343 88.8121 181.382 88.7921C181.992 88.4821 182.375 88.8679 182.235 89.6525C182.104 90.3862 181.565 91.2096 180.996 91.5665C180.957 91.5914 180.917 91.6133 180.878 91.6333C180.268 91.9433 179.886 91.5575 180.025 90.773C180.156 90.0383 180.696 89.2148 181.264 88.8589Z" fill="#949494"/>
<path d="M188.477 85.2004C188.517 85.1754 188.557 85.1535 188.596 85.1336C189.206 84.8235 189.587 85.2093 189.448 85.9939C189.319 86.7276 188.779 87.551 188.21 87.9069C188.171 87.9318 188.131 87.9538 188.092 87.9737C187.482 88.2837 187.1 87.898 187.239 87.1134C187.369 86.3807 187.909 85.5573 188.477 85.2004Z" fill="#949494"/>
<path d="M181.229 97.7322C181.268 97.7073 181.308 97.6853 181.347 97.6654C181.958 97.3564 182.339 97.7412 182.2 98.5257C182.07 99.2594 181.53 100.083 180.962 100.44C180.923 100.465 180.883 100.487 180.844 100.507C180.234 100.816 179.852 100.431 179.991 99.6462C180.121 98.9115 180.66 98.0881 181.229 97.7322Z" fill="#949494"/>
<path d="M188.441 94.0736C188.48 94.0487 188.52 94.0268 188.559 94.0068C189.17 93.6978 189.551 94.0826 189.412 94.8671C189.282 95.6009 188.742 96.4243 188.173 96.7812C188.134 96.8061 188.094 96.828 188.055 96.848C187.445 97.158 187.064 96.7722 187.202 95.9876C187.334 95.2539 187.873 94.4305 188.441 94.0736Z" fill="#949494"/>
<path d="M205.538 78.8721C205.583 78.8871 205.628 78.905 205.674 78.9259C206.416 79.2609 206.929 80.2089 206.819 81.0443C206.716 81.8279 206.102 82.2336 205.414 82.0043C205.369 81.9894 205.324 81.9714 205.278 81.9505C204.536 81.6155 204.024 80.6675 204.133 79.8321C204.236 79.0486 204.849 78.6428 205.538 78.8721Z" fill="#FCFCFC"/>
<path d="M216.326 82.2615C216.372 82.2765 216.417 82.2944 216.463 82.3153C217.205 82.6503 217.717 83.5983 217.608 84.4337C217.505 85.2173 216.891 85.623 216.204 85.3947C216.159 85.3798 216.114 85.3618 216.068 85.3409C215.326 85.0059 214.813 84.0579 214.923 83.2225C215.025 82.4379 215.638 82.0332 216.326 82.2615Z" fill="#FCFCFC"/>
<path d="M205.333 87.8451C205.378 87.86 205.423 87.878 205.469 87.8989C206.211 88.2329 206.724 89.1809 206.614 90.0163C206.511 90.7998 205.897 91.2066 205.209 90.9773C205.164 90.9623 205.119 90.9444 205.073 90.9235C204.331 90.5885 203.818 89.6405 203.928 88.8051C204.031 88.0215 204.644 87.6158 205.333 87.8451Z" fill="#FCFCFC"/>
<path d="M216.325 91.2345C216.37 91.2495 216.417 91.2674 216.463 91.2883C217.205 91.6223 217.717 92.5703 217.607 93.4057C217.505 94.1893 216.891 94.596 216.203 94.3667C216.158 94.3518 216.113 94.3338 216.066 94.3129C215.325 93.9779 214.812 93.0299 214.922 92.1945C215.025 91.412 215.638 91.0052 216.325 91.2345Z" fill="#FCFCFC"/>
<path d="M205.023 96.7173C205.069 96.7323 205.115 96.7502 205.161 96.7712C205.903 97.1051 206.416 98.0532 206.306 98.8886C206.203 99.6721 205.591 100.078 204.903 99.8496C204.858 99.8346 204.812 99.8167 204.766 99.7957C204.024 99.4618 203.511 98.5137 203.621 97.6783C203.723 96.8948 204.336 96.4891 205.023 96.7173Z" fill="#FCFCFC"/>
<path d="M216.12 100.506C216.165 100.521 216.211 100.538 216.258 100.559C216.999 100.893 217.512 101.841 217.402 102.677C217.299 103.46 216.686 103.867 215.998 103.638C215.952 103.623 215.907 103.605 215.861 103.584C215.119 103.249 214.607 102.301 214.717 101.466C214.819 100.683 215.433 100.277 216.12 100.506Z" fill="#FCFCFC"/>
</g>
<g clip-path="url(#clip1)">
<path d="M226.198 93.0534L223.888 92.2266C224.495 92.1441 225.071 92.1995 225.592 92.3686L228.052 93.2075C227.485 93.0232 226.858 92.9638 226.198 93.0534Z" fill="#9E7E31"/>
<path d="M228.052 93.2075L225.592 92.3687C225.609 92.3737 225.624 92.3797 225.641 92.3848L228.105 93.2247C228.087 93.2196 228.069 93.2136 228.052 93.2075Z" fill="#997A2F"/>
<path d="M200.531 128.585L198.462 127.043C197.546 126.36 196.964 125.231 196.968 123.882L198.906 125.145C198.903 126.614 199.535 127.842 200.531 128.585Z" fill="#856A29"/>
<path d="M203.554 96.127L201.244 95.3012L223.887 92.2267L226.198 93.0535L203.554 96.127Z" fill="#A78534"/>
<path d="M198.906 125.144L196.968 123.882L197.013 100.276L198.951 101.54L198.906 125.144Z" fill="#806628"/>
<path d="M198.951 101.54L197.013 100.276C197.014 99.4664 197.226 98.6789 197.593 97.978L199.583 99.0394C199.182 99.8028 198.953 100.659 198.951 101.54Z" fill="#856A29"/>
<path d="M199.582 99.0395L197.593 97.978C197.723 97.7303 197.872 97.4926 198.038 97.269L200.066 98.268C199.886 98.5118 199.723 98.7696 199.582 99.0395Z" fill="#8A6E2B"/>
<path d="M200.066 98.268L198.038 97.269C198.184 97.0726 198.344 96.8863 198.515 96.7121L200.585 97.6628C200.399 97.8511 200.226 98.0535 200.066 98.268Z" fill="#8F722C"/>
<path d="M200.586 97.6628L198.516 96.7121C198.687 96.5379 198.87 96.3758 199.063 96.2277L201.181 97.1351C200.971 97.2962 200.772 97.4725 200.586 97.6628Z" fill="#94762E"/>
<path d="M201.181 97.1361L199.063 96.2277C199.285 96.0585 199.518 95.9084 199.763 95.7795L201.942 96.6476C201.676 96.7886 201.422 96.9518 201.181 97.1361Z" fill="#997A2F"/>
<path d="M201.942 96.6487L199.763 95.7806C200.224 95.5379 200.723 95.3717 201.244 95.3012L203.554 96.128C202.987 96.2035 202.443 96.3848 201.942 96.6487Z" fill="#9E7E31"/>
<path d="M236.267 98.3434L226.198 93.0533C226.756 92.9778 227.29 93.009 227.786 93.1319L237.855 98.422C237.359 98.2991 236.825 98.2679 236.267 98.3434Z" fill="#A88634"/>
<path d="M237.854 98.422L227.786 93.1319C228.039 93.1953 228.282 93.2819 228.511 93.3907L238.58 98.6808C238.35 98.572 238.107 98.4844 237.854 98.422Z" fill="#A38233"/>
<path d="M238.58 98.6808L228.511 93.3907C228.558 93.4128 228.605 93.436 228.651 93.4602L238.72 98.7503C238.674 98.7271 238.627 98.7029 238.58 98.6808Z" fill="#9E7E31"/>
<path d="M238.575 99.9437L236.267 98.3435C236.784 98.273 237.281 98.2951 237.745 98.3968L239.934 99.993C239.507 99.8994 239.051 99.8792 238.575 99.9437Z" fill="#B38E37"/>
<path d="M239.934 99.992L237.745 98.3958C237.985 98.4482 238.216 98.5217 238.436 98.6154L240.57 100.193C240.366 100.109 240.155 100.04 239.934 99.992Z" fill="#AD8A36"/>
<path d="M240.568 100.194L238.435 98.6164C238.611 98.6909 238.78 98.7785 238.942 98.8782L241.034 100.435C240.886 100.344 240.731 100.263 240.568 100.194Z" fill="#A88634"/>
<path d="M241.035 100.435L238.942 98.8782C239.039 98.9376 239.133 99.001 239.224 99.0695L241.293 100.611C241.21 100.548 241.123 100.489 241.035 100.435Z" fill="#A38233"/>
<path d="M211.105 134.193L201.036 128.903C199.752 128.228 198.902 126.848 198.905 125.144L208.974 130.434C208.971 132.138 209.822 133.518 211.105 134.193Z" fill="#856A29"/>
<path d="M214.116 135.268L211.652 134.428C210.068 133.889 208.971 132.371 208.974 130.435L211.654 131.599C211.651 133.377 212.661 134.772 214.116 135.268Z" fill="#856A29"/>
<path d="M213.622 101.417L203.554 96.127L226.198 93.0535L236.267 98.3436L213.622 101.417Z" fill="#B48F38"/>
<path d="M208.974 130.434L198.906 125.144L198.951 101.54L209.02 106.83L208.974 130.434Z" fill="#826828"/>
<path d="M209.02 106.83L198.951 101.54C198.952 100.889 199.078 100.252 199.304 99.6557L209.373 104.946C209.147 105.541 209.021 106.178 209.02 106.83Z" fill="#856A29"/>
<path d="M209.374 104.945L199.306 99.6547C199.404 99.3979 199.52 99.1481 199.654 98.9084L209.723 104.199C209.588 104.438 209.472 104.688 209.374 104.945Z" fill="#8A6E2B"/>
<path d="M209.722 104.199L199.653 98.9085C199.765 98.7051 199.89 98.5097 200.027 98.3224L210.096 103.612C209.96 103.8 209.834 103.995 209.722 104.199Z" fill="#8F722C"/>
<path d="M210.096 103.611L200.027 98.3214C200.155 98.1441 200.294 97.9749 200.441 97.8148L210.51 103.105C210.363 103.266 210.224 103.435 210.096 103.611Z" fill="#94762E"/>
<path d="M210.51 103.105L200.441 97.8148C200.589 97.6537 200.745 97.5006 200.91 97.3576L210.979 102.648C210.814 102.791 210.657 102.944 210.51 103.105Z" fill="#997A2F"/>
<path d="M210.978 102.648L200.91 97.3576C201.086 97.2045 201.272 97.0625 201.466 96.9326L211.535 102.223C211.341 102.352 211.155 102.494 210.978 102.648Z" fill="#9E7E31"/>
<path d="M211.534 102.223L201.466 96.9326C201.703 96.7735 201.953 96.6345 202.212 96.5167L212.281 101.807C212.02 101.925 211.771 102.065 211.534 102.223Z" fill="#A38233"/>
<path d="M212.28 101.807L202.211 96.5167C202.636 96.3243 203.087 96.1904 203.554 96.127L213.623 101.417C213.156 101.48 212.705 101.614 212.28 101.807Z" fill="#A88634"/>
<path d="M215.932 103.017L213.622 101.417L236.267 98.3435L238.575 99.9437L215.932 103.017Z" fill="#C19A3C"/>
<path d="M211.655 131.598L208.974 130.434L209.02 106.83L211.7 107.992L211.655 131.598Z" fill="#866B2A"/>
<path d="M238.575 99.9437C240.908 99.6265 242.794 101.343 242.79 103.773L242.744 127.378C242.74 129.809 240.845 132.037 238.513 132.353L215.869 135.426C213.538 135.743 211.65 134.029 211.655 131.598L211.7 107.992C211.705 105.562 213.6 103.333 215.932 103.017L238.575 99.9437Z" fill="#DFB145"/>
<path d="M211.7 107.992L209.02 106.829C209.021 106.392 209.077 105.961 209.183 105.545L211.851 106.812C211.754 107.196 211.7 107.591 211.7 107.992Z" fill="#856A29"/>
<path d="M211.85 106.813L209.183 105.546C209.247 105.294 209.329 105.049 209.427 104.809L212.075 106.135C211.985 106.355 211.909 106.581 211.85 106.813Z" fill="#8A6E2B"/>
<path d="M212.075 106.135L209.427 104.809C209.509 104.611 209.601 104.418 209.704 104.231L212.329 105.604C212.234 105.776 212.15 105.953 212.075 106.135Z" fill="#8F722C"/>
<path d="M212.329 105.603L209.704 104.23C209.797 104.06 209.899 103.894 210.008 103.735L212.609 105.148C212.508 105.296 212.415 105.447 212.329 105.603Z" fill="#94762E"/>
<path d="M212.608 105.149L210.008 103.736C210.113 103.582 210.227 103.433 210.347 103.291L212.92 104.74C212.81 104.871 212.705 105.008 212.608 105.149Z" fill="#997A2F"/>
<path d="M212.919 104.74L210.346 103.291C210.466 103.148 210.593 103.011 210.725 102.88L213.269 104.363C213.147 104.483 213.03 104.608 212.919 104.74Z" fill="#9E7E31"/>
<path d="M213.268 104.363L210.725 102.88C210.864 102.744 211.009 102.616 211.16 102.496L213.668 104.009C213.529 104.12 213.396 104.238 213.268 104.363Z" fill="#A38233"/>
<path d="M213.668 104.009L211.16 102.496C211.328 102.362 211.504 102.238 211.686 102.124L214.151 103.667C213.984 103.772 213.823 103.885 213.668 104.009Z" fill="#A88634"/>
<path d="M214.152 103.668L211.687 102.125C211.914 101.984 212.153 101.86 212.398 101.755L214.805 103.328C214.579 103.424 214.361 103.538 214.152 103.668Z" fill="#AD8A36"/>
<path d="M214.806 103.328L212.398 101.755C212.788 101.59 213.199 101.474 213.623 101.417L215.932 103.017C215.542 103.071 215.164 103.176 214.806 103.328Z" fill="#B38E37"/>
<path d="M213.822 96.7101C214.715 96.6205 215.764 96.693 216.167 96.8732C216.57 97.0525 216.173 97.27 215.281 97.3596C214.388 97.4493 213.339 97.3768 212.937 97.1965C212.534 97.0172 212.931 96.7997 213.822 96.7101Z" fill="#AAAAAA"/>
<path d="M224.371 95.6517C225.263 95.562 226.312 95.6346 226.716 95.8148C227.118 95.9941 226.721 96.2116 225.83 96.3012C224.937 96.3909 223.888 96.3184 223.485 96.1381C223.082 95.9588 223.479 95.7413 224.371 95.6517Z" fill="#AAAAAA"/>
<path d="M199.97 111.542C200.455 111.502 200.782 110.706 200.699 109.764C200.616 108.822 200.155 108.09 199.67 108.13C199.184 108.17 198.858 108.966 198.941 109.908C199.024 110.85 199.485 111.582 199.97 111.542Z" fill="#868686"/>
<path d="M205.685 110.198C206.177 110.37 206.553 111.262 206.525 112.189C206.496 113.115 206.075 113.727 205.583 113.555C205.091 113.383 204.716 112.491 204.744 111.564C204.772 110.637 205.193 110.025 205.685 110.198Z" fill="#868686"/>
<path d="M199.971 120.555C200.456 120.515 200.782 119.719 200.699 118.777C200.617 117.835 200.156 117.103 199.67 117.143C199.185 117.183 198.859 117.979 198.942 118.921C199.025 119.863 199.485 120.595 199.971 120.555Z" fill="#868686"/>
<path d="M205.685 119.211C206.178 119.383 206.553 120.275 206.525 121.202C206.497 122.129 206.075 122.741 205.583 122.568C205.091 122.396 204.716 121.505 204.744 120.577C204.772 119.65 205.193 119.038 205.685 119.211Z" fill="#868686"/>
<path d="M223.022 108.173C223.904 108.058 224.589 108.682 224.554 109.566C224.52 110.452 223.778 111.263 222.896 111.378C222.014 111.494 221.328 110.869 221.363 109.984C221.398 109.099 222.141 108.288 223.022 108.173Z" fill="#D7D7D7"/>
<path d="M233.439 106.809C234.32 106.693 235.006 107.317 234.972 108.202C234.937 109.088 234.194 109.899 233.313 110.013C232.431 110.129 231.746 109.505 231.78 108.62C231.816 107.735 232.557 106.925 233.439 106.809Z" fill="#D7D7D7"/>
<path d="M224.144 119.657C224.736 118.903 224.685 117.904 224.031 117.426C223.377 116.947 222.368 117.169 221.776 117.922C221.185 118.676 221.235 119.675 221.889 120.154C222.543 120.633 223.552 120.41 224.144 119.657Z" fill="#D7D7D7"/>
<path d="M234.562 118.293C235.154 117.539 235.103 116.54 234.449 116.062C233.795 115.583 232.786 115.805 232.194 116.558C231.603 117.312 231.653 118.311 232.307 118.79C232.961 119.269 233.97 119.046 234.562 118.293Z" fill="#D7D7D7"/>
<path d="M224.145 128.671C224.736 127.917 224.686 126.918 224.032 126.439C223.378 125.96 222.369 126.183 221.777 126.936C221.185 127.69 221.236 128.689 221.89 129.168C222.544 129.646 223.553 129.424 224.145 128.671Z" fill="#D7D7D7"/>
<path d="M234.562 127.306C235.154 126.553 235.103 125.554 234.449 125.075C233.795 124.596 232.786 124.818 232.194 125.572C231.603 126.325 231.653 127.324 232.307 127.803C232.961 128.282 233.97 128.059 234.562 127.306Z" fill="#D7D7D7"/>
</g>
<g filter="url(#filter0_dii)">
<rect width="88.0818" height="183.883" rx="2" transform="matrix(0.866044 -0.499967 0.866044 0.499967 6 152.988)" fill="#E5E5E5"/>
</g>
<rect width="80.7541" height="174.859" rx="2" transform="matrix(0.866044 -0.499967 0.866044 0.499967 14.1111 151.752)" fill="#FDD063"/>
<g clip-path="url(#clip2)">
<path d="M134.846 179.668C138.583 177.511 137.66 173.48 132.785 170.666C127.91 167.851 120.928 167.319 117.191 169.476C113.454 171.633 114.377 175.664 119.252 178.478C124.128 181.293 131.109 181.826 134.846 179.668Z" stroke="white" stroke-width="2" stroke-linecap="round" stroke-linejoin="round"/>
<path d="M134.722 179.596C138.389 177.479 137.466 173.513 132.66 170.738C127.853 167.963 120.983 167.43 117.315 169.548C113.648 171.665 114.571 175.631 119.377 178.406C124.184 181.181 131.054 181.714 134.722 179.596Z" fill="#FECB4F"/>
<path d="M132.715 181.042C128.909 183.24 121.816 182.707 116.872 179.853C111.928 176.999 111.006 172.904 114.812 170.707L117.067 169.405L117.316 169.548L116.681 169.915C120.652 168.715 126.436 169.46 130.655 171.896C134.874 174.332 136.164 177.671 134.087 179.964L134.722 179.597L134.971 179.74L132.715 181.042Z" fill="white"/>
<path d="M131.159 180.361C134.377 178.503 133.59 175.037 129.402 172.619C125.213 170.201 119.209 169.747 115.991 171.604C112.773 173.462 113.56 176.928 117.748 179.346C121.937 181.764 127.941 182.219 131.159 180.361Z" fill="#FECB4F"/>
<path d="M128.837 176.96C128.869 176.941 128.864 176.902 128.825 176.872L123.643 172.764C123.604 172.735 123.549 172.726 123.516 172.745L122.7 173.232C122.668 173.252 122.673 173.291 122.712 173.32L126.94 176.488L121.299 174.164C121.246 174.143 121.178 174.141 121.146 174.161L120.124 174.771C120.092 174.79 120.096 174.829 120.136 174.859L124.316 177.97L118.755 175.683C118.702 175.662 118.634 175.66 118.602 175.68L117.721 176.205C117.696 176.221 117.707 176.256 117.759 176.278L125.023 179.143C125.075 179.165 125.143 179.166 125.176 179.147L126.274 178.491C126.306 178.471 126.302 178.432 126.262 178.402L122.489 175.555L127.617 177.593C127.669 177.615 127.738 177.616 127.77 177.597L128.837 176.96Z" fill="white"/>
</g>
<path d="M133.682 101.895C133.682 106.817 144.921 110.808 158.785 110.808C172.648 110.808 183.887 106.817 183.887 101.895C183.887 96.9732 172.648 92.983 158.785 92.983C144.921 92.983 133.682 96.9731 133.682 101.895Z" stroke="white" stroke-width="2" stroke-linecap="round" stroke-linejoin="round"/>
<path d="M134.036 101.896C134.036 106.727 145.116 110.644 158.785 110.644C172.453 110.644 183.533 106.727 183.533 101.896C183.533 97.0652 172.453 93.1488 158.785 93.1488C145.116 93.1488 134.036 97.0652 134.036 101.896Z" fill="#FECB4F"/>
<path d="M133.327 98.9269C133.327 93.9136 144.724 89.8494 158.783 89.8494C172.843 89.8494 184.239 93.9136 184.239 98.9269L184.239 101.898L183.532 101.898L183.532 101.061C180.84 105.045 170.781 108.004 158.783 108.004C146.785 108.004 136.726 105.044 134.034 101.06L134.034 101.898L133.327 101.898L133.327 98.9269Z" fill="white"/>
<path d="M137.219 98.6794C137.219 102.918 146.874 106.354 158.785 106.354C170.697 106.354 180.352 102.918 180.352 98.6794C180.352 94.441 170.697 91.005 158.785 91.005C146.874 91.005 137.219 94.441 137.219 98.6794Z" fill="#FECB4F"/>
<path d="M148.896 101.029C148.897 101.072 149.001 101.114 149.129 101.122L166.614 102.396C166.743 102.403 166.844 102.377 166.842 102.334L166.803 101.241C166.801 101.197 166.697 101.155 166.569 101.148L152.757 100.319L166.5 99.2542C166.628 99.2446 166.728 99.2007 166.727 99.1577L166.677 97.7891C166.675 97.746 166.572 97.7039 166.443 97.6962L152.837 96.9003L166.376 95.8458C166.504 95.8362 166.604 95.7924 166.603 95.7493L166.56 94.5702C166.558 94.5357 166.455 94.5022 166.327 94.5118L148.944 96.0273C148.816 96.0369 148.715 96.0808 148.717 96.1238L148.77 97.5956C148.772 97.6386 148.876 97.6807 149.004 97.6885L161.382 98.4512L149.071 99.5038C148.943 99.5134 148.842 99.5573 148.844 99.6004L148.896 101.029Z" fill="white"/>
<path d="M133.682 96.6143C133.682 101.537 144.921 105.527 158.785 105.527C172.648 105.527 183.887 101.537 183.887 96.6143C183.887 91.6921 172.648 87.7019 158.785 87.7019C144.921 87.7019 133.682 91.6921 133.682 96.6143Z" stroke="white" stroke-width="2" stroke-linecap="round" stroke-linejoin="round"/>
<path d="M134.036 96.6148C134.036 101.446 145.116 105.362 158.785 105.362C172.453 105.362 183.533 101.446 183.533 96.6148C183.533 91.7838 172.453 87.8676 158.785 87.8676C145.116 87.8676 134.036 91.7838 134.036 96.6148Z" fill="#FECB4F"/>
<path d="M133.327 93.6453C133.327 88.632 144.724 84.5677 158.783 84.5677C172.843 84.5677 184.239 88.632 184.239 93.6453L184.239 96.6161L183.532 96.6161L183.532 95.7795C180.84 99.7633 170.781 102.723 158.783 102.723C146.785 102.723 136.726 99.7626 134.034 95.7788L134.034 96.6161L133.327 96.6161L133.327 93.6453Z" fill="white"/>
<path d="M137.219 93.3981C137.219 97.6366 146.874 101.073 158.785 101.073C170.697 101.073 180.352 97.6366 180.352 93.3981C180.352 89.1596 170.697 85.7236 158.785 85.7236C146.874 85.7236 137.219 89.1596 137.219 93.3981Z" fill="#FECB4F"/>
<path d="M148.896 95.7479C148.897 95.791 149.001 95.8331 149.129 95.8409L166.614 97.1145C166.743 97.1221 166.844 97.0962 166.842 97.0524L166.803 95.9593C166.801 95.9162 166.697 95.8741 166.569 95.8664L152.757 95.0376L166.5 93.973C166.628 93.9634 166.728 93.9195 166.727 93.8764L166.677 92.5078C166.675 92.4647 166.572 92.4226 166.443 92.4149L152.837 91.619L166.376 90.5645C166.504 90.5549 166.604 90.5111 166.603 90.468L166.56 89.2889C166.558 89.2544 166.455 89.2209 166.327 89.2305L148.944 90.746C148.816 90.7556 148.715 90.7995 148.717 90.8425L148.77 92.3143C148.772 92.3574 148.876 92.3995 149.004 92.4072L161.382 93.1699L149.071 94.2226C148.943 94.2322 148.842 94.276 148.844 94.3191L148.896 95.7479Z" fill="white"/>
<path d="M133.682 91.3334C133.682 96.2557 144.921 100.246 158.785 100.246C172.648 100.246 183.887 96.2557 183.887 91.3334C183.887 86.4111 172.648 82.4208 158.785 82.4208C144.921 82.4208 133.682 86.4111 133.682 91.3334Z" stroke="white" stroke-width="2" stroke-linecap="round" stroke-linejoin="round"/>
<path d="M134.036 91.3328C134.036 96.1638 145.116 100.08 158.785 100.08C172.453 100.08 183.533 96.1638 183.533 91.3328C183.533 86.5018 172.453 82.5855 158.785 82.5855C145.116 82.5855 134.036 86.5018 134.036 91.3328Z" fill="#FECB4F"/>
<path d="M133.327 88.3643C133.327 83.3512 144.724 79.287 158.783 79.287C172.843 79.287 184.239 83.3512 184.239 88.3643L184.239 91.3351L183.532 91.3351L183.532 90.4985C180.84 94.4821 170.781 97.4416 158.783 97.4416C146.785 97.4416 136.726 94.4814 134.034 90.4978L134.034 91.3351L133.327 91.3351L133.327 88.3643Z" fill="white"/>
<path d="M137.219 88.1164C137.219 92.3549 146.874 95.7908 158.785 95.7908C170.697 95.7908 180.352 92.3549 180.352 88.1164C180.352 83.8779 170.697 80.4419 158.785 80.4419C146.874 80.4419 137.219 83.8779 137.219 88.1164Z" fill="#FECB4F"/>
<path d="M148.896 90.4667C148.897 90.5098 149.001 90.5519 149.129 90.5596L166.614 91.8332C166.743 91.8408 166.844 91.8149 166.842 91.7712L166.803 90.6781C166.801 90.635 166.697 90.5929 166.569 90.5851L152.757 89.7564L166.5 88.6917C166.628 88.6821 166.728 88.6382 166.727 88.5951L166.677 87.2266C166.675 87.1835 166.572 87.1414 166.443 87.1337L152.837 86.3377L166.376 85.2833C166.504 85.2737 166.604 85.2298 166.603 85.1867L166.56 84.0076C166.558 83.9731 166.455 83.9396 166.327 83.9492L148.944 85.4647C148.816 85.4743 148.715 85.5182 148.717 85.5613L148.77 87.033C148.772 87.0761 148.876 87.1182 149.004 87.1259L161.382 87.8887L149.071 88.9413C148.943 88.9509 148.842 88.9948 148.844 89.0379L148.896 90.4667Z" fill="white"/>
<path d="M133.682 86.0519C133.682 90.9742 144.921 94.9644 158.785 94.9644C172.648 94.9644 183.887 90.9742 183.887 86.0519C183.887 81.1297 172.648 77.1395 158.785 77.1395C144.921 77.1395 133.682 81.1297 133.682 86.0519Z" stroke="white" stroke-width="2" stroke-linecap="round" stroke-linejoin="round"/>
<path d="M134.036 86.0529C134.036 90.884 145.116 94.8003 158.785 94.8003C172.453 94.8003 183.533 90.884 183.533 86.0529C183.533 81.2219 172.453 77.3055 158.785 77.3055C145.116 77.3055 134.036 81.2219 134.036 86.0529Z" fill="#FECB4F"/>
<path d="M133.327 83.0827C133.327 78.0695 144.724 74.0052 158.783 74.0052C172.843 74.0052 184.239 78.0695 184.239 83.0827L184.239 86.0535L183.532 86.0535L183.532 85.217C180.84 89.2007 170.781 92.1602 158.783 92.1602C146.785 92.1602 136.726 89.1999 134.034 85.2162L134.034 86.0535L133.327 86.0535L133.327 83.0827Z" fill="white"/>
<path d="M137.219 82.8352C137.219 87.0737 146.874 90.5097 158.785 90.5097C170.697 90.5097 180.352 87.0737 180.352 82.8352C180.352 78.5967 170.697 75.1608 158.785 75.1608C146.874 75.1608 137.219 78.5967 137.219 82.8352Z" fill="#FECB4F"/>
<path d="M148.896 85.185C148.897 85.2281 149.001 85.2702 149.129 85.2779L166.614 86.5515C166.743 86.5591 166.844 86.5332 166.842 86.4894L166.803 85.3964C166.801 85.3533 166.697 85.3112 166.569 85.3035L152.757 84.4747L166.5 83.4101C166.628 83.4005 166.728 83.3566 166.727 83.3136L166.677 81.945C166.675 81.902 166.572 81.8599 166.443 81.8521L152.837 81.0563L166.376 80.0019C166.504 79.9923 166.604 79.9484 166.603 79.9053L166.56 78.7262C166.558 78.6918 166.455 78.6582 166.327 78.6678L148.944 80.1833C148.816 80.1929 148.715 80.2368 148.717 80.2798L148.77 81.7515C148.772 81.7946 148.876 81.8367 149.004 81.8444L161.382 82.6071L149.071 83.6597C148.943 83.6693 148.842 83.7132 148.844 83.7563L148.896 85.185Z" fill="white"/>
<path d="M133.682 80.7704C133.682 85.6926 144.921 89.6827 158.785 89.6827C172.648 89.6827 183.887 85.6926 183.887 80.7704C183.887 75.8483 172.648 71.8581 158.785 71.8581C144.921 71.8581 133.682 75.8483 133.682 80.7704Z" stroke="white" stroke-width="2" stroke-linecap="round" stroke-linejoin="round"/>
<path d="M134.036 80.7701C134.036 85.6011 145.116 89.5174 158.785 89.5175C172.453 89.5175 183.533 85.6011 183.533 80.7701C183.533 75.9391 172.453 72.0228 158.785 72.0228C145.116 72.0228 134.036 75.9391 134.036 80.7701Z" fill="#FECB4F"/>
<path d="M133.327 77.8014C133.327 72.7883 144.724 68.7242 158.783 68.7242C172.843 68.7242 184.239 72.7883 184.239 77.8014L184.239 80.7722L183.532 80.7722L183.532 79.9356C180.84 83.9192 170.781 86.8787 158.783 86.8787C146.785 86.8787 136.726 83.9184 134.034 79.9349L134.034 80.7722L133.327 80.7722L133.327 77.8014Z" fill="white"/>
<path d="M137.219 77.5539C137.219 81.7924 146.874 85.2283 158.785 85.2283C170.697 85.2283 180.352 81.7924 180.352 77.5539C180.352 73.3154 170.697 69.8795 158.785 69.8795C146.874 69.8795 137.219 73.3154 137.219 77.5539Z" fill="#FECB4F"/>
<path d="M148.896 79.9038C148.897 79.9468 149.001 79.9889 149.129 79.9967L166.614 81.2703C166.743 81.2778 166.844 81.2519 166.842 81.2082L166.803 80.1151C166.801 80.072 166.697 80.0299 166.569 80.0222L152.757 79.1934L166.5 78.1288C166.628 78.1192 166.728 78.0753 166.727 78.0323L166.677 76.6637C166.675 76.6206 166.572 76.5785 166.443 76.5708L152.837 75.7749L166.376 74.7205C166.504 74.7109 166.604 74.667 166.603 74.6239L166.56 73.4449C166.558 73.4104 166.455 73.3769 166.327 73.3865L148.944 74.9019C148.816 74.9115 148.715 74.9554 148.717 74.9985L148.77 76.4702C148.772 76.5133 148.876 76.5554 149.004 76.5631L161.382 77.3258L149.071 78.3784C148.943 78.388 148.842 78.4319 148.844 78.475L148.896 79.9038Z" fill="white"/>
<path d="M133.682 75.489C133.682 80.4111 144.921 84.4012 158.785 84.4012C172.648 84.4012 183.887 80.4111 183.887 75.489C183.887 70.567 172.648 66.5768 158.785 66.5768C144.921 66.5768 133.682 70.567 133.682 75.489Z" stroke="white" stroke-width="2" stroke-linecap="round" stroke-linejoin="round"/>
<path d="M134.036 75.4893C134.036 80.3202 145.116 84.2364 158.785 84.2364C172.453 84.2364 183.533 80.3202 183.533 75.4893C183.533 70.6584 172.453 66.7422 158.785 66.7422C145.116 66.7422 134.036 70.6584 134.036 75.4893Z" fill="#FECB4F"/>
<path d="M133.327 72.52C133.327 67.5068 144.724 63.4427 158.783 63.4427C172.843 63.4427 184.239 67.5068 184.239 72.52L184.239 75.4907L183.532 75.4907L183.532 74.6542C180.84 78.6378 170.781 81.5973 158.783 81.5973C146.785 81.5973 136.726 78.6371 134.034 74.6534L134.034 75.4907L133.327 75.4907L133.327 72.52Z" fill="white"/>
<path d="M137.219 72.2724C137.219 76.511 146.874 79.947 158.785 79.947C170.697 79.947 180.352 76.511 180.352 72.2724C180.352 68.0339 170.697 64.5979 158.785 64.5979C146.874 64.5979 137.219 68.0339 137.219 72.2724Z" fill="#FECB4F"/>
<path d="M148.896 74.6223C148.897 74.6654 149.001 74.7075 149.129 74.7153L166.614 75.9889C166.743 75.9965 166.844 75.9706 166.842 75.9268L166.803 74.8337C166.801 74.7906 166.697 74.7485 166.569 74.7408L152.757 73.912L166.5 72.8474C166.628 72.8378 166.728 72.7939 166.727 72.7508L166.677 71.3822C166.675 71.3392 166.572 71.2971 166.443 71.2893L152.837 70.4934L166.376 69.439C166.504 69.4294 166.604 69.3855 166.603 69.3424L166.56 68.1633C166.558 68.1288 166.455 68.0953 166.327 68.1049L148.944 69.6204C148.816 69.63 148.715 69.6739 148.717 69.717L148.77 71.1887C148.772 71.2318 148.876 71.2739 149.004 71.2816L161.382 72.0444L149.071 73.097C148.943 73.1066 148.842 73.1505 148.844 73.1935L148.896 74.6223Z" fill="white"/>
<path d="M133.682 70.2075C133.682 75.1296 144.921 79.1197 158.785 79.1197C172.648 79.1197 183.887 75.1296 183.887 70.2075C183.887 65.2855 172.648 61.2953 158.785 61.2953C144.921 61.2953 133.682 65.2855 133.682 70.2075Z" stroke="white" stroke-width="2" stroke-linecap="round" stroke-linejoin="round"/>
<path d="M134.036 70.2073C134.036 75.0382 145.116 78.9545 158.785 78.9545C172.453 78.9545 183.533 75.0382 183.533 70.2073C183.533 65.3763 172.453 61.46 158.785 61.46C145.116 61.46 134.036 65.3763 134.036 70.2073Z" fill="#FECB4F"/>
<path d="M133.327 67.2385C133.327 62.2253 144.724 58.1611 158.783 58.1611C172.843 58.1611 184.239 62.2253 184.239 67.2385L184.239 70.2092L183.532 70.2092L183.532 69.3727C180.84 73.3563 170.781 76.3159 158.783 76.3159C146.785 76.3159 136.726 73.3556 134.034 69.3719L134.034 70.2092L133.327 70.2092L133.327 67.2385Z" fill="white"/>
<path d="M137.219 66.9911C137.219 71.2296 146.874 74.6656 158.785 74.6656C170.697 74.6656 180.352 71.2296 180.352 66.9911C180.352 62.7525 170.697 59.3165 158.785 59.3165C146.874 59.3165 137.219 62.7525 137.219 66.9911Z" fill="#FECB4F"/>
<path d="M148.896 69.341C148.897 69.3841 149.001 69.4262 149.129 69.434L166.614 70.7076C166.743 70.7151 166.844 70.6892 166.842 70.6455L166.803 69.5524C166.801 69.5093 166.697 69.4672 166.569 69.4595L152.757 68.6307L166.5 67.5661C166.628 67.5565 166.728 67.5126 166.727 67.4695L166.677 66.101C166.675 66.0579 166.572 66.0158 166.443 66.0081L152.837 65.2121L166.376 64.1577C166.504 64.1481 166.604 64.1042 166.603 64.0612L166.56 62.8821C166.558 62.8476 166.455 62.8141 166.327 62.8237L148.944 64.3392C148.816 64.3487 148.715 64.3926 148.717 64.4357L148.77 65.9074C148.772 65.9505 148.876 65.9926 149.004 66.0003L161.382 66.7631L149.071 67.8157C148.943 67.8253 148.842 67.8692 148.844 67.9122L148.896 69.341Z" fill="white"/>
<path d="M133.682 64.9252C133.682 69.8473 144.921 73.8374 158.785 73.8374C172.648 73.8374 183.887 69.8473 183.887 64.9252C183.887 60.0031 172.648 56.013 158.785 56.013C144.921 56.013 133.682 60.0031 133.682 64.9252Z" stroke="white" stroke-width="2" stroke-linecap="round" stroke-linejoin="round"/>
<path d="M134.036 64.9257C134.036 69.7566 145.116 73.6729 158.785 73.6729C172.453 73.6729 183.533 69.7566 183.533 64.9257C183.533 60.0947 172.453 56.1784 158.785 56.1784C145.116 56.1784 134.036 60.0947 134.036 64.9257Z" fill="#FECB4F"/>
<path d="M133.327 61.957C133.327 56.9438 144.724 52.8796 158.783 52.8796C172.843 52.8796 184.239 56.9438 184.239 61.957L184.239 64.9278L183.532 64.9278L183.532 64.0912C180.84 68.0748 170.781 71.0344 158.783 71.0344C146.785 71.0344 136.726 68.0741 134.034 64.0904L134.034 64.9278L133.327 64.9278L133.327 61.957Z" fill="white"/>
<path d="M137.219 61.7095C137.219 65.9481 146.874 69.3841 158.785 69.3841C170.697 69.3841 180.352 65.9481 180.352 61.7095C180.352 57.471 170.697 54.035 158.785 54.035C146.874 54.035 137.219 57.471 137.219 61.7095Z" fill="#FECB4F"/>
<path d="M148.896 64.0595C148.897 64.1026 149.001 64.1447 149.129 64.1524L166.614 65.426C166.743 65.4336 166.844 65.4077 166.842 65.364L166.803 64.2709C166.801 64.2278 166.697 64.1857 166.569 64.178L152.757 63.3492L166.5 62.2846C166.628 62.275 166.728 62.2311 166.727 62.188L166.677 60.8195C166.675 60.7764 166.572 60.7343 166.443 60.7266L152.837 59.9307L166.376 58.8763C166.504 58.8667 166.604 58.8228 166.603 58.7798L166.56 57.6007C166.558 57.5662 166.455 57.5327 166.327 57.5423L148.944 59.0577C148.816 59.0673 148.715 59.1112 148.717 59.1543L148.77 60.626C148.772 60.6691 148.876 60.7112 149.004 60.7189L161.382 61.4816L149.071 62.5342C148.943 62.5438 148.842 62.5877 148.844 62.6308L148.896 64.0595Z" fill="white"/>
<path d="M133.682 59.6458C133.682 64.568 144.921 68.5582 158.785 68.5582C172.648 68.5582 183.887 64.568 183.887 59.6458C183.887 54.7236 172.648 50.7334 158.785 50.7334C144.921 50.7334 133.682 54.7236 133.682 59.6458Z" stroke="white" stroke-width="2" stroke-linecap="round" stroke-linejoin="round"/>
<path d="M134.036 59.6452C134.036 64.4763 145.116 68.3926 158.785 68.3926C172.453 68.3926 183.533 64.4763 183.533 59.6452C183.533 54.8142 172.453 50.8979 158.785 50.8979C145.116 50.8979 134.036 54.8142 134.036 59.6452Z" fill="#FECB4F"/>
<path d="M133.327 56.6758C133.327 51.6626 144.724 47.5984 158.783 47.5984C172.843 47.5984 184.239 51.6626 184.239 56.6758L184.239 59.6466L183.532 59.6466L183.532 58.8101C180.84 62.7937 170.781 65.7533 158.783 65.7533C146.785 65.7533 136.726 62.793 134.034 58.8093L134.034 59.6466L133.327 59.6466L133.327 56.6758Z" fill="white"/>
<path d="M137.219 56.4282C137.219 60.6667 146.874 64.1027 158.785 64.1027C170.697 64.1027 180.352 60.6667 180.352 56.4282C180.352 52.1897 170.697 48.7537 158.785 48.7537C146.874 48.7537 137.219 52.1897 137.219 56.4282Z" fill="#FECB4F"/>
<path d="M148.896 58.778C148.897 58.8211 149.001 58.8632 149.129 58.871L166.614 60.1446C166.743 60.1522 166.844 60.1263 166.842 60.0825L166.803 58.9894C166.801 58.9463 166.697 58.9042 166.569 58.8965L152.757 58.0677L166.5 57.0031C166.628 56.9935 166.728 56.9496 166.727 56.9065L166.677 55.5379C166.675 55.4949 166.572 55.4528 166.443 55.445L152.837 54.6491L166.376 53.5947C166.504 53.5851 166.604 53.5412 166.603 53.4981L166.56 52.319C166.558 52.2845 166.455 52.251 166.327 52.2606L148.944 53.7761C148.816 53.7857 148.715 53.8296 148.717 53.8727L148.77 55.3444C148.772 55.3875 148.876 55.4296 149.004 55.4373L161.382 56.2001L149.071 57.2527C148.943 57.2623 148.842 57.3062 148.844 57.3492L148.896 58.778Z" fill="white"/>
<path d="M133.682 54.3646C133.682 59.2868 144.921 63.277 158.785 63.277C172.648 63.277 183.887 59.2868 183.887 54.3646C183.887 49.4424 172.648 45.4522 158.785 45.4522C144.921 45.4522 133.682 49.4424 133.682 54.3646Z" stroke="white" stroke-width="2" stroke-linecap="round" stroke-linejoin="round"/>
<path d="M134.036 54.3634C134.036 59.1945 145.116 63.1108 158.785 63.1108C172.453 63.1108 183.533 59.1945 183.533 54.3634C183.533 49.5324 172.453 45.6161 158.785 45.6161C145.116 45.6161 134.036 49.5324 134.036 54.3634Z" fill="#FECB4F"/>
<path d="M133.327 51.3944C133.327 46.3812 144.724 42.317 158.783 42.317C172.843 42.317 184.239 46.3812 184.239 51.3944L184.239 54.3652L183.532 54.3652L183.532 53.5286C180.84 57.5123 170.781 60.4718 158.783 60.4718C146.785 60.4718 136.726 57.5115 134.034 53.5279L134.034 54.3652L133.327 54.3652L133.327 51.3944Z" fill="white"/>
<path d="M137.219 51.1469C137.219 55.3855 146.874 58.8215 158.785 58.8215C170.697 58.8215 180.352 55.3855 180.352 51.1469C180.352 46.9084 170.697 43.4724 158.785 43.4724C146.874 43.4723 137.219 46.9084 137.219 51.1469Z" fill="#FECB4F"/>
<path d="M148.896 53.4967C148.897 53.5398 149.001 53.5819 149.129 53.5897L166.614 54.8633C166.743 54.8708 166.844 54.8449 166.842 54.8012L166.803 53.7081C166.801 53.665 166.697 53.6229 166.569 53.6152L152.757 52.7864L166.5 51.7218C166.628 51.7122 166.728 51.6683 166.727 51.6252L166.677 50.2567C166.675 50.2136 166.572 50.1715 166.443 50.1638L152.837 49.3678L166.376 48.3134C166.504 48.3038 166.604 48.2599 166.603 48.2169L166.56 47.0378C166.558 47.0033 166.455 46.9698 166.327 46.9794L148.944 48.4949C148.816 48.5045 148.715 48.5483 148.717 48.5914L148.77 50.0631C148.772 50.1062 148.876 50.1483 149.004 50.156L161.382 50.9188L149.071 51.9714C148.943 51.981 148.842 52.0249 148.844 52.0679L148.896 53.4967Z" fill="white"/>
<path d="M133.682 49.0814C133.682 54.0036 144.921 57.9938 158.785 57.9938C172.648 57.9938 183.887 54.0036 183.887 49.0814C183.887 44.1592 172.648 40.169 158.785 40.169C144.921 40.169 133.682 44.1592 133.682 49.0814Z" stroke="white" stroke-width="2" stroke-linecap="round" stroke-linejoin="round"/>
<path d="M134.036 49.0817C134.036 53.9127 145.116 57.829 158.785 57.829C172.453 57.829 183.533 53.9127 183.533 49.0817C183.533 44.2507 172.453 40.3343 158.785 40.3343C145.116 40.3343 134.036 44.2507 134.036 49.0817Z" fill="#FECB4F"/>
<path d="M133.327 46.1131C133.327 41.0999 144.724 37.0357 158.783 37.0357C172.843 37.0357 184.239 41.0999 184.239 46.1131L184.239 49.0839L183.532 49.0839L183.532 48.2473C180.84 52.231 170.781 55.1905 158.783 55.1905C146.785 55.1905 136.726 52.2303 134.034 48.2466L134.034 49.0839L133.327 49.0839L133.327 46.1131Z" fill="white"/>
<path d="M137.219 45.8655C137.219 50.1041 146.874 53.5401 158.785 53.5401C170.697 53.5401 180.352 50.1041 180.352 45.8655C180.352 41.6269 170.697 38.1909 158.785 38.1909C146.874 38.1909 137.219 41.6269 137.219 45.8655Z" fill="#FECB4F"/>
<path d="M148.896 48.2152C148.897 48.2583 149.001 48.3004 149.129 48.3081L166.614 49.5817C166.743 49.5893 166.844 49.5634 166.842 49.5197L166.803 48.4266C166.801 48.3835 166.697 48.3414 166.569 48.3337L152.757 47.5049L166.5 46.4403C166.628 46.4307 166.728 46.3868 166.727 46.3437L166.677 44.9752C166.675 44.9321 166.572 44.89 166.443 44.8823L152.837 44.0864L166.376 43.032C166.504 43.0224 166.604 42.9785 166.603 42.9355L166.56 41.7564C166.558 41.7219 166.455 41.6884 166.327 41.698L148.944 43.2134C148.816 43.223 148.715 43.2669 148.717 43.31L148.77 44.7817C148.772 44.8248 148.876 44.8669 149.004 44.8746L161.382 45.6373L149.071 46.6899C148.943 46.6995 148.842 46.7434 148.844 46.7865L148.896 48.2152Z" fill="white"/>
<path d="M133.682 43.8007C133.682 48.7229 144.921 52.7131 158.785 52.7131C172.648 52.7131 183.887 48.7229 183.887 43.8007C183.887 38.8785 172.648 34.8882 158.785 34.8882C144.921 34.8882 133.682 38.8785 133.682 43.8007Z" stroke="white" stroke-width="2" stroke-linecap="round" stroke-linejoin="round"/>
<path d="M134.036 43.8003C134.036 48.6313 145.116 52.5477 158.785 52.5477C172.453 52.5477 183.533 48.6314 183.533 43.8003C183.533 38.9692 172.453 35.0528 158.785 35.0528C145.116 35.0528 134.036 38.9692 134.036 43.8003Z" fill="#FECB4F"/>
<path d="M133.327 40.8316C133.327 35.8184 144.724 31.7542 158.783 31.7542C172.843 31.7542 184.239 35.8184 184.239 40.8316L184.239 43.8024L183.532 43.8024L183.532 42.9658C180.84 46.9495 170.781 49.909 158.783 49.909C146.785 49.909 136.726 46.9487 134.034 42.9651L134.034 43.8024L133.327 43.8024L133.327 40.8316Z" fill="white"/>
<path d="M137.219 40.584C137.219 44.8225 146.874 48.2584 158.785 48.2584C170.697 48.2584 180.352 44.8225 180.352 40.584C180.352 36.3456 170.697 32.9097 158.785 32.9097C146.874 32.9097 137.219 36.3456 137.219 40.584Z" fill="#FECB4F"/>
<path d="M148.896 42.9339C148.897 42.977 149.001 43.0191 149.129 43.0268L166.614 44.3005C166.743 44.308 166.844 44.2821 166.842 44.2384L166.803 43.1453C166.801 43.1022 166.697 43.0601 166.569 43.0524L152.757 42.2236L166.5 41.159C166.628 41.1494 166.728 41.1055 166.727 41.0624L166.677 39.6938C166.675 39.6507 166.572 39.6086 166.443 39.6009L152.837 38.805L166.376 37.7506C166.504 37.741 166.604 37.6971 166.603 37.654L166.56 36.4749C166.558 36.4404 166.455 36.4069 166.327 36.4165L148.944 37.932C148.816 37.9416 148.715 37.9855 148.717 38.0286L148.77 39.5003C148.772 39.5434 148.876 39.5855 149.004 39.5932L161.382 40.3559L149.071 41.4086C148.943 41.4181 148.842 41.462 148.844 41.5051L148.896 42.9339Z" fill="white"/>
<path d="M133.682 38.5193C133.682 43.4414 144.921 47.4315 158.785 47.4315C172.648 47.4315 183.887 43.4414 183.887 38.5193C183.887 33.5972 172.648 29.6071 158.785 29.6071C144.921 29.6071 133.682 33.5972 133.682 38.5193Z" stroke="white" stroke-width="2" stroke-linecap="round" stroke-linejoin="round"/>
<path d="M134.036 38.5195C134.036 43.3505 145.116 47.2668 158.785 47.2668C172.453 47.2668 183.533 43.3505 183.533 38.5195C183.533 33.6885 172.453 29.7722 158.785 29.7722C145.116 29.7722 134.036 33.6885 134.036 38.5195Z" fill="#FECB4F"/>
<path d="M133.327 35.5501C133.327 30.537 144.724 26.4728 158.783 26.4728C172.843 26.4728 184.239 30.537 184.239 35.5501L184.239 38.5209L183.532 38.5209L183.532 37.6843C180.84 41.6679 170.781 44.6274 158.783 44.6274C146.785 44.6274 136.726 41.6672 134.034 37.6836L134.034 38.5209L133.327 38.5209L133.327 35.5501Z" fill="white"/>
<path d="M137.219 35.3027C137.219 39.5411 146.874 42.977 158.785 42.977C170.697 42.977 180.352 39.5411 180.352 35.3027C180.352 31.0643 170.697 27.6284 158.785 27.6284C146.874 27.6284 137.219 31.0643 137.219 35.3027Z" fill="#FECB4F"/>
<path d="M148.896 37.6526C148.897 37.6956 149.001 37.7377 149.129 37.7455L166.614 39.019C166.743 39.0266 166.844 39.0007 166.842 38.957L166.803 37.8639C166.801 37.8208 166.697 37.7787 166.569 37.771L152.757 36.9422L166.5 35.8777C166.628 35.8681 166.728 35.8242 166.727 35.7811L166.677 34.4126C166.675 34.3695 166.572 34.3274 166.443 34.3197L152.837 33.5238L166.376 32.4694C166.504 32.4598 166.604 32.4159 166.603 32.3728L166.56 31.1938C166.558 31.1593 166.455 31.1258 166.327 31.1354L148.944 32.6508C148.816 32.6604 148.715 32.7043 148.717 32.7474L148.77 34.219C148.772 34.2621 148.876 34.3042 149.004 34.312L161.382 35.0747L149.071 36.1272C148.943 36.1368 148.842 36.1807 148.844 36.2238L148.896 37.6526Z" fill="white"/>
<path d="M133.682 33.2368C133.682 38.1588 144.921 42.149 158.785 42.149C172.648 42.149 183.887 38.1588 183.887 33.2368C183.887 28.3147 172.648 24.3245 158.785 24.3245C144.921 24.3245 133.682 28.3147 133.682 33.2368Z" stroke="white" stroke-width="2" stroke-linecap="round" stroke-linejoin="round"/>
<path d="M134.036 33.2386C134.036 38.0696 145.116 41.9859 158.785 41.9859C172.453 41.9859 183.533 38.0696 183.533 33.2386C183.533 28.4077 172.453 24.4914 158.785 24.4914C145.116 24.4914 134.036 28.4077 134.036 33.2386Z" fill="#FECB4F"/>
<path d="M133.327 30.2688C133.327 25.2556 144.724 21.1915 158.783 21.1915C172.843 21.1915 184.239 25.2556 184.239 30.2688L184.239 33.2395L183.532 33.2395L183.532 32.4029C180.84 36.3866 170.781 39.3461 158.783 39.3461C146.785 39.3461 136.726 36.3858 134.034 32.4022L134.034 33.2395L133.327 33.2395L133.327 30.2688Z" fill="white"/>
<path d="M137.219 30.0211C137.219 34.2597 146.874 37.6957 158.785 37.6957C170.697 37.6957 180.352 34.2597 180.352 30.0211C180.352 25.7825 170.697 22.3465 158.785 22.3465C146.874 22.3465 137.219 25.7825 137.219 30.0211Z" fill="#FECB4F"/>
<path d="M148.896 32.3712C148.897 32.4143 149.001 32.4564 149.129 32.4641L166.614 33.7377C166.743 33.7453 166.844 33.7194 166.842 33.6757L166.803 32.5826C166.801 32.5395 166.697 32.4974 166.569 32.4897L152.757 31.6609L166.5 30.5963C166.628 30.5867 166.728 30.5428 166.727 30.4997L166.677 29.1312C166.675 29.0881 166.572 29.046 166.443 29.0382L152.837 28.2423L166.376 27.1879C166.504 27.1783 166.604 27.1344 166.603 27.0914L166.56 25.9123C166.558 25.8778 166.455 25.8443 166.327 25.8539L148.944 27.3694C148.816 27.379 148.715 27.4228 148.717 27.4659L148.77 28.9376C148.772 28.9807 148.876 29.0228 149.004 29.0305L161.382 29.7933L149.071 30.8459C148.943 30.8555 148.842 30.8993 148.844 30.9424L148.896 32.3712Z" fill="white"/>
<path d="M133.682 27.9566C133.682 32.8787 144.921 36.8689 158.785 36.8689C172.648 36.8689 183.887 32.8787 183.887 27.9566C183.887 23.0344 172.648 19.0442 158.785 19.0442C144.921 19.0442 133.682 23.0344 133.682 27.9566Z" stroke="white" stroke-width="2" stroke-linecap="round" stroke-linejoin="round"/>
<path d="M134.036 27.9567C134.036 32.7877 145.116 36.704 158.785 36.704C172.453 36.704 183.533 32.7877 183.533 27.9567C183.533 23.1257 172.453 19.2093 158.785 19.2093C145.116 19.2093 134.036 23.1257 134.036 27.9567Z" fill="#FECB4F"/>
<path d="M133.327 24.9875C133.327 19.9743 144.724 15.9101 158.783 15.9101C172.843 15.9101 184.239 19.9743 184.239 24.9875L184.239 27.9583L183.532 27.9583L183.532 27.1217C180.84 31.1053 170.781 34.0649 158.783 34.0649C146.785 34.0649 136.726 31.1046 134.034 27.121L134.034 27.9583L133.327 27.9583L133.327 24.9875Z" fill="white"/>
<path d="M137.219 24.7398C137.219 28.9784 146.874 32.4144 158.785 32.4144C170.697 32.4144 180.352 28.9784 180.352 24.7398C180.352 20.5013 170.697 17.0653 158.785 17.0653C146.874 17.0653 137.219 20.5013 137.219 24.7398Z" fill="#FECB4F"/>
<path d="M148.896 27.0899C148.897 27.133 149.001 27.1751 149.129 27.1828L166.614 28.4565C166.743 28.464 166.844 28.4381 166.842 28.3944L166.803 27.3012C166.801 27.2582 166.697 27.2161 166.569 27.2083L152.757 26.3795L166.5 25.3148C166.628 25.3052 166.728 25.2614 166.727 25.2183L166.677 23.8496C166.675 23.8066 166.572 23.7645 166.443 23.7567L152.837 22.9608L166.376 21.9063C166.504 21.8967 166.604 21.8528 166.603 21.8098L166.56 20.6306C166.558 20.5961 166.455 20.5626 166.327 20.5722L148.944 22.0878C148.816 22.0974 148.715 22.1412 148.717 22.1843L148.77 23.6561C148.772 23.6992 148.876 23.7413 149.004 23.749L161.382 24.5118L149.071 25.5644C148.943 25.574 148.842 25.6179 148.844 25.661L148.896 27.0899Z" fill="white"/>
<path d="M133.682 22.6751C133.682 27.5973 144.921 31.5875 158.785 31.5875C172.648 31.5875 183.887 27.5973 183.887 22.6751C183.887 17.7529 172.648 13.7627 158.785 13.7627C144.921 13.7627 133.682 17.7529 133.682 22.6751Z" stroke="white" stroke-width="2" stroke-linecap="round" stroke-linejoin="round"/>
<path d="M134.036 22.6758C134.036 27.5068 145.116 31.4231 158.785 31.4231C172.453 31.4231 183.533 27.5068 183.533 22.6758C183.533 17.8448 172.453 13.9285 158.785 13.9285C145.116 13.9285 134.036 17.8448 134.036 22.6758Z" fill="#FECB4F"/>
<path d="M133.327 19.7059C133.327 14.6927 144.724 10.6285 158.783 10.6285C172.843 10.6285 184.239 14.6927 184.239 19.7059L184.239 22.6767L183.532 22.6767L183.532 21.8401C180.84 25.8238 170.781 28.7833 158.783 28.7833C146.785 28.7833 136.726 25.8231 134.034 21.8394L134.034 22.6767L133.327 22.6767L133.327 19.7059Z" fill="white"/>
<path d="M137.219 19.4584C137.219 23.697 146.874 27.1331 158.785 27.1331C170.697 27.1331 180.352 23.697 180.352 19.4584C180.352 15.2199 170.697 11.7838 158.785 11.7838C146.874 11.7838 137.219 15.2199 137.219 19.4584Z" fill="#FECB4F"/>
<path d="M148.896 21.8084C148.897 21.8514 149.001 21.8935 149.129 21.9013L166.614 23.1749C166.743 23.1824 166.844 23.1565 166.842 23.1128L166.803 22.0197C166.801 21.9766 166.697 21.9345 166.569 21.9268L152.757 21.0981L166.5 20.0334C166.628 20.0239 166.728 19.98 166.727 19.9369L166.677 18.5684C166.675 18.5253 166.572 18.4832 166.443 18.4754L152.837 17.6796L166.376 16.6252C166.504 16.6156 166.604 16.5717 166.603 16.5286L166.56 15.3495C166.558 15.315 166.455 15.2815 166.327 15.2911L148.944 16.8066C148.816 16.8162 148.715 16.8601 148.717 16.9031L148.77 18.3748C148.772 18.4179 148.876 18.46 149.004 18.4677L161.382 19.2305L149.071 20.283C148.943 20.2926 148.842 20.3365 148.844 20.3796L148.896 21.8084Z" fill="white"/>
<path d="M133.682 17.3937C133.682 22.3158 144.921 26.306 158.785 26.306C172.648 26.306 183.887 22.3158 183.887 17.3937C183.887 12.4716 172.648 8.48138 158.785 8.48138C144.921 8.48138 133.682 12.4716 133.682 17.3937Z" stroke="white" stroke-width="2" stroke-linecap="round" stroke-linejoin="round"/>
<path d="M134.036 17.3933C134.036 22.2243 145.116 26.1406 158.785 26.1406C172.453 26.1406 183.533 22.2243 183.533 17.3933C183.533 12.5623 172.453 8.64593 158.785 8.64593C145.116 8.64593 134.036 12.5623 134.036 17.3933Z" fill="#FECB4F"/>
<path d="M133.327 14.4246C133.327 9.41134 144.724 5.34711 158.783 5.34711C172.843 5.34711 184.239 9.41134 184.239 14.4246L184.239 17.3954L183.532 17.3954L183.532 16.5588C180.84 20.5425 170.781 23.5021 158.783 23.5021C146.785 23.5021 136.726 20.5418 134.034 16.5581L134.034 17.3954L133.327 17.3954L133.327 14.4246Z" fill="white"/>
<path d="M137.219 14.1771C137.219 18.4156 146.874 21.8516 158.785 21.8516C170.697 21.8516 180.352 18.4156 180.352 14.1771C180.352 9.93852 170.697 6.5025 158.785 6.5025C146.874 6.5025 137.219 9.93852 137.219 14.1771Z" fill="#FECB4F"/>
<path d="M148.896 16.5268C148.897 16.5698 149.001 16.6119 149.129 16.6197L166.614 17.8932C166.743 17.9008 166.844 17.8749 166.842 17.8312L166.803 16.7381C166.801 16.695 166.697 16.6529 166.569 16.6452L152.757 15.8165L166.5 14.7519C166.628 14.7423 166.728 14.6984 166.727 14.6553L166.677 13.2868C166.675 13.2437 166.572 13.2016 166.443 13.1939L152.837 12.398L166.376 11.3436C166.504 11.334 166.604 11.2901 166.603 11.247L166.56 10.068C166.558 10.0335 166.455 9.99997 166.327 10.0096L148.944 11.525C148.816 11.5346 148.715 11.5785 148.717 11.6216L148.77 13.0932C148.772 13.1363 148.876 13.1784 149.004 13.1862L161.382 13.9489L149.071 15.0014C148.943 15.011 148.842 15.0549 148.844 15.098L148.896 16.5268Z" fill="white"/>
<path d="M133.682 12.1115C133.682 17.0336 144.921 21.0237 158.785 21.0237C172.648 21.0237 183.887 17.0336 183.887 12.1115C183.887 7.18947 172.648 3.19934 158.785 3.19934C144.921 3.19934 133.682 7.18946 133.682 12.1115Z" stroke="white" stroke-width="2" stroke-linecap="round" stroke-linejoin="round"/>
<path d="M134.036 12.1127C134.036 16.9437 145.116 20.86 158.785 20.86C172.453 20.86 183.533 16.9437 183.533 12.1127C183.533 7.28168 172.453 3.36536 158.785 3.36535C145.116 3.36535 134.036 7.28167 134.036 12.1127Z" fill="#FECB4F"/>
<path d="M133.327 9.14322C133.327 4.12997 144.724 0.0657331 158.783 0.0657337C172.843 0.0657343 184.239 4.12997 184.239 9.14322L184.239 12.114L183.532 12.114L183.532 11.2774C180.84 15.2611 170.781 18.2207 158.783 18.2207C146.785 18.2207 136.726 15.2604 134.034 11.2767L134.034 12.114L133.327 12.114L133.327 9.14322Z" fill="white"/>
<path d="M137.219 8.89569C137.219 13.1342 146.874 16.5702 158.785 16.5702C170.697 16.5702 180.352 13.1342 180.352 8.89569C180.352 4.65715 170.697 1.22113 158.785 1.22113C146.874 1.22113 137.219 4.65715 137.219 8.89569Z" fill="#FECB4F"/>
<path d="M148.896 11.2456C148.897 11.2886 149.001 11.3307 149.129 11.3385L166.614 12.6121C166.743 12.6196 166.844 12.5937 166.842 12.55L166.803 11.4569C166.801 11.4138 166.697 11.3717 166.569 11.364L152.757 10.5352L166.5 9.47064C166.628 9.46105 166.728 9.41716 166.727 9.37408L166.677 8.00555C166.675 7.96248 166.572 7.92038 166.443 7.91264L152.837 7.11675L166.376 6.06236C166.504 6.05276 166.604 6.00887 166.603 5.96579L166.56 4.78673C166.558 4.75224 166.455 4.71872 166.327 4.72832L148.944 6.24378C148.816 6.25338 148.715 6.29727 148.717 6.34034L148.77 7.81202C148.772 7.8551 148.876 7.8972 149.004 7.90493L161.382 8.66765L149.071 9.72023C148.943 9.72983 148.842 9.77371 148.844 9.81679L148.896 11.2456Z" fill="white"/>
<g clip-path="url(#clip3)">
<path d="M172.234 112.437C182.952 112.437 191.641 102.053 191.641 89.2441C191.641 76.4349 182.952 66.0509 172.234 66.0509C161.517 66.0509 152.828 76.4349 152.828 89.2441C152.828 102.053 161.517 112.437 172.234 112.437Z" stroke="white" stroke-width="2" stroke-linecap="round" stroke-linejoin="round"/>
<path d="M172.234 112.112C182.754 112.112 191.281 101.874 191.281 89.2452C191.281 76.6163 182.754 66.3786 172.234 66.3786C161.715 66.3786 153.188 76.6163 153.188 89.2452C153.188 101.874 161.715 112.112 172.234 112.112Z" fill="#FECB4F"/>
<path d="M165.766 112.767C154.85 112.767 146 102.237 146 89.2472C146 76.257 154.85 65.7273 165.766 65.7273H172.234V66.3806H170.413C179.087 68.8679 185.531 78.1618 185.531 89.2472C185.531 100.333 179.085 109.627 170.411 112.114H172.234V112.767H165.766Z" fill="white"/>
<path d="M165.227 109.173C174.456 109.173 181.937 100.252 181.937 89.2465C181.937 78.2414 174.456 69.3199 165.227 69.3199C155.997 69.3199 148.516 78.2414 148.516 89.2465C148.516 100.252 155.997 109.173 165.227 109.173Z" fill="#FECB4F"/>
<path d="M170.343 98.3833C170.437 98.3819 170.529 98.286 170.546 98.1675L173.319 82.0124C173.335 81.8939 173.279 81.8003 173.184 81.8018L170.803 81.8386C170.71 81.84 170.618 81.9359 170.601 82.0544L168.797 94.8161L166.478 82.1181C166.458 82.0001 166.362 81.9072 166.268 81.9086L163.288 81.9547C163.194 81.9561 163.103 82.052 163.086 82.1705L161.353 94.7423L159.057 82.2328C159.036 82.1148 158.941 82.0219 158.847 82.0233L156.279 82.063C156.204 82.0642 156.131 82.1597 156.152 82.2777L159.452 98.3392C159.473 98.4572 159.568 98.5501 159.662 98.5487L162.867 98.4992C162.961 98.4977 163.052 98.4019 163.069 98.2833L164.73 86.8466L167.022 98.2219C167.043 98.3399 167.138 98.4328 167.232 98.4314L170.343 98.3833Z" fill="white"/>
</g>
<g clip-path="url(#clip4)">
<path d="M195.82 112.535C203.509 112.535 209.742 105.18 209.742 96.1065C209.742 87.0332 203.509 79.6778 195.82 79.6778C188.131 79.6778 181.898 87.0332 181.898 96.1065C181.898 105.18 188.131 112.535 195.82 112.535Z" stroke="white" stroke-width="2" stroke-linecap="round" stroke-linejoin="round"/>
<path d="M195.82 112.302C203.367 112.302 209.484 105.051 209.484 96.1052C209.484 87.1597 203.367 79.9079 195.82 79.9079C188.274 79.9079 182.156 87.1597 182.156 96.1052C182.156 105.051 188.274 112.302 195.82 112.302Z" fill="#FECB4F"/>
<path d="M191.18 112.767C183.349 112.767 177 105.309 177 96.1071C177 86.9057 183.349 79.4471 191.18 79.4471H195.82V79.9099H194.514C200.736 81.6717 205.359 88.2549 205.359 96.1071C205.359 103.959 200.735 110.543 194.512 112.304H195.82V112.767H191.18Z" fill="white"/>
<path d="M190.793 110.22C197.414 110.22 202.781 103.9 202.781 96.1048C202.781 88.3095 197.414 81.9901 190.793 81.9901C184.172 81.9901 178.805 88.3095 178.805 96.1048C178.805 103.9 184.172 110.22 190.793 110.22Z" fill="#FECB4F"/>
<path d="M194.464 102.578C194.531 102.577 194.597 102.509 194.609 102.425L196.598 90.9821C196.61 90.8981 196.57 90.8319 196.501 90.8329L194.794 90.859C194.726 90.86 194.661 90.9279 194.649 91.0119L193.354 100.051L191.691 91.057C191.676 90.9734 191.607 90.9076 191.54 90.9086L189.402 90.9412C189.335 90.9423 189.269 91.0101 189.257 91.0941L188.014 99.9992L186.367 91.1382C186.352 91.0547 186.283 90.9888 186.216 90.9898L184.374 91.0179C184.32 91.0188 184.268 91.0865 184.283 91.17L186.65 102.547C186.665 102.631 186.734 102.696 186.801 102.695L189.1 102.66C189.167 102.659 189.233 102.591 189.245 102.507L190.437 94.4063L192.081 102.464C192.096 102.547 192.164 102.613 192.232 102.612L194.464 102.578Z" fill="white"/>
</g>
<defs>
<filter id="filter0_dii" x="0.0146484" y="99.5356" width="247.505" height="161.802" filterUnits="userSpaceOnUse" color-interpolation-filters="sRGB">
<feFlood flood-opacity="0" result="BackgroundImageFix"/>
<feColorMatrix in="SourceAlpha" type="matrix" values="0 0 0 0 0 0 0 0 0 0 0 0 0 0 0 0 0 0 127 0"/>
<feOffset dy="10"/>
<feGaussianBlur stdDeviation="3.5"/>
<feColorMatrix type="matrix" values="0 0 0 0 0.2625 0 0 0 0 0.193474 0 0 0 0 0.0339063 0 0 0 0.15 0"/>
<feBlend mode="normal" in2="BackgroundImageFix" result="effect1_dropShadow"/>
<feBlend mode="normal" in="SourceGraphic" in2="effect1_dropShadow" result="shape"/>
<feColorMatrix in="SourceAlpha" type="matrix" values="0 0 0 0 0 0 0 0 0 0 0 0 0 0 0 0 0 0 127 0" result="hardAlpha"/>
<feOffset dx="-2" dy="-10"/>
<feGaussianBlur stdDeviation="10"/>
<feComposite in2="hardAlpha" operator="arithmetic" k2="-1" k3="1"/>
<feColorMatrix type="matrix" values="0 0 0 0 0.908333 0 0 0 0 0.846081 0 0 0 0 0.707743 0 0 0 0.6 0"/>
<feBlend mode="normal" in2="shape" result="effect2_innerShadow"/>
<feColorMatrix in="SourceAlpha" type="matrix" values="0 0 0 0 0 0 0 0 0 0 0 0 0 0 0 0 0 0 127 0" result="hardAlpha"/>
<feOffset dy="2"/>
<feGaussianBlur stdDeviation="10"/>
<feComposite in2="hardAlpha" operator="arithmetic" k2="-1" k3="1"/>
<feColorMatrix type="matrix" values="0 0 0 0 0.909804 0 0 0 0 0.847059 0 0 0 0 0.705882 0 0 0 0.6 0"/>
<feBlend mode="normal" in2="effect2_innerShadow" result="effect3_innerShadow"/>
</filter>
<clipPath id="clip0">
<rect x="176.603" y="74.3701" width="45.821" height="45.821" fill="white"/>
</clipPath>
<clipPath id="clip1">
<rect x="196.968" y="92.1894" width="45.821" height="43.2754" fill="white"/>
</clipPath>
<clipPath id="clip2">
<rect width="18.5196" height="20.673" transform="matrix(0.866044 -0.499967 0.866044 0.499967 107.919 174.685)" fill="white"/>
</clipPath>
<clipPath id="clip3">
<rect x="146" y="65.7263" width="46" height="47.0402" fill="white"/>
</clipPath>
<clipPath id="clip4">
<rect x="177" y="79.4461" width="33" height="33.3204" fill="white"/>
</clipPath>
</defs>
</svg>
