<svg width="332" height="234" viewBox="0 0 332 234" fill="none" xmlns="http://www.w3.org/2000/svg">
<g filter="url(#filter0_dii)">
<rect width="72.0164" height="148.255" rx="2" transform="matrix(0.868726 -0.493817 0.868726 0.493817 133.802 35.563)" fill="#E5E5E5"/>
</g>
<rect width="63.7144" height="137.963" rx="2" transform="matrix(0.869963 -0.493118 0.869963 0.493118 140.236 33.7905)" fill="#FDD063"/>
<g clip-path="url(#clip0)">
<path d="M235.926 55.5144C238.888 53.8356 238.156 50.6992 234.292 48.509C230.428 46.3188 224.895 45.9042 221.933 47.583C218.971 49.2619 219.703 52.3983 223.567 54.5885C227.431 56.7787 232.964 57.1933 235.926 55.5144Z" stroke="white" stroke-width="2" stroke-linecap="round" stroke-linejoin="round"/>
<path d="M235.827 55.4585C238.734 53.8108 238.002 50.7246 234.193 48.5652C230.383 46.4059 224.938 45.9911 222.032 47.6388C219.125 49.2866 219.856 52.3728 223.666 54.5322C227.475 56.6915 232.92 57.1063 235.827 55.4585Z" fill="#FECB4F"/>
<path d="M234.237 56.5838C231.221 58.2936 225.599 57.8794 221.68 55.6583C217.762 53.4371 217.031 50.2505 220.048 48.5407L221.835 47.5274L222.032 47.6391L221.529 47.9245C224.676 46.991 229.261 47.5707 232.604 49.4662C235.948 51.3616 236.971 53.9605 235.324 55.7444L235.828 55.4588L236.025 55.5705L234.237 56.5838Z" fill="white"/>
<path d="M233.004 56.0535C235.554 54.6079 234.931 51.9105 231.611 50.0288C228.291 48.1471 223.532 47.7936 220.982 49.2392C218.432 50.6849 219.055 53.3822 222.375 55.264C225.695 57.1457 230.453 57.4992 233.004 56.0535Z" fill="#FECB4F"/>
<path d="M231.163 53.407C231.188 53.3921 231.185 53.3614 231.154 53.3385L227.047 50.1418C227.016 50.1189 226.972 50.1118 226.946 50.1269L226.299 50.5061C226.274 50.521 226.277 50.5517 226.308 50.5747L229.659 53.0394L225.188 51.2313C225.147 51.2144 225.093 51.2135 225.067 51.2284L224.258 51.7031C224.232 51.718 224.236 51.7488 224.267 51.7717L227.58 54.1927L223.172 52.4134C223.131 52.3965 223.076 52.3956 223.051 52.4105L222.353 52.8195C222.333 52.8314 222.342 52.8592 222.383 52.8761L228.14 55.1055C228.181 55.1224 228.236 55.1233 228.261 55.1084L229.132 54.598C229.157 54.583 229.154 54.5523 229.123 54.5294L226.132 52.3137L230.196 53.8997C230.238 53.9166 230.292 53.9175 230.318 53.9026L231.163 53.407Z" fill="white"/>
</g>
<g filter="url(#filter1_dii)">
<rect width="71.9205" height="148.057" rx="2" transform="matrix(-0.868351 -0.494481 -0.868351 0.494481 197.289 144.338)" fill="#E5E5E5"/>
</g>
<rect width="63.6295" height="137.779" rx="2" transform="matrix(-0.869587 -0.49378 -0.869587 0.49378 190.866 142.567)" fill="#FDD063"/>
<g clip-path="url(#clip1)">
<path d="M95.3455 164.291C92.3889 162.612 93.119 159.475 96.9761 157.285C100.833 155.095 106.357 154.68 109.313 156.359C112.27 158.038 111.54 161.174 107.683 163.365C103.826 165.555 98.302 165.969 95.3455 164.291Z" stroke="white" stroke-width="2" stroke-linecap="round" stroke-linejoin="round"/>
<path d="M95.4438 164.235C92.542 162.587 93.2725 159.501 97.0753 157.341C100.878 155.182 106.313 154.767 109.215 156.415C112.117 158.063 111.386 161.149 107.584 163.308C103.781 165.468 98.3456 165.882 95.4438 164.235Z" fill="#FECB4F"/>
<path d="M97.0308 165.36C100.042 167.07 105.654 166.656 109.566 164.434C113.477 162.213 114.207 159.027 111.196 157.317L109.411 156.304L109.214 156.415L109.717 156.701C106.575 155.767 101.999 156.347 98.6607 158.242C95.3227 160.138 94.3021 162.737 95.946 164.521L95.4431 164.235L95.2464 164.347L97.0308 165.36Z" fill="white"/>
<path d="M98.2621 164.83C95.7162 163.384 96.3388 160.687 99.6526 158.805C102.967 156.923 107.717 156.57 110.263 158.015C112.809 159.461 112.186 162.158 108.872 164.04C105.558 165.922 100.808 166.275 98.2621 164.83Z" fill="#FECB4F"/>
<path d="M100.1 162.183C100.074 162.168 100.078 162.137 100.109 162.115L104.209 158.918C104.24 158.895 104.284 158.888 104.309 158.903L104.955 159.282C104.98 159.297 104.977 159.328 104.946 159.351L101.601 161.816L106.064 160.007C106.105 159.991 106.159 159.99 106.185 160.005L106.993 160.479C107.018 160.494 107.015 160.525 106.984 160.548L103.676 162.969L108.076 161.19C108.118 161.173 108.172 161.172 108.198 161.187L108.894 161.596C108.914 161.608 108.906 161.635 108.864 161.652L103.117 163.882C103.076 163.899 103.022 163.899 102.996 163.885L102.127 163.374C102.102 163.359 102.105 163.328 102.137 163.305L105.122 161.09L101.065 162.676C101.023 162.693 100.969 162.694 100.944 162.679L100.1 162.183Z" fill="white"/>
</g>
<defs>
<filter id="filter0_dii" x="127.82" y="-9.42139" width="203.32" height="134.617" filterUnits="userSpaceOnUse" color-interpolation-filters="sRGB">
<feFlood flood-opacity="0" result="BackgroundImageFix"/>
<feColorMatrix in="SourceAlpha" type="matrix" values="0 0 0 0 0 0 0 0 0 0 0 0 0 0 0 0 0 0 127 0"/>
<feOffset dy="10"/>
<feGaussianBlur stdDeviation="3.5"/>
<feColorMatrix type="matrix" values="0 0 0 0 0.2625 0 0 0 0 0.193474 0 0 0 0 0.0339063 0 0 0 0.15 0"/>
<feBlend mode="normal" in2="BackgroundImageFix" result="effect1_dropShadow"/>
<feBlend mode="normal" in="SourceGraphic" in2="effect1_dropShadow" result="shape"/>
<feColorMatrix in="SourceAlpha" type="matrix" values="0 0 0 0 0 0 0 0 0 0 0 0 0 0 0 0 0 0 127 0" result="hardAlpha"/>
<feOffset dx="-2" dy="-10"/>
<feGaussianBlur stdDeviation="10"/>
<feComposite in2="hardAlpha" operator="arithmetic" k2="-1" k3="1"/>
<feColorMatrix type="matrix" values="0 0 0 0 0.908333 0 0 0 0 0.846081 0 0 0 0 0.707743 0 0 0 0.6 0"/>
<feBlend mode="normal" in2="shape" result="effect2_innerShadow"/>
<feColorMatrix in="SourceAlpha" type="matrix" values="0 0 0 0 0 0 0 0 0 0 0 0 0 0 0 0 0 0 127 0" result="hardAlpha"/>
<feOffset dy="2"/>
<feGaussianBlur stdDeviation="10"/>
<feComposite in2="hardAlpha" operator="arithmetic" k2="-1" k3="1"/>
<feColorMatrix type="matrix" values="0 0 0 0 0.909804 0 0 0 0 0.847059 0 0 0 0 0.705882 0 0 0 0.6 0"/>
<feBlend mode="normal" in2="effect2_innerShadow" result="effect3_innerShadow"/>
</filter>
<filter id="filter1_dii" x="0.288818" y="99.354" width="202.983" height="134.616" filterUnits="userSpaceOnUse" color-interpolation-filters="sRGB">
<feFlood flood-opacity="0" result="BackgroundImageFix"/>
<feColorMatrix in="SourceAlpha" type="matrix" values="0 0 0 0 0 0 0 0 0 0 0 0 0 0 0 0 0 0 127 0"/>
<feOffset dy="10"/>
<feGaussianBlur stdDeviation="3.5"/>
<feColorMatrix type="matrix" values="0 0 0 0 0.2625 0 0 0 0 0.193474 0 0 0 0 0.0339063 0 0 0 0.15 0"/>
<feBlend mode="normal" in2="BackgroundImageFix" result="effect1_dropShadow"/>
<feBlend mode="normal" in="SourceGraphic" in2="effect1_dropShadow" result="shape"/>
<feColorMatrix in="SourceAlpha" type="matrix" values="0 0 0 0 0 0 0 0 0 0 0 0 0 0 0 0 0 0 127 0" result="hardAlpha"/>
<feOffset dx="-2" dy="-10"/>
<feGaussianBlur stdDeviation="10"/>
<feComposite in2="hardAlpha" operator="arithmetic" k2="-1" k3="1"/>
<feColorMatrix type="matrix" values="0 0 0 0 0.908333 0 0 0 0 0.846081 0 0 0 0 0.707743 0 0 0 0.6 0"/>
<feBlend mode="normal" in2="shape" result="effect2_innerShadow"/>
<feColorMatrix in="SourceAlpha" type="matrix" values="0 0 0 0 0 0 0 0 0 0 0 0 0 0 0 0 0 0 127 0" result="hardAlpha"/>
<feOffset dy="2"/>
<feGaussianBlur stdDeviation="10"/>
<feComposite in2="hardAlpha" operator="arithmetic" k2="-1" k3="1"/>
<feColorMatrix type="matrix" values="0 0 0 0 0.909804 0 0 0 0 0.847059 0 0 0 0 0.705882 0 0 0 0.6 0"/>
<feBlend mode="normal" in2="effect2_innerShadow" result="effect3_innerShadow"/>
</filter>
<clipPath id="clip0">
<rect width="14.6118" height="16.3108" transform="matrix(0.869963 -0.493118 0.869963 0.493118 214.585 51.6364)" fill="white"/>
</clipPath>
<clipPath id="clip1">
<rect width="14.5924" height="16.2891" transform="matrix(-0.869587 -0.49378 -0.869587 0.49378 116.649 160.412)" fill="white"/>
</clipPath>
</defs>
</svg>
