<svg width="25" height="25" viewBox="0 0 25 25" fill="none" xmlns="http://www.w3.org/2000/svg">
<circle r="12.5" transform="matrix(-1 0 0 1 12.5 12.5)" fill="white"/>
<circle r="12.5" transform="matrix(-1 0 0 1 12.5 12.5)" fill="url(#paint0_linear)"/>
<circle r="12.5" transform="matrix(-1 0 0 1 12.5 12.5)" fill="url(#paint1_linear)"/>
<g filter="url(#filter0_i)">
<circle cx="12.3264" cy="12.3264" r="9.20139" fill="#FFDD2C"/>
<circle cx="12.3264" cy="12.3264" r="9.20139" fill="url(#paint2_linear)"/>
</g>
<circle cx="12.3264" cy="12.3264" r="8.50694" stroke="#FDD063" stroke-opacity="0.25" stroke-width="1.38889"/>
<g filter="url(#filter1_i)">
<path d="M5.99 8.67C5.88 8.76 5.765 8.845 5.645 8.925C5.525 9.005 5.385 9.045 5.225 9.045C5.075 9.045 5 8.91 5 8.64C5 8.09 5.255 7.64 5.765 7.29C6.255 6.93 6.845 6.75 7.535 6.75C8.225 6.75 8.73 6.995 9.05 7.485C9.31 7.875 9.44 8.405 9.44 9.075C9.44 9.365 9.385 9.74 9.275 10.2C8.705 12.58 8.415 14.23 8.405 15.15C8.415 15.59 8.6 15.89 8.96 16.05C9.1 16.11 9.265 16.14 9.455 16.14C10.345 16.14 11.185 15.615 11.975 14.565C11.575 13.165 11.375 11.575 11.375 9.795C11.375 9.135 11.53 8.6 11.84 8.19C12.16 7.77 12.675 7.56 13.385 7.56C13.915 7.56 14.315 7.71 14.585 8.01C14.865 8.31 15.005 8.705 15.005 9.195C15.005 10.205 14.74 11.45 14.21 12.93C14.03 13.43 13.82 13.925 13.58 14.415C14.01 15.575 14.58 16.155 15.29 16.155C16.09 16.155 16.79 15.615 17.39 14.535C17.83 13.745 18.19 12.67 18.47 11.31C17.74 11.21 17.16 10.9 16.73 10.38C16.31 9.86 16.1 9.305 16.1 8.715C16.1 8.125 16.285 7.635 16.655 7.245C17.025 6.855 17.53 6.66 18.17 6.66C18.81 6.65 19.29 6.875 19.61 7.335C19.93 7.785 20.09 8.4 20.09 9.18V9.48C20.09 9.59 20.085 9.71 20.075 9.84C20.245 9.76 20.39 9.68 20.51 9.6C20.63 9.51 20.75 9.465 20.87 9.465C21.07 9.465 21.17 9.55 21.17 9.72C21.17 10.05 21.06 10.34 20.84 10.59C20.63 10.84 20.345 11.03 19.985 11.16C19.855 12.33 19.68 13.25 19.46 13.92C19.05 15.21 18.51 16.19 17.84 16.86C17.04 17.64 16.055 18.035 14.885 18.045C13.915 18.045 13.125 17.4 12.515 16.11C11.495 17.4 10.335 18.045 9.035 18.045C8.145 18.045 7.435 17.825 6.905 17.385C6.385 16.935 6.125 16.23 6.125 15.27C6.125 15.04 6.25 14.435 6.5 13.455C6.76 12.465 6.965 11.655 7.115 11.025C7.265 10.385 7.34 9.88 7.34 9.51C7.34 8.7 7.135 8.295 6.725 8.295C6.585 8.295 6.455 8.335 6.335 8.415C6.225 8.495 6.11 8.58 5.99 8.67ZM13.265 8.82C13.005 8.82 12.875 9.225 12.875 10.035C12.875 10.845 12.945 11.66 13.085 12.48C13.465 11.49 13.655 10.53 13.655 9.6C13.655 9.4 13.62 9.22 13.55 9.06C13.49 8.9 13.395 8.82 13.265 8.82ZM18.335 7.965C18.125 7.965 18.02 8.13 18.02 8.46C18.02 9.06 18.255 9.495 18.725 9.765C18.765 9.385 18.785 9.13 18.785 9C18.785 8.72 18.75 8.495 18.68 8.325C18.6 8.085 18.485 7.965 18.335 7.965Z" fill="#FFBE16"/>
<path d="M5.99 8.67C5.88 8.76 5.765 8.845 5.645 8.925C5.525 9.005 5.385 9.045 5.225 9.045C5.075 9.045 5 8.91 5 8.64C5 8.09 5.255 7.64 5.765 7.29C6.255 6.93 6.845 6.75 7.535 6.75C8.225 6.75 8.73 6.995 9.05 7.485C9.31 7.875 9.44 8.405 9.44 9.075C9.44 9.365 9.385 9.74 9.275 10.2C8.705 12.58 8.415 14.23 8.405 15.15C8.415 15.59 8.6 15.89 8.96 16.05C9.1 16.11 9.265 16.14 9.455 16.14C10.345 16.14 11.185 15.615 11.975 14.565C11.575 13.165 11.375 11.575 11.375 9.795C11.375 9.135 11.53 8.6 11.84 8.19C12.16 7.77 12.675 7.56 13.385 7.56C13.915 7.56 14.315 7.71 14.585 8.01C14.865 8.31 15.005 8.705 15.005 9.195C15.005 10.205 14.74 11.45 14.21 12.93C14.03 13.43 13.82 13.925 13.58 14.415C14.01 15.575 14.58 16.155 15.29 16.155C16.09 16.155 16.79 15.615 17.39 14.535C17.83 13.745 18.19 12.67 18.47 11.31C17.74 11.21 17.16 10.9 16.73 10.38C16.31 9.86 16.1 9.305 16.1 8.715C16.1 8.125 16.285 7.635 16.655 7.245C17.025 6.855 17.53 6.66 18.17 6.66C18.81 6.65 19.29 6.875 19.61 7.335C19.93 7.785 20.09 8.4 20.09 9.18V9.48C20.09 9.59 20.085 9.71 20.075 9.84C20.245 9.76 20.39 9.68 20.51 9.6C20.63 9.51 20.75 9.465 20.87 9.465C21.07 9.465 21.17 9.55 21.17 9.72C21.17 10.05 21.06 10.34 20.84 10.59C20.63 10.84 20.345 11.03 19.985 11.16C19.855 12.33 19.68 13.25 19.46 13.92C19.05 15.21 18.51 16.19 17.84 16.86C17.04 17.64 16.055 18.035 14.885 18.045C13.915 18.045 13.125 17.4 12.515 16.11C11.495 17.4 10.335 18.045 9.035 18.045C8.145 18.045 7.435 17.825 6.905 17.385C6.385 16.935 6.125 16.23 6.125 15.27C6.125 15.04 6.25 14.435 6.5 13.455C6.76 12.465 6.965 11.655 7.115 11.025C7.265 10.385 7.34 9.88 7.34 9.51C7.34 8.7 7.135 8.295 6.725 8.295C6.585 8.295 6.455 8.335 6.335 8.415C6.225 8.495 6.11 8.58 5.99 8.67ZM13.265 8.82C13.005 8.82 12.875 9.225 12.875 10.035C12.875 10.845 12.945 11.66 13.085 12.48C13.465 11.49 13.655 10.53 13.655 9.6C13.655 9.4 13.62 9.22 13.55 9.06C13.49 8.9 13.395 8.82 13.265 8.82ZM18.335 7.965C18.125 7.965 18.02 8.13 18.02 8.46C18.02 9.06 18.255 9.495 18.725 9.765C18.765 9.385 18.785 9.13 18.785 9C18.785 8.72 18.75 8.495 18.68 8.325C18.6 8.085 18.485 7.965 18.335 7.965Z" fill="black" fill-opacity="0.1"/>
</g>
<defs>
<filter id="filter0_i" x="3.125" y="3.125" width="18.4028" height="23.9583" filterUnits="userSpaceOnUse" color-interpolation-filters="sRGB">
<feFlood flood-opacity="0" result="BackgroundImageFix"/>
<feBlend mode="normal" in="SourceGraphic" in2="BackgroundImageFix" result="shape"/>
<feColorMatrix in="SourceAlpha" type="matrix" values="0 0 0 0 0 0 0 0 0 0 0 0 0 0 0 0 0 0 127 0" result="hardAlpha"/>
<feOffset dy="5.55556"/>
<feGaussianBlur stdDeviation="9.72222"/>
<feComposite in2="hardAlpha" operator="arithmetic" k2="-1" k3="1"/>
<feColorMatrix type="matrix" values="0 0 0 0 0.94902 0 0 0 0 0.647059 0 0 0 0 0.290196 0 0 0 0.6 0"/>
<feBlend mode="normal" in2="shape" result="effect1_innerShadow"/>
</filter>
<filter id="filter1_i" x="5" y="6.65967" width="16.17" height="12.7742" filterUnits="userSpaceOnUse" color-interpolation-filters="sRGB">
<feFlood flood-opacity="0" result="BackgroundImageFix"/>
<feBlend mode="normal" in="SourceGraphic" in2="BackgroundImageFix" result="shape"/>
<feColorMatrix in="SourceAlpha" type="matrix" values="0 0 0 0 0 0 0 0 0 0 0 0 0 0 0 0 0 0 127 0" result="hardAlpha"/>
<feOffset dy="1.38889"/>
<feGaussianBlur stdDeviation="0.694444"/>
<feComposite in2="hardAlpha" operator="arithmetic" k2="-1" k3="1"/>
<feColorMatrix type="matrix" values="0 0 0 0 0 0 0 0 0 0 0 0 0 0 0 0 0 0 0.1 0"/>
<feBlend mode="normal" in2="shape" result="effect1_innerShadow"/>
</filter>
<linearGradient id="paint0_linear" x1="12.5" y1="0" x2="12.5" y2="25" gradientUnits="userSpaceOnUse">
<stop stop-color="#FFDD2C"/>
<stop offset="1" stop-color="#FFC42C"/>
</linearGradient>
<linearGradient id="paint1_linear" x1="12.5" y1="0" x2="12.5" y2="25" gradientUnits="userSpaceOnUse">
<stop stop-color="#FFDD2C"/>
<stop offset="1" stop-color="#FAB131"/>
</linearGradient>
<linearGradient id="paint2_linear" x1="12.3264" y1="3.125" x2="12.3264" y2="21.5278" gradientUnits="userSpaceOnUse">
<stop stop-color="#FFDD2C"/>
<stop offset="1" stop-color="#FFC42C"/>
</linearGradient>
</defs>
</svg>
